M48
;DRILL file {Pcbnew (2012-01-19 BZR 3256)-stable} date 07/11/2012 22:21:57
;FORMAT={-:-/ absolute / metric / decimal}
FMAT,2
METRIC,TZ
T1C0.135
T2C0.813
T3C1.016
%
G90
G05
M71
T1
X19.177Y25.781
X22.606Y25.781
X26.797Y21.463
X30.480Y21.463
X33.782Y24.003
X33.782Y31.623
X35.306Y35.560
X35.306Y38.227
T2
X17.272Y15.748
X17.272Y18.288
X17.272Y22.098
X17.272Y24.638
X17.272Y28.448
X17.272Y30.988
X17.272Y34.798
X17.272Y37.338
X26.543Y24.003
X26.543Y31.623
X31.623Y24.003
X31.623Y31.623
X31.750Y26.543
X31.750Y29.083
T3
X29.464Y34.671
X29.464Y37.211
X37.973Y21.463
X37.973Y24.003
X37.973Y26.543
X37.973Y29.083
X37.973Y31.623
X37.973Y34.163
T0
M30
