<?xml version="1.0" standalone="no"?>
<!DOCTYPE svg PUBLIC "-//W3C//DTD SVG 20010904//EN" 
"http://www.w3.org/TR/2001/REC-SVG-20010904/DTD/svg10.dtd"> 
<svg xmlns="http://www.w3.org/2000/svg" xmlns:xlink="http://www.w3.org/1999/xlink" 
    width="29.72cm" height="21.00cm" viewBox="0 0 117000 82670 "> 
<title>SVG Picture created as tvbgone_fullcms-Dessous.svg </title>
<desc>Picture generated by wxSVG v0100 </desc>
<g style="fill:black; stroke:black; stroke-width:1">
</g>
<g style="fill:#000000; fill-opacity:0.0; stroke:#000000; stroke-opacity:1.00; stroke-linecap:round; stroke-linejoin:round; stroke-width:111" 
   transform="translate(0.00 0.00) scale(1.00 1.00)">
<ellipse cx="15500" cy="15150" rx="295" ry="295"  /> 
<path d="M14910 15150 L16090 15150" /> 
<path d="M15500 14560 L15500 15740" /> 
</g>
<g style="fill:#000000; fill-opacity:0.0; stroke:#000000; stroke-opacity:1.00; stroke-linecap:round; stroke-linejoin:round; stroke-width:150" 
   transform="translate(0.00 0.00) scale(1.00 1.00)">
<path d="M5000 16024 L5000 5000" /> 
<path d="M16417 16024 L5000 16024" /> 
<path d="M16417 5000 L16417 16024" /> 
<path d="M5000 5000 L16417 5000" /> 
</g>
<g style="fill:#000000; fill-opacity:1.00; stroke:#000000; stroke-opacity:1.00; stroke-linecap:round; stroke-linejoin:round; stroke-width:0" 
   transform="translate(0.00 0.00) scale(1.00 1.00)">
<ellipse cx="13900" cy="15050" rx="175" ry="175"  /> 
</g>
<g style="fill:#000000; fill-opacity:1.00; stroke:#000000; stroke-opacity:1.00; stroke-linecap:round; stroke-linejoin:round; stroke-width:198" 
   transform="translate(0.00 0.00) scale(1.00 1.00)">
<path d="M14625 13775 L14125 13775" /> 
<path d="M9175 8775 L8900 8775" /> 
<path d="M9450 12600 L9450 13750" /> 
<path d="M9450 13750 L9450 14150" /> 
<path d="M9700 13500 L9450 13750" /> 
<path d="M14950 13450 L14625 13775" /> 
<path d="M10400 13500 L9700 13500" /> 
<path d="M9775 8775 L9175 8775" /> 
<path d="M12650 13775 L14625 13775" /> 
<path d="M9275 14325 L8900 14325" /> 
<path d="M10550 12350 L10450 12450" /> 
<path d="M10450 9450 L10550 9550" /> 
<path d="M10450 8550 L10450 9450" /> 
<path d="M11600 13650 L10550 13650" /> 
<path d="M10400 13500 L10400 12500" /> 
<path d="M14299 6949 L13601 6949" /> 
<path d="M12650 13775 L11725 13775" /> 
<path d="M8900 12375 L8925 12350" /> 
<path d="M10550 9550 L10550 12350" /> 
<path d="M12475 7725 L12450 7700" /> 
<path d="M11200 12450 L10450 12450" /> 
<path d="M9200 12350 L9450 12600" /> 
<path d="M10550 13650 L10400 13500" /> 
<path d="M12450 7700 L12800 7700" /> 
<path d="M11725 13775 L11600 13650" /> 
<path d="M12800 7700 L12950 7850" /> 
<path d="M12141 11509 L11200 12450" /> 
<path d="M9450 14150 L9275 14325" /> 
<path d="M9350 8600 L9175 8775" /> 
<path d="M14450 7100 L14299 6949" /> 
<path d="M14450 7600 L14450 7100" /> 
<path d="M13900 15050 L13500 15050" /> 
<path d="M12950 7850 L14200 7850" /> 
</g>
<g style="fill:#000000; fill-opacity:1.00; stroke:#000000; stroke-opacity:1.00; stroke-linecap:round; stroke-linejoin:round; stroke-width:0" 
   transform="translate(0.00 0.00) scale(1.00 1.00)">
<ellipse cx="10550" cy="8450" rx="175" ry="175"  /> 
</g>
<g style="fill:#000000; fill-opacity:1.00; stroke:#000000; stroke-opacity:1.00; stroke-linecap:round; stroke-linejoin:round; stroke-width:198" 
   transform="translate(0.00 0.00) scale(1.00 1.00)">
<path d="M9350 7275 L9350 8600" /> 
</g>
<g style="fill:#000000; fill-opacity:1.00; stroke:#000000; stroke-opacity:1.00; stroke-linecap:round; stroke-linejoin:round; stroke-width:0" 
   transform="translate(0.00 0.00) scale(1.00 1.00)">
<ellipse cx="12000" cy="8450" rx="175" ry="175"  /> 
</g>
<g style="fill:#000000; fill-opacity:1.00; stroke:#000000; stroke-opacity:1.00; stroke-linecap:round; stroke-linejoin:round; stroke-width:198" 
   transform="translate(0.00 0.00) scale(1.00 1.00)">
<path d="M8900 6825 L9350 7275" /> 
<path d="M10550 8450 L10450 8550" /> 
<path d="M12475 8450 L12000 8450" /> 
<path d="M12475 8450 L12475 7725" /> 
<path d="M14200 7850 L14450 7600" /> 
<path d="M10450 9450 L9775 8775" /> 
<path d="M10400 12500 L10450 12450" /> 
<path d="M12500 11509 L12141 11509" /> 
</g>
<g style="fill:#000000; fill-opacity:1.00; stroke:#000000; stroke-opacity:1.00; stroke-linecap:round; stroke-linejoin:round; stroke-width:0" 
   transform="translate(0.00 0.00) scale(1.00 1.00)">
<ellipse cx="13900" cy="14000" rx="175" ry="175"  /> 
</g>
<g style="fill:#000000; fill-opacity:1.00; stroke:#000000; stroke-opacity:1.00; stroke-linecap:round; stroke-linejoin:round; stroke-width:198" 
   transform="translate(0.00 0.00) scale(1.00 1.00)">
<path d="M14125 13775 L13900 14000" /> 
<path d="M8925 12350 L9200 12350" /> 
<path d="M14950 8450 L14950 6200" /> 
<path d="M14600 5850 L11850 5850" /> 
<path d="M10500 7200 L9950 7200" /> 
<path d="M14950 6200 L14600 5850" /> 
<path d="M11850 5850 L10500 7200" /> 
<path d="M14197 8450 L14950 8450" /> 
<path d="M10650 7700 L9950 7700" /> 
<path d="M11150 9703 L11150 9050" /> 
<path d="M11800 9700 L11150 9050" /> 
<path d="M11150 8200 L10650 7700" /> 
</g>
<g style="fill:#000000; fill-opacity:1.00; stroke:#000000; stroke-opacity:1.00; stroke-linecap:round; stroke-linejoin:round; stroke-width:119" 
   transform="translate(0.00 0.00) scale(1.00 1.00)">
<path d="M13250 10950 L12000 10950" /> 
</g>
<g style="fill:#000000; fill-opacity:1.00; stroke:#000000; stroke-opacity:1.00; stroke-linecap:round; stroke-linejoin:round; stroke-width:198" 
   transform="translate(0.00 0.00) scale(1.00 1.00)">
<path d="M12000 10950 L11800 10750" /> 
<path d="M11800 10750 L11800 9700" /> 
<path d="M11150 9050 L11150 8200" /> 
<path d="M14950 11450 L13750 11450" /> 
<path d="M13750 11450 L13250 10950" /> 
<path d="M8200 10950 L8400 10750" /> 
<path d="M8900 15075 L8525 15075" /> 
<path d="M8400 8100 L8400 9750" /> 
<path d="M8900 13125 L8575 13125" /> 
<path d="M8575 13125 L8400 13300" /> 
<path d="M8900 7575 L8925 7575" /> 
<path d="M8925 7575 L8400 8100" /> 
<path d="M8200 10950 L8400 11150" /> 
<path d="M8625 9525 L8400 9750" /> 
<path d="M7900 10950 L8200 10950" /> 
<path d="M8400 11150 L8400 13300" /> 
<path d="M8400 14950 L8400 13300" /> 
<path d="M8900 9525 L8625 9525" /> 
<path d="M8525 15075 L8400 14950" /> 
<path d="M8400 10750 L8400 9750" /> 
<path d="M9850 10900 L9425 11325" /> 
<path d="M9425 11325 L8900 11325" /> 
<path d="M13275 10400 L12550 10400" /> 
<path d="M12550 10400 L12500 10450" /> 
<path d="M7900 14700 L6800 14700" /> 
<path d="M7900 7200 L6800 7200" /> 
<path d="M7900 12750 L7550 12750" /> 
<path d="M7550 12750 L7000 12200" /> 
<path d="M7000 12200 L6800 12200" /> 
<path d="M7050 9700 L6800 9700" /> 
<path d="M7600 9150 L7050 9700" /> 
<path d="M7900 9150 L7600 9150" /> 
<path d="M12750 6700 L12974 6476" /> 
<path d="M12974 6476 L13601 6476" /> 
<path d="M12450 6700 L12750 6700" /> 
<path d="M12450 7200 L12700 7200" /> 
<path d="M12921 7421 L13601 7421" /> 
<path d="M12700 7200 L12921 7421" /> 
<path d="M13803 8450 L13225 8450" /> 
<path d="M11150 10900 L11150 10097" /> 
<path d="M14950 12450 L13300 12450" /> 
<path d="M12450 9450 L13300 9450" /> 
<path d="M13300 12450 L12450 12450" /> 
<path d="M11600 6600 L11600 9000" /> 
</g>
<g style="fill:#000000; fill-opacity:1.00; stroke:#000000; stroke-opacity:1.00; stroke-linecap:round; stroke-linejoin:round; stroke-width:0" 
   transform="translate(0.00 0.00) scale(1.00 1.00)">
<ellipse cx="13300" cy="9450" rx="175" ry="175"  /> 
</g>
<g style="fill:#000000; fill-opacity:1.00; stroke:#000000; stroke-opacity:1.00; stroke-linecap:round; stroke-linejoin:round; stroke-width:198" 
   transform="translate(0.00 0.00) scale(1.00 1.00)">
<path d="M12000 6200 L11600 6600" /> 
</g>
<g style="fill:#000000; fill-opacity:1.00; stroke:#000000; stroke-opacity:1.00; stroke-linecap:round; stroke-linejoin:round; stroke-width:0" 
   transform="translate(0.00 0.00) scale(1.00 1.00)">
<ellipse cx="13300" cy="12450" rx="175" ry="175"  /> 
</g>
<g style="fill:#000000; fill-opacity:1.00; stroke:#000000; stroke-opacity:1.00; stroke-linecap:round; stroke-linejoin:round; stroke-width:198" 
   transform="translate(0.00 0.00) scale(1.00 1.00)">
<path d="M12050 9450 L12450 9450" /> 
<path d="M11600 9000 L12050 9450" /> 
<path d="M12450 6200 L12000 6200" /> 
<path d="M11700 5550 L15250 5550" /> 
<path d="M15750 10100 L15400 10450" /> 
<path d="M10550 6700 L11700 5550" /> 
<path d="M15750 6050 L15750 10100" /> 
<path d="M14950 10450 L14075 10450" /> 
<path d="M15250 5550 L15750 6050" /> 
<path d="M15400 10450 L14950 10450" /> 
<path d="M14075 10450 L14025 10400" /> 
<path d="M9950 6700 L10550 6700" /> 
</g>
<g style="fill:#000000; fill-opacity:1.00; stroke:#000000; stroke-opacity:1.00; stroke-linecap:round; stroke-linejoin:round; stroke-width:0" 
   transform="translate(0.00 0.00) scale(1.00 1.00)">
<ellipse cx="7550" cy="10150" rx="175" ry="175"  /> 
</g>
<g style="fill:#000000; fill-opacity:1.00; stroke:#000000; stroke-opacity:1.00; stroke-linecap:round; stroke-linejoin:round; stroke-width:198" 
   transform="translate(0.00 0.00) scale(1.00 1.00)">
<path d="M11600 14650 L10550 14650" /> 
<path d="M7550 10150 L7550 10150" /> 
<path d="M6800 11200 L6200 11200" /> 
<path d="M9750 15450 L6450 15450" /> 
<path d="M13650 10850 L13650 9650" /> 
<path d="M6800 13700 L6200 13700" /> 
<path d="M15650 11150 L15450 10950" /> 
<path d="M13750 10950 L13650 10850" /> 
</g>
<g style="fill:#000000; fill-opacity:1.00; stroke:#000000; stroke-opacity:1.00; stroke-linecap:round; stroke-linejoin:round; stroke-width:0" 
   transform="translate(0.00 0.00) scale(1.00 1.00)">
<ellipse cx="8900" cy="10150" rx="175" ry="175"  /> 
</g>
<g style="fill:#000000; fill-opacity:1.00; stroke:#000000; stroke-opacity:1.00; stroke-linecap:round; stroke-linejoin:round; stroke-width:198" 
   transform="translate(0.00 0.00) scale(1.00 1.00)">
<path d="M6800 10900 L7550 10150" /> 
<path d="M15450 10950 L13750 10950" /> 
<path d="M5800 13300 L5800 11600" /> 
<path d="M6800 6200 L9950 6200" /> 
<path d="M12650 14525 L11725 14525" /> 
<path d="M11725 14525 L11600 14650" /> 
<path d="M5800 6600 L6200 6200" /> 
<path d="M6200 13700 L5800 13300" /> 
<path d="M8900 10150 L8900 10575" /> 
<path d="M5800 14100 L6200 13700" /> 
<path d="M5800 11600 L6200 11200" /> 
<path d="M6450 15450 L5800 14800" /> 
<path d="M10400 14800 L9750 15450" /> 
<path d="M6800 8700 L6200 8700" /> 
<path d="M10550 14650 L10400 14800" /> 
<path d="M5800 9100 L6200 8700" /> 
<path d="M13650 9650 L13850 9450" /> 
<path d="M6800 11200 L6800 10900" /> 
<path d="M5800 8300 L5800 6600" /> 
<path d="M6200 8700 L5800 8300" /> 
<path d="M5800 14800 L5800 14100" /> 
<path d="M6200 11200 L5800 10800" /> 
<path d="M12650 14525 L15075 14525" /> 
<path d="M13850 9450 L14950 9450" /> 
<path d="M15075 14525 L15650 13950" /> 
<path d="M15650 13950 L15650 11150" /> 
<path d="M6200 6200 L6800 6200" /> 
<path d="M5800 10800 L5800 9100" /> 
</g>
<g style="fill:#000000; fill-opacity:1.00; stroke:#000000; stroke-opacity:1.00; stroke-linecap:round; stroke-linejoin:round; stroke-width:100" 
   transform="translate(0.00 0.00) scale(1.00 1.00)">
<path d="M14656 7956 L14656 7956" /> 
<path d="M14612 7956 L14656 7956" /> 
<path d="M14541 7985 L14612 7956" /> 
<path d="M14486 8040 L14541 7985" /> 
<path d="M14464 8089 L14486 8040" /> 
<path d="M14393 8059 L14464 8089" /> 
<path d="M14316 8059 L14393 8059" /> 
<path d="M14002 8059 L14316 8059" /> 
<path d="M14000 8059 L14002 8059" /> 
<path d="M13999 8059 L14000 8059" /> 
<path d="M13922 8059 L13999 8059" /> 
<path d="M13608 8059 L13922 8059" /> 
<path d="M13568 8075 L13608 8059" /> 
<path d="M13565 8066 L13568 8075" /> 
<path d="M13510 8011 L13565 8066" /> 
<path d="M13439 7981 L13510 8011" /> 
<path d="M13362 7981 L13439 7981" /> 
<path d="M13012 7981 L13362 7981" /> 
<path d="M12941 8010 L13012 7981" /> 
<path d="M12886 8065 L12941 8010" /> 
<path d="M12879 8079 L12886 8065" /> 
<path d="M12861 8034 L12879 8079" /> 
<path d="M12827 8000 L12861 8034" /> 
<path d="M12886 7941 L12827 8000" /> 
<path d="M12924 7849 L12886 7941" /> 
<path d="M12925 7772 L12924 7849" /> 
<path d="M12913 7760 L12925 7772" /> 
<path d="M12925 7760 L12913 7760" /> 
<path d="M12925 7715 L12925 7760" /> 
<path d="M12983 7715 L12925 7715" /> 
<path d="M12991 7723 L12983 7715" /> 
<path d="M13062 7753 L12991 7723" /> 
<path d="M13139 7753 L13062 7753" /> 
<path d="M14139 7753 L13139 7753" /> 
<path d="M14210 7724 L14139 7753" /> 
<path d="M14265 7669 L14210 7724" /> 
<path d="M14295 7598 L14265 7669" /> 
<path d="M14295 7521 L14295 7598" /> 
<path d="M14295 7245 L14295 7521" /> 
<path d="M14312 7228 L14295 7245" /> 
<path d="M14350 7136 L14312 7228" /> 
<path d="M14351 7021 L14350 7136" /> 
<path d="M14289 6959 L14351 7021" /> 
<path d="M13661 6959 L14289 6959" /> 
<path d="M13611 6959 L13661 6959" /> 
<path d="M13591 6959 L13611 6959" /> 
<path d="M13591 6939 L13591 6959" /> 
<path d="M13611 6939 L13591 6939" /> 
<path d="M13661 6939 L13611 6939" /> 
<path d="M14289 6939 L13661 6939" /> 
<path d="M14351 6877 L14289 6939" /> 
<path d="M14350 6762 L14351 6877" /> 
<path d="M14312 6670 L14350 6762" /> 
<path d="M14295 6653 L14312 6670" /> 
<path d="M14295 6576 L14295 6653" /> 
<path d="M14295 6300 L14295 6576" /> 
<path d="M14266 6229 L14295 6300" /> 
<path d="M14211 6174 L14266 6229" /> 
<path d="M14140 6144 L14211 6174" /> 
<path d="M14478 6144 L14140 6144" /> 
<path d="M14656 6322 L14478 6144" /> 
<path d="M14656 7956 L14656 6322" /> 
</g>
<g style="fill:#000000; fill-opacity:1.00; stroke:#000000; stroke-opacity:1.00; stroke-linecap:round; stroke-linejoin:round; stroke-width:0" 
   transform="translate(0.00 0.00) scale(1.00 1.00)">
<polygon style="fill-rule:evenodd; " 
points="14464,8089
14393,8059
14316,8059
14002,8059
14000,8059
13999,8059
13922,8059
13608,8059
13568,8075
13565,8066
13510,8011
13439,7981
13362,7981
13012,7981
12941,8010
12886,8065
12879,8079
12861,8034
12827,8000
12886,7941
12924,7849
12925,7772
12913,7760
12925,7760
12925,7715
12983,7715
12991,7723
13062,7753
13139,7753
14139,7753
14210,7724
14265,7669
14295,7598
14295,7521
14295,7245
14312,7228
14350,7136
14351,7021
14289,6959
13661,6959
13611,6959
13591,6959
13591,6939
13611,6939
13661,6939
14289,6939
14351,6877
14350,6762
14312,6670
14295,6653
14295,6576
14295,6300
14266,6229
14211,6174
14140,6144
14478,6144
14656,6322
14656,7956
14656,7956
14612,7956
14541,7985
14486,8040
" /> 
</g>
<g style="fill:#000000; fill-opacity:1.00; stroke:#000000; stroke-opacity:1.00; stroke-linecap:round; stroke-linejoin:round; stroke-width:100" 
   transform="translate(0.00 0.00) scale(1.00 1.00)">
<path d="M15356 13125 L15356 13125" /> 
<path d="M15301 13113 L15356 13125" /> 
<path d="M14999 13415 L15301 13113" /> 
<path d="M14964 13450 L14999 13415" /> 
<path d="M14950 13464 L14964 13450" /> 
<path d="M14936 13478 L14950 13464" /> 
<path d="M14936 13450 L14936 13478" /> 
<path d="M14599 13113 L14936 13450" /> 
<path d="M14500 13135 L14599 13113" /> 
<path d="M14413 13332 L14500 13135" /> 
<path d="M14409 13547 L14413 13332" /> 
<path d="M14487 13746 L14409 13547" /> 
<path d="M14500 13765 L14487 13746" /> 
<path d="M14599 13787 L14500 13765" /> 
<path d="M14936 13450 L14599 13787" /> 
<path d="M14936 13478 L14936 13450" /> 
<path d="M14915 13499 L14936 13478" /> 
<path d="M14613 13801 L14915 13499" /> 
<path d="M14635 13900 L14613 13801" /> 
<path d="M14832 13987 L14635 13900" /> 
<path d="M15047 13991 L14832 13987" /> 
<path d="M15246 13913 L15047 13991" /> 
<path d="M15265 13900 L15246 13913" /> 
<path d="M15274 13859 L15265 13900" /> 
<path d="M15287 13871 L15274 13859" /> 
<path d="M15299 13884 L15287 13871" /> 
<path d="M15287 13897 L15299 13884" /> 
<path d="M14953 14231 L15287 13897" /> 
<path d="M13080 14231 L14953 14231" /> 
<path d="M13035 14186 L13080 14231" /> 
<path d="M13020 14179 L13035 14186" /> 
<path d="M13066 14161 L13020 14179" /> 
<path d="M13136 14091 L13066 14161" /> 
<path d="M13174 13999 L13136 14091" /> 
<path d="M13175 13847 L13174 13999" /> 
<path d="M13175 13703 L13175 13847" /> 
<path d="M13174 13551 L13175 13703" /> 
<path d="M13136 13459 L13174 13551" /> 
<path d="M13066 13389 L13136 13459" /> 
<path d="M12975 13351 L13066 13389" /> 
<path d="M12876 13351 L12975 13351" /> 
<path d="M12722 13350 L12876 13351" /> 
<path d="M12660 13412 L12722 13350" /> 
<path d="M12660 13765 L12660 13412" /> 
<path d="M13113 13765 L12660 13765" /> 
<path d="M13175 13703 L13113 13765" /> 
<path d="M13175 13847 L13175 13703" /> 
<path d="M13113 13785 L13175 13847" /> 
<path d="M12710 13785 L13113 13785" /> 
<path d="M12660 13785 L12710 13785" /> 
<path d="M12640 13785 L12660 13785" /> 
<path d="M12640 13765 L12640 13785" /> 
<path d="M12640 13715 L12640 13765" /> 
<path d="M12640 13412 L12640 13715" /> 
<path d="M12578 13350 L12640 13412" /> 
<path d="M12424 13351 L12578 13350" /> 
<path d="M12325 13351 L12424 13351" /> 
<path d="M12234 13389 L12325 13351" /> 
<path d="M12164 13459 L12234 13389" /> 
<path d="M12133 13533 L12164 13459" /> 
<path d="M12063 13354 L12133 13533" /> 
<path d="M12050 13335 L12063 13354" /> 
<path d="M11951 13313 L12050 13335" /> 
<path d="M11937 13327 L11951 13313" /> 
<path d="M11937 13299 L11937 13327" /> 
<path d="M11915 13200 L11937 13299" /> 
<path d="M11718 13113 L11915 13200" /> 
<path d="M11503 13109 L11718 13113" /> 
<path d="M11304 13187 L11503 13109" /> 
<path d="M11285 13200 L11304 13187" /> 
<path d="M11263 13299 L11285 13200" /> 
<path d="M11600 13636 L11263 13299" /> 
<path d="M11937 13299 L11600 13636" /> 
<path d="M11937 13327 L11937 13299" /> 
<path d="M11614 13650 L11937 13327" /> 
<path d="M11951 13987 L11614 13650" /> 
<path d="M12050 13965 L11951 13987" /> 
<path d="M12125 13795 L12050 13965" /> 
<path d="M12125 13835 L12125 13795" /> 
<path d="M12137 13835 L12125 13835" /> 
<path d="M12125 13847 L12137 13835" /> 
<path d="M12126 13999 L12125 13847" /> 
<path d="M12164 14091 L12126 13999" /> 
<path d="M12234 14161 L12164 14091" /> 
<path d="M12278 14179 L12234 14161" /> 
<path d="M12266 14185 L12278 14179" /> 
<path d="M12220 14231 L12266 14185" /> 
<path d="M12055 14231 L12220 14231" /> 
<path d="M12010 14186 L12055 14231" /> 
<path d="M11939 14156 L12010 14186" /> 
<path d="M11862 14156 L11939 14156" /> 
<path d="M11786 14156 L11862 14156" /> 
<path d="M11896 14113 L11786 14156" /> 
<path d="M11915 14100 L11896 14113" /> 
<path d="M11937 14001 L11915 14100" /> 
<path d="M11600 13664 L11937 14001" /> 
<path d="M11586 13678 L11600 13664" /> 
<path d="M11586 13650 L11586 13678" /> 
<path d="M11249 13313 L11586 13650" /> 
<path d="M11150 13335 L11249 13313" /> 
<path d="M11063 13532 L11150 13335" /> 
<path d="M11059 13747 L11063 13532" /> 
<path d="M11137 13946 L11059 13747" /> 
<path d="M11150 13965 L11137 13946" /> 
<path d="M11249 13987 L11150 13965" /> 
<path d="M11586 13650 L11249 13987" /> 
<path d="M11586 13678 L11586 13650" /> 
<path d="M11263 14001 L11586 13678" /> 
<path d="M11285 14100 L11263 14001" /> 
<path d="M11411 14156 L11285 14100" /> 
<path d="M11262 14156 L11411 14156" /> 
<path d="M11191 14185 L11262 14156" /> 
<path d="M11136 14240 L11191 14185" /> 
<path d="M11106 14311 L11136 14240" /> 
<path d="M11106 14356 L11106 14311" /> 
<path d="M11050 14356 L11106 14356" /> 
<path d="M11050 13572 L11050 14356" /> 
<path d="M11050 13428 L11050 13572" /> 
<path d="M11049 13151 L11050 13428" /> 
<path d="M11011 13059 L11049 13151" /> 
<path d="M10966 13014 L11011 13059" /> 
<path d="M10966 12358 L10966 13014" /> 
<path d="M10892 12168 L10966 12358" /> 
<path d="M10880 12150 L10892 12168" /> 
<path d="M10784 12130 L10880 12150" /> 
<path d="M10770 12144 L10784 12130" /> 
<path d="M10770 12116 L10770 12144" /> 
<path d="M10750 12020 L10770 12116" /> 
<path d="M10563 11938 L10750 12020" /> 
<path d="M10358 11934 L10563 11938" /> 
<path d="M10168 12008 L10358 11934" /> 
<path d="M10150 12020 L10168 12008" /> 
<path d="M10130 12116 L10150 12020" /> 
<path d="M10450 12436 L10130 12116" /> 
<path d="M10770 12116 L10450 12436" /> 
<path d="M10770 12144 L10770 12116" /> 
<path d="M10464 12450 L10770 12144" /> 
<path d="M10784 12770 L10464 12450" /> 
<path d="M10880 12750 L10784 12770" /> 
<path d="M10962 12563 L10880 12750" /> 
<path d="M10966 12358 L10962 12563" /> 
<path d="M10966 13014 L10966 12358" /> 
<path d="M10941 12989 L10966 13014" /> 
<path d="M10850 12951 L10941 12989" /> 
<path d="M10751 12951 L10850 12951" /> 
<path d="M10582 12950 L10751 12951" /> 
<path d="M10732 12892 L10582 12950" /> 
<path d="M10750 12880 L10732 12892" /> 
<path d="M10770 12784 L10750 12880" /> 
<path d="M10450 12464 L10770 12784" /> 
<path d="M10436 12478 L10450 12464" /> 
<path d="M10436 12450 L10436 12478" /> 
<path d="M10116 12130 L10436 12450" /> 
<path d="M10020 12150 L10116 12130" /> 
<path d="M9938 12337 L10020 12150" /> 
<path d="M9934 12542 L9938 12337" /> 
<path d="M10008 12732 L9934 12542" /> 
<path d="M10020 12750 L10008 12732" /> 
<path d="M10116 12770 L10020 12750" /> 
<path d="M10436 12450 L10116 12770" /> 
<path d="M10436 12478 L10436 12450" /> 
<path d="M10130 12784 L10436 12478" /> 
<path d="M10150 12880 L10130 12784" /> 
<path d="M10309 12950 L10150 12880" /> 
<path d="M10049 12951 L10309 12950" /> 
<path d="M9950 12951 L10049 12951" /> 
<path d="M9859 12989 L9950 12951" /> 
<path d="M9789 13059 L9859 12989" /> 
<path d="M9751 13151 L9789 13059" /> 
<path d="M9750 13428 L9751 13151" /> 
<path d="M9812 13490 L9750 13428" /> 
<path d="M10340 13490 L9812 13490" /> 
<path d="M10390 13490 L10340 13490" /> 
<path d="M10410 13490 L10390 13490" /> 
<path d="M10460 13490 L10410 13490" /> 
<path d="M10988 13490 L10460 13490" /> 
<path d="M11050 13428 L10988 13490" /> 
<path d="M11050 13572 L11050 13428" /> 
<path d="M10988 13510 L11050 13572" /> 
<path d="M10410 13510 L10988 13510" /> 
<path d="M10410 13988 L10410 13510" /> 
<path d="M10472 14050 L10410 13988" /> 
<path d="M10751 14049 L10472 14050" /> 
<path d="M10850 14049 L10751 14049" /> 
<path d="M10941 14011 L10850 14049" /> 
<path d="M11011 13941 L10941 14011" /> 
<path d="M11049 13849 L11011 13941" /> 
<path d="M11050 13572 L11049 13849" /> 
<path d="M11050 14356 L11050 13572" /> 
<path d="M10930 14356 L11050 14356" /> 
<path d="M10910 14336 L10930 14356" /> 
<path d="M10839 14306 L10910 14336" /> 
<path d="M10762 14306 L10839 14306" /> 
<path d="M10390 14306 L10762 14306" /> 
<path d="M10390 13988 L10390 14306" /> 
<path d="M10390 13510 L10390 13988" /> 
<path d="M9812 13510 L10390 13510" /> 
<path d="M9750 13572 L9812 13510" /> 
<path d="M9751 13849 L9750 13572" /> 
<path d="M9789 13941 L9751 13849" /> 
<path d="M9859 14011 L9789 13941" /> 
<path d="M9950 14049 L9859 14011" /> 
<path d="M10049 14049 L9950 14049" /> 
<path d="M10328 14050 L10049 14049" /> 
<path d="M10390 13988 L10328 14050" /> 
<path d="M10390 14306 L10390 13988" /> 
<path d="M9962 14306 L10390 14306" /> 
<path d="M9891 14335 L9962 14306" /> 
<path d="M9836 14390 L9891 14335" /> 
<path d="M9806 14461 L9836 14390" /> 
<path d="M9806 14538 L9806 14461" /> 
<path d="M9806 14978 L9806 14538" /> 
<path d="M9628 15156 L9806 14978" /> 
<path d="M9347 15156 L9628 15156" /> 
<path d="M9347 14397 L9347 15156" /> 
<path d="M9347 14253 L9347 14397" /> 
<path d="M9347 12447 L9347 14253" /> 
<path d="M9347 12303 L9347 12447" /> 
<path d="M9346 12188 L9347 12303" /> 
<path d="M9308 12096 L9346 12188" /> 
<path d="M9238 12026 L9308 12096" /> 
<path d="M9147 11988 L9238 12026" /> 
<path d="M9048 11988 L9147 11988" /> 
<path d="M8972 11987 L9048 11988" /> 
<path d="M8910 12049 L8972 11987" /> 
<path d="M8910 12365 L8910 12049" /> 
<path d="M9285 12365 L8910 12365" /> 
<path d="M9347 12303 L9285 12365" /> 
<path d="M9347 12447 L9347 12303" /> 
<path d="M9285 12385 L9347 12447" /> 
<path d="M8910 12385 L9285 12385" /> 
<path d="M8910 12701 L8910 12385" /> 
<path d="M8972 12763 L8910 12701" /> 
<path d="M9048 12762 L8972 12763" /> 
<path d="M9147 12762 L9048 12762" /> 
<path d="M9238 12724 L9147 12762" /> 
<path d="M9308 12654 L9238 12724" /> 
<path d="M9346 12562 L9308 12654" /> 
<path d="M9347 12447 L9346 12562" /> 
<path d="M9347 14253 L9347 12447" /> 
<path d="M9346 14138 L9347 14253" /> 
<path d="M9308 14046 L9346 14138" /> 
<path d="M9238 13976 L9308 14046" /> 
<path d="M9147 13938 L9238 13976" /> 
<path d="M9048 13938 L9147 13938" /> 
<path d="M8972 13937 L9048 13938" /> 
<path d="M8910 13999 L8972 13937" /> 
<path d="M8910 14315 L8910 13999" /> 
<path d="M9285 14315 L8910 14315" /> 
<path d="M9347 14253 L9285 14315" /> 
<path d="M9347 14397 L9347 14253" /> 
<path d="M9285 14335 L9347 14397" /> 
<path d="M8910 14335 L9285 14335" /> 
<path d="M8910 14651 L8910 14335" /> 
<path d="M8972 14713 L8910 14651" /> 
<path d="M9048 14712 L8972 14713" /> 
<path d="M9147 14712 L9048 14712" /> 
<path d="M9238 14674 L9147 14712" /> 
<path d="M9308 14604 L9238 14674" /> 
<path d="M9346 14512 L9308 14604" /> 
<path d="M9347 14397 L9346 14512" /> 
<path d="M9347 15156 L9347 14397" /> 
<path d="M9291 15156 L9347 15156" /> 
<path d="M9291 14899 L9291 15156" /> 
<path d="M9262 14828 L9291 14899" /> 
<path d="M9207 14773 L9262 14828" /> 
<path d="M9136 14743 L9207 14773" /> 
<path d="M9059 14743 L9136 14743" /> 
<path d="M8694 14743 L9059 14743" /> 
<path d="M8694 14712 L8694 14743" /> 
<path d="M8752 14712 L8694 14712" /> 
<path d="M8828 14713 L8752 14712" /> 
<path d="M8890 14651 L8828 14713" /> 
<path d="M8890 14385 L8890 14651" /> 
<path d="M8890 14335 L8890 14385" /> 
<path d="M8890 14315 L8890 14335" /> 
<path d="M8890 14265 L8890 14315" /> 
<path d="M8890 13999 L8890 14265" /> 
<path d="M8828 13937 L8890 13999" /> 
<path d="M8752 13938 L8828 13937" /> 
<path d="M8694 13938 L8752 13938" /> 
<path d="M8694 13457 L8694 13938" /> 
<path d="M8741 13457 L8694 13457" /> 
<path d="M9135 13457 L8741 13457" /> 
<path d="M9206 13428 L9135 13457" /> 
<path d="M9261 13373 L9206 13428" /> 
<path d="M9291 13302 L9261 13373" /> 
<path d="M9291 13225 L9291 13302" /> 
<path d="M9291 12949 L9291 13225" /> 
<path d="M9262 12878 L9291 12949" /> 
<path d="M9207 12823 L9262 12878" /> 
<path d="M9136 12793 L9207 12823" /> 
<path d="M9059 12793 L9136 12793" /> 
<path d="M8694 12793 L9059 12793" /> 
<path d="M8694 12762 L8694 12793" /> 
<path d="M8752 12762 L8694 12762" /> 
<path d="M8828 12763 L8752 12762" /> 
<path d="M8890 12701 L8828 12763" /> 
<path d="M8890 12435 L8890 12701" /> 
<path d="M8890 12385 L8890 12435" /> 
<path d="M8890 12365 L8890 12385" /> 
<path d="M8890 12315 L8890 12365" /> 
<path d="M8890 12049 L8890 12315" /> 
<path d="M8828 11987 L8890 12049" /> 
<path d="M8752 11988 L8828 11987" /> 
<path d="M8694 11988 L8752 11988" /> 
<path d="M8694 11657 L8694 11988" /> 
<path d="M8741 11657 L8694 11657" /> 
<path d="M9135 11657 L8741 11657" /> 
<path d="M9206 11628 L9135 11657" /> 
<path d="M9215 11619 L9206 11628" /> 
<path d="M9425 11619 L9215 11619" /> 
<path d="M9537 11597 L9425 11619" /> 
<path d="M9538 11597 L9537 11597" /> 
<path d="M9633 11533 L9538 11597" /> 
<path d="M9672 11494 L9633 11533" /> 
<path d="M10188 11494 L9672 11494" /> 
<path d="M10259 11465 L10188 11494" /> 
<path d="M10314 11410 L10259 11465" /> 
<path d="M10344 11339 L10314 11410" /> 
<path d="M10344 11262 L10344 11339" /> 
<path d="M10344 10462 L10344 11262" /> 
<path d="M10315 10391 L10344 10462" /> 
<path d="M10260 10336 L10315 10391" /> 
<path d="M10189 10306 L10260 10336" /> 
<path d="M10112 10306 L10189 10306" /> 
<path d="M9512 10306 L10112 10306" /> 
<path d="M9441 10335 L9512 10306" /> 
<path d="M9386 10390 L9441 10335" /> 
<path d="M9356 10461 L9386 10390" /> 
<path d="M9356 10538 L9356 10461" /> 
<path d="M9356 10978 L9356 10538" /> 
<path d="M9347 10987 L9356 10978" /> 
<path d="M9347 8847 L9347 10987" /> 
<path d="M9347 8703 L9347 8847" /> 
<path d="M9347 6897 L9347 8703" /> 
<path d="M9285 6835 L9347 6897" /> 
<path d="M8910 6835 L9285 6835" /> 
<path d="M8910 7151 L8910 6835" /> 
<path d="M8972 7213 L8910 7151" /> 
<path d="M9048 7212 L8972 7213" /> 
<path d="M9147 7212 L9048 7212" /> 
<path d="M9238 7174 L9147 7212" /> 
<path d="M9308 7104 L9238 7174" /> 
<path d="M9346 7012 L9308 7104" /> 
<path d="M9347 6897 L9346 7012" /> 
<path d="M9347 8703 L9347 6897" /> 
<path d="M9346 8588 L9347 8703" /> 
<path d="M9308 8496 L9346 8588" /> 
<path d="M9238 8426 L9308 8496" /> 
<path d="M9147 8388 L9238 8426" /> 
<path d="M9048 8388 L9147 8388" /> 
<path d="M8972 8387 L9048 8388" /> 
<path d="M8910 8449 L8972 8387" /> 
<path d="M8910 8765 L8910 8449" /> 
<path d="M9285 8765 L8910 8765" /> 
<path d="M9347 8703 L9285 8765" /> 
<path d="M9347 8847 L9347 8703" /> 
<path d="M9285 8785 L9347 8847" /> 
<path d="M8910 8785 L9285 8785" /> 
<path d="M8910 9101 L8910 8785" /> 
<path d="M8972 9163 L8910 9101" /> 
<path d="M9048 9162 L8972 9163" /> 
<path d="M9147 9162 L9048 9162" /> 
<path d="M9238 9124 L9147 9162" /> 
<path d="M9308 9054 L9238 9124" /> 
<path d="M9346 8962 L9308 9054" /> 
<path d="M9347 8847 L9346 8962" /> 
<path d="M9347 10987 L9347 8847" /> 
<path d="M9303 11031 L9347 10987" /> 
<path d="M9215 11031 L9303 11031" /> 
<path d="M9207 11023 L9215 11031" /> 
<path d="M9136 10993 L9207 11023" /> 
<path d="M9059 10993 L9136 10993" /> 
<path d="M8665 10993 L9059 10993" /> 
<path d="M8647 11000 L8665 10993" /> 
<path d="M8613 10950 L8647 11000" /> 
<path d="M8647 10899 L8613 10950" /> 
<path d="M8664 10907 L8647 10899" /> 
<path d="M8741 10907 L8664 10907" /> 
<path d="M9135 10907 L8741 10907" /> 
<path d="M9206 10878 L9135 10907" /> 
<path d="M9261 10823 L9206 10878" /> 
<path d="M9291 10752 L9261 10823" /> 
<path d="M9291 10675 L9291 10752" /> 
<path d="M9291 10399 L9291 10675" /> 
<path d="M9262 10328 L9291 10399" /> 
<path d="M9236 10302 L9262 10328" /> 
<path d="M9270 10224 L9236 10302" /> 
<path d="M9270 10077 L9270 10224" /> 
<path d="M9214 9941 L9270 10077" /> 
<path d="M9130 9857 L9214 9941" /> 
<path d="M9135 9857 L9130 9857" /> 
<path d="M9206 9828 L9135 9857" /> 
<path d="M9261 9773 L9206 9828" /> 
<path d="M9291 9702 L9261 9773" /> 
<path d="M9291 9625 L9291 9702" /> 
<path d="M9291 9349 L9291 9625" /> 
<path d="M9262 9278 L9291 9349" /> 
<path d="M9207 9223 L9262 9278" /> 
<path d="M9136 9193 L9207 9223" /> 
<path d="M9059 9193 L9136 9193" /> 
<path d="M8694 9193 L9059 9193" /> 
<path d="M8694 9162 L8694 9193" /> 
<path d="M8752 9162 L8694 9162" /> 
<path d="M8828 9163 L8752 9162" /> 
<path d="M8890 9101 L8828 9163" /> 
<path d="M8890 8835 L8890 9101" /> 
<path d="M8890 8785 L8890 8835" /> 
<path d="M8890 8765 L8890 8785" /> 
<path d="M8890 8715 L8890 8765" /> 
<path d="M8890 8449 L8890 8715" /> 
<path d="M8828 8387 L8890 8449" /> 
<path d="M8752 8388 L8828 8387" /> 
<path d="M8694 8388 L8752 8388" /> 
<path d="M8694 8222 L8694 8388" /> 
<path d="M9009 7907 L8694 8222" /> 
<path d="M9135 7907 L9009 7907" /> 
<path d="M9206 7878 L9135 7907" /> 
<path d="M9261 7823 L9206 7878" /> 
<path d="M9291 7752 L9261 7823" /> 
<path d="M9291 7675 L9291 7752" /> 
<path d="M9291 7399 L9291 7675" /> 
<path d="M9262 7328 L9291 7399" /> 
<path d="M9207 7273 L9262 7328" /> 
<path d="M9136 7243 L9207 7273" /> 
<path d="M9059 7243 L9136 7243" /> 
<path d="M8890 7243 L9059 7243" /> 
<path d="M8890 7151 L8890 7243" /> 
<path d="M8890 6835 L8890 7151" /> 
<path d="M8515 6835 L8890 6835" /> 
<path d="M8453 6897 L8515 6835" /> 
<path d="M8454 7012 L8453 6897" /> 
<path d="M8492 7104 L8454 7012" /> 
<path d="M8562 7174 L8492 7104" /> 
<path d="M8653 7212 L8562 7174" /> 
<path d="M8752 7212 L8653 7212" /> 
<path d="M8828 7213 L8752 7212" /> 
<path d="M8890 7151 L8828 7213" /> 
<path d="M8890 7243 L8890 7151" /> 
<path d="M8665 7243 L8890 7243" /> 
<path d="M8594 7272 L8665 7243" /> 
<path d="M8539 7327 L8594 7272" /> 
<path d="M8509 7398 L8539 7327" /> 
<path d="M8509 7475 L8509 7398" /> 
<path d="M8509 7575 L8509 7475" /> 
<path d="M8192 7892 L8509 7575" /> 
<path d="M8128 7987 L8192 7892" /> 
<path d="M8106 8100 L8128 7987" /> 
<path d="M8106 8818 L8106 8100" /> 
<path d="M8059 8818 L8106 8818" /> 
<path d="M7665 8818 L8059 8818" /> 
<path d="M7594 8847 L7665 8818" /> 
<path d="M7581 8859 L7594 8847" /> 
<path d="M7487 8878 L7581 8859" /> 
<path d="M7392 8942 L7487 8878" /> 
<path d="M7389 8945 L7392 8942" /> 
<path d="M7084 9249 L7389 8945" /> 
<path d="M6964 9199 L7084 9249" /> 
<path d="M7097 9145 L6964 9199" /> 
<path d="M7245 8998 L7097 9145" /> 
<path d="M7325 8805 L7245 8998" /> 
<path d="M7325 8596 L7325 8805" /> 
<path d="M7245 8403 L7325 8596" /> 
<path d="M7098 8255 L7245 8403" /> 
<path d="M6905 8175 L7098 8255" /> 
<path d="M6696 8175 L6905 8175" /> 
<path d="M6503 8255 L6696 8175" /> 
<path d="M6355 8402 L6503 8255" /> 
<path d="M6353 8406 L6355 8402" /> 
<path d="M6321 8406 L6353 8406" /> 
<path d="M6094 8178 L6321 8406" /> 
<path d="M6094 6721 L6094 8178" /> 
<path d="M6321 6494 L6094 6721" /> 
<path d="M6353 6494 L6321 6494" /> 
<path d="M6355 6497 L6353 6494" /> 
<path d="M6502 6645 L6355 6497" /> 
<path d="M6635 6700 L6502 6645" /> 
<path d="M6503 6755 L6635 6700" /> 
<path d="M6355 6902 L6503 6755" /> 
<path d="M6275 7095 L6355 6902" /> 
<path d="M6275 7304 L6275 7095" /> 
<path d="M6355 7497 L6275 7304" /> 
<path d="M6502 7645 L6355 7497" /> 
<path d="M6695 7725 L6502 7645" /> 
<path d="M6904 7725 L6695 7725" /> 
<path d="M7097 7645 L6904 7725" /> 
<path d="M7245 7498 L7097 7645" /> 
<path d="M7246 7494 L7245 7498" /> 
<path d="M7585 7494 L7246 7494" /> 
<path d="M7593 7502 L7585 7494" /> 
<path d="M7664 7532 L7593 7502" /> 
<path d="M7741 7532 L7664 7532" /> 
<path d="M8135 7532 L7741 7532" /> 
<path d="M8206 7503 L8135 7532" /> 
<path d="M8261 7448 L8206 7503" /> 
<path d="M8291 7377 L8261 7448" /> 
<path d="M8291 7300 L8291 7377" /> 
<path d="M8291 7024 L8291 7300" /> 
<path d="M8262 6953 L8291 7024" /> 
<path d="M8207 6898 L8262 6953" /> 
<path d="M8136 6868 L8207 6898" /> 
<path d="M8059 6868 L8136 6868" /> 
<path d="M7665 6868 L8059 6868" /> 
<path d="M7594 6897 L7665 6868" /> 
<path d="M7585 6906 L7594 6897" /> 
<path d="M7246 6906 L7585 6906" /> 
<path d="M7245 6903 L7246 6906" /> 
<path d="M7098 6755 L7245 6903" /> 
<path d="M6964 6699 L7098 6755" /> 
<path d="M7097 6645 L6964 6699" /> 
<path d="M7245 6498 L7097 6645" /> 
<path d="M7246 6494 L7245 6498" /> 
<path d="M8544 6494 L7246 6494" /> 
<path d="M8492 6546 L8544 6494" /> 
<path d="M8454 6638 L8492 6546" /> 
<path d="M8453 6753 L8454 6638" /> 
<path d="M8515 6815 L8453 6753" /> 
<path d="M8840 6815 L8515 6815" /> 
<path d="M8890 6815 L8840 6815" /> 
<path d="M8910 6815 L8890 6815" /> 
<path d="M8960 6815 L8910 6815" /> 
<path d="M9285 6815 L8960 6815" /> 
<path d="M9347 6753 L9285 6815" /> 
<path d="M9346 6638 L9347 6753" /> 
<path d="M9308 6546 L9346 6638" /> 
<path d="M9256 6494 L9308 6546" /> 
<path d="M9559 6494 L9256 6494" /> 
<path d="M9531 6561 L9559 6494" /> 
<path d="M9531 6638 L9531 6561" /> 
<path d="M9531 6838 L9531 6638" /> 
<path d="M9560 6909 L9531 6838" /> 
<path d="M9601 6950 L9560 6909" /> 
<path d="M9561 6990 L9601 6950" /> 
<path d="M9531 7061 L9561 6990" /> 
<path d="M9531 7138 L9531 7061" /> 
<path d="M9531 7338 L9531 7138" /> 
<path d="M9560 7409 L9531 7338" /> 
<path d="M9601 7450 L9560 7409" /> 
<path d="M9561 7490 L9601 7450" /> 
<path d="M9531 7561 L9561 7490" /> 
<path d="M9531 7638 L9531 7561" /> 
<path d="M9531 7838 L9531 7638" /> 
<path d="M9560 7909 L9531 7838" /> 
<path d="M9615 7964 L9560 7909" /> 
<path d="M9686 7994 L9615 7964" /> 
<path d="M9763 7994 L9686 7994" /> 
<path d="M9950 7994 L9763 7994" /> 
<path d="M10213 7994 L9950 7994" /> 
<path d="M10528 7994 L10213 7994" /> 
<path d="M10856 8322 L10528 7994" /> 
<path d="M10856 9050 L10856 8322" /> 
<path d="M10856 9145 L10856 9050" /> 
<path d="M10784 9130 L10856 9145" /> 
<path d="M10770 9144 L10784 9130" /> 
<path d="M10770 9116 L10770 9144" /> 
<path d="M10750 9020 L10770 9116" /> 
<path d="M10563 8938 L10750 9020" /> 
<path d="M10358 8934 L10563 8938" /> 
<path d="M10168 9008 L10358 8934" /> 
<path d="M10150 9020 L10168 9008" /> 
<path d="M10130 9116 L10150 9020" /> 
<path d="M10450 9436 L10130 9116" /> 
<path d="M10770 9116 L10450 9436" /> 
<path d="M10770 9144 L10770 9116" /> 
<path d="M10499 9415 L10770 9144" /> 
<path d="M10464 9450 L10499 9415" /> 
<path d="M10450 9464 L10464 9450" /> 
<path d="M10436 9478 L10450 9464" /> 
<path d="M10436 9450 L10436 9478" /> 
<path d="M10116 9130 L10436 9450" /> 
<path d="M10020 9150 L10116 9130" /> 
<path d="M9938 9337 L10020 9150" /> 
<path d="M9934 9542 L9938 9337" /> 
<path d="M10008 9732 L9934 9542" /> 
<path d="M10020 9750 L10008 9732" /> 
<path d="M10116 9770 L10020 9750" /> 
<path d="M10436 9450 L10116 9770" /> 
<path d="M10436 9478 L10436 9450" /> 
<path d="M10415 9499 L10436 9478" /> 
<path d="M10130 9784 L10415 9499" /> 
<path d="M10150 9880 L10130 9784" /> 
<path d="M10337 9962 L10150 9880" /> 
<path d="M10542 9966 L10337 9962" /> 
<path d="M10732 9892 L10542 9966" /> 
<path d="M10750 9880 L10732 9892" /> 
<path d="M10757 9842 L10750 9880" /> 
<path d="M10759 9843 L10757 9842" /> 
<path d="M10759 9898 L10759 9843" /> 
<path d="M10759 9899 L10759 9898" /> 
<path d="M10759 9901 L10759 9899" /> 
<path d="M10759 9978 L10759 9901" /> 
<path d="M10759 10292 L10759 9978" /> 
<path d="M10771 10322 L10759 10292" /> 
<path d="M10741 10335 L10771 10322" /> 
<path d="M10686 10390 L10741 10335" /> 
<path d="M10656 10461 L10686 10390" /> 
<path d="M10656 10538 L10656 10461" /> 
<path d="M10656 11338 L10656 10538" /> 
<path d="M10685 11409 L10656 11338" /> 
<path d="M10740 11464 L10685 11409" /> 
<path d="M10811 11494 L10740 11464" /> 
<path d="M10888 11494 L10811 11494" /> 
<path d="M11488 11494 L10888 11494" /> 
<path d="M11559 11465 L11488 11494" /> 
<path d="M11614 11410 L11559 11465" /> 
<path d="M11644 11339 L11614 11410" /> 
<path d="M11644 11262 L11644 11339" /> 
<path d="M11644 11009 L11644 11262" /> 
<path d="M11792 11157 L11644 11009" /> 
<path d="M11887 11222 L11792 11157" /> 
<path d="M11972 11238 L11887 11222" /> 
<path d="M11935 11325 L11972 11238" /> 
<path d="M11930 11550 L11935 11325" /> 
<path d="M12012 11761 L11930 11550" /> 
<path d="M12026 11782 L12012 11761" /> 
<path d="M12127 11809 L12026 11782" /> 
<path d="M12451 11485 L12127 11809" /> 
<path d="M12486 11450 L12451 11485" /> 
<path d="M12500 11436 L12486 11450" /> 
<path d="M12514 11450 L12500 11436" /> 
<path d="M12549 11485 L12514 11450" /> 
<path d="M12873 11809 L12549 11485" /> 
<path d="M12974 11782 L12873 11809" /> 
<path d="M13065 11575 L12974 11782" /> 
<path d="M13070 11350 L13065 11575" /> 
<path d="M13013 11204 L13070 11350" /> 
<path d="M13088 11204 L13013 11204" /> 
<path d="M13542 11658 L13088 11204" /> 
<path d="M13637 11722 L13542 11658" /> 
<path d="M13750 11744 L13637 11722" /> 
<path d="M14545 11744 L13750 11744" /> 
<path d="M14670 11869 L14545 11744" /> 
<path d="M14851 11944 L14670 11869" /> 
<path d="M15048 11944 L14851 11944" /> 
<path d="M15230 11869 L15048 11944" /> 
<path d="M15356 11743 L15230 11869" /> 
<path d="M15356 12157 L15356 11743" /> 
<path d="M15230 12031 L15356 12157" /> 
<path d="M15049 11956 L15230 12031" /> 
<path d="M14852 11956 L15049 11956" /> 
<path d="M14670 12031 L14852 11956" /> 
<path d="M14545 12156 L14670 12031" /> 
<path d="M13529 12156 L14545 12156" /> 
<path d="M13510 12137 L13529 12156" /> 
<path d="M13374 12080 L13510 12137" /> 
<path d="M13227 12080 L13374 12080" /> 
<path d="M13091 12136 L13227 12080" /> 
<path d="M13071 12156 L13091 12136" /> 
<path d="M12821 12156 L13071 12156" /> 
<path d="M12717 12052 L12821 12156" /> 
<path d="M12620 12011 L12717 12052" /> 
<path d="M12811 11938 L12620 12011" /> 
<path d="M12832 11924 L12811 11938" /> 
<path d="M12859 11823 L12832 11924" /> 
<path d="M12500 11464 L12859 11823" /> 
<path d="M12141 11823 L12500 11464" /> 
<path d="M12168 11924 L12141 11823" /> 
<path d="M12325 11993 L12168 11924" /> 
<path d="M12184 12051 L12325 11993" /> 
<path d="M12052 12183 L12184 12051" /> 
<path d="M11980 12356 L12052 12183" /> 
<path d="M11980 12543 L11980 12356" /> 
<path d="M12051 12716 L11980 12543" /> 
<path d="M12183 12848 L12051 12716" /> 
<path d="M12356 12920 L12183 12848" /> 
<path d="M12543 12920 L12356 12920" /> 
<path d="M12716 12849 L12543 12920" /> 
<path d="M12821 12744 L12716 12849" /> 
<path d="M13071 12744 L12821 12744" /> 
<path d="M13090 12763 L13071 12744" /> 
<path d="M13226 12820 L13090 12763" /> 
<path d="M13373 12820 L13226 12820" /> 
<path d="M13509 12764 L13373 12820" /> 
<path d="M13529 12744 L13509 12764" /> 
<path d="M14545 12744 L13529 12744" /> 
<path d="M14670 12869 L14545 12744" /> 
<path d="M14808 12926 L14670 12869" /> 
<path d="M14654 12987 L14808 12926" /> 
<path d="M14635 13000 L14654 12987" /> 
<path d="M14613 13099 L14635 13000" /> 
<path d="M14950 13436 L14613 13099" /> 
<path d="M15287 13099 L14950 13436" /> 
<path d="M15265 13000 L15287 13099" /> 
<path d="M15094 12924 L15265 13000" /> 
<path d="M15230 12869 L15094 12924" /> 
<path d="M15356 12743 L15230 12869" /> 
<path d="M15356 13125 L15356 12743" /> 
</g>
<g style="fill:#000000; fill-opacity:1.00; stroke:#000000; stroke-opacity:1.00; stroke-linecap:round; stroke-linejoin:round; stroke-width:0" 
   transform="translate(0.00 0.00) scale(1.00 1.00)">
<polygon style="fill-rule:evenodd; " 
points="14950,13464
14936,13478
14936,13450
14599,13113
14500,13135
14413,13332
14409,13547
14487,13746
14500,13765
14599,13787
14936,13450
14936,13478
14915,13499
14613,13801
14635,13900
14832,13987
15047,13991
15246,13913
15265,13900
15274,13859
15287,13871
15299,13884
15287,13897
14953,14231
13080,14231
13035,14186
13020,14179
13066,14161
13136,14091
13174,13999
13175,13847
13175,13703
13174,13551
13136,13459
13066,13389
12975,13351
12876,13351
12722,13350
12660,13412
12660,13765
13113,13765
13175,13703
13175,13847
13113,13785
12710,13785
12660,13785
12640,13785
12640,13765
12640,13715
12640,13412
12578,13350
12424,13351
12325,13351
12234,13389
12164,13459
12133,13533
12063,13354
12050,13335
11951,13313
11937,13327
11937,13299
11915,13200
11718,13113
11503,13109
11304,13187
11285,13200
11263,13299
11600,13636
11937,13299
11937,13327
11614,13650
11951,13987
12050,13965
12125,13795
12125,13835
12137,13835
12125,13847
12126,13999
12164,14091
12234,14161
12278,14179
12266,14185
12220,14231
12055,14231
12010,14186
11939,14156
11862,14156
11786,14156
11896,14113
11915,14100
11937,14001
11600,13664
11586,13678
11586,13650
11249,13313
11150,13335
11063,13532
11059,13747
11137,13946
11150,13965
11249,13987
11586,13650
11586,13678
11263,14001
11285,14100
11411,14156
11262,14156
11191,14185
11136,14240
11106,14311
11106,14356
11050,14356
11050,13572
11050,13428
11049,13151
11011,13059
10966,13014
10966,12358
10892,12168
10880,12150
10784,12130
10770,12144
10770,12116
10750,12020
10563,11938
10358,11934
10168,12008
10150,12020
10130,12116
10450,12436
10770,12116
10770,12144
10464,12450
10784,12770
10880,12750
10962,12563
10966,12358
10966,13014
10941,12989
10850,12951
10751,12951
10582,12950
10732,12892
10750,12880
10770,12784
10450,12464
10436,12478
10436,12450
10116,12130
10020,12150
9938,12337
9934,12542
10008,12732
10020,12750
10116,12770
10436,12450
10436,12478
10130,12784
10150,12880
10309,12950
10049,12951
9950,12951
9859,12989
9789,13059
9751,13151
9750,13428
9812,13490
10340,13490
10390,13490
10410,13490
10460,13490
10988,13490
11050,13428
11050,13572
10988,13510
10410,13510
10410,13988
10472,14050
10751,14049
10850,14049
10941,14011
11011,13941
11049,13849
11050,13572
11050,14356
10930,14356
10910,14336
10839,14306
10762,14306
10390,14306
10390,13988
10390,13510
9812,13510
9750,13572
9751,13849
9789,13941
9859,14011
9950,14049
10049,14049
10328,14050
10390,13988
10390,14306
9962,14306
9891,14335
9836,14390
9806,14461
9806,14538
9806,14978
9628,15156
9347,15156
9347,14397
9347,14253
9347,12447
9347,12303
9346,12188
9308,12096
9238,12026
9147,11988
9048,11988
8972,11987
8910,12049
8910,12365
9285,12365
9347,12303
9347,12447
9285,12385
8910,12385
8910,12701
8972,12763
9048,12762
9147,12762
9238,12724
9308,12654
9346,12562
9347,12447
9347,14253
9346,14138
9308,14046
9238,13976
9147,13938
9048,13938
8972,13937
8910,13999
8910,14315
9285,14315
9347,14253
9347,14397
9285,14335
8910,14335
8910,14651
8972,14713
9048,14712
9147,14712
9238,14674
9308,14604
9346,14512
9347,14397
9347,15156
9291,15156
9291,14899
9262,14828
9207,14773
9136,14743
9059,14743
8694,14743
8694,14712
8752,14712
8828,14713
8890,14651
8890,14385
8890,14335
8890,14315
8890,14265
8890,13999
8828,13937
8752,13938
8694,13938
8694,13457
8741,13457
9135,13457
9206,13428
9261,13373
9291,13302
9291,13225
9291,12949
9262,12878
9207,12823
9136,12793
9059,12793
8694,12793
8694,12762
8752,12762
8828,12763
8890,12701
8890,12435
8890,12385
8890,12365
8890,12315
8890,12049
8828,11987
8752,11988
8694,11988
8694,11657
8741,11657
9135,11657
9206,11628
9215,11619
9425,11619
9537,11597
9538,11597
9633,11533
9672,11494
10188,11494
10259,11465
10314,11410
10344,11339
10344,11262
10344,10462
10315,10391
10260,10336
10189,10306
10112,10306
9512,10306
9441,10335
9386,10390
9356,10461
9356,10538
9356,10978
9347,10987
9347,8847
9347,8703
9347,6897
9285,6835
8910,6835
8910,7151
8972,7213
9048,7212
9147,7212
9238,7174
9308,7104
9346,7012
9347,6897
9347,8703
9346,8588
9308,8496
9238,8426
9147,8388
9048,8388
8972,8387
8910,8449
8910,8765
9285,8765
9347,8703
9347,8847
9285,8785
8910,8785
8910,9101
8972,9163
9048,9162
9147,9162
9238,9124
9308,9054
9346,8962
9347,8847
9347,10987
9303,11031
9215,11031
9207,11023
9136,10993
9059,10993
8665,10993
8647,11000
8613,10950
8647,10899
8664,10907
8741,10907
9135,10907
9206,10878
9261,10823
9291,10752
9291,10675
9291,10399
9262,10328
9236,10302
9270,10224
9270,10077
9214,9941
9130,9857
9135,9857
9206,9828
9261,9773
9291,9702
9291,9625
9291,9349
9262,9278
9207,9223
9136,9193
9059,9193
8694,9193
8694,9162
8752,9162
8828,9163
8890,9101
8890,8835
8890,8785
8890,8765
8890,8715
8890,8449
8828,8387
8752,8388
8694,8388
8694,8222
9009,7907
9135,7907
9206,7878
9261,7823
9291,7752
9291,7675
9291,7399
9262,7328
9207,7273
9136,7243
9059,7243
8890,7243
8890,7151
8890,6835
8515,6835
8453,6897
8454,7012
8492,7104
8562,7174
8653,7212
8752,7212
8828,7213
8890,7151
8890,7243
8665,7243
8594,7272
8539,7327
8509,7398
8509,7475
8509,7575
8192,7892
8128,7987
8106,8100
8106,8818
8059,8818
7665,8818
7594,8847
7581,8859
7487,8878
7392,8942
7389,8945
7084,9249
6964,9199
7097,9145
7245,8998
7325,8805
7325,8596
7245,8403
7098,8255
6905,8175
6696,8175
6503,8255
6355,8402
6353,8406
6321,8406
6094,8178
6094,6721
6321,6494
6353,6494
6355,6497
6502,6645
6635,6700
6503,6755
6355,6902
6275,7095
6275,7304
6355,7497
6502,7645
6695,7725
6904,7725
7097,7645
7245,7498
7246,7494
7585,7494
7593,7502
7664,7532
7741,7532
8135,7532
8206,7503
8261,7448
8291,7377
8291,7300
8291,7024
8262,6953
8207,6898
8136,6868
8059,6868
7665,6868
7594,6897
7585,6906
7246,6906
7245,6903
7098,6755
6964,6699
7097,6645
7245,6498
7246,6494
8544,6494
8492,6546
8454,6638
8453,6753
8515,6815
8840,6815
8890,6815
8910,6815
8960,6815
9285,6815
9347,6753
9346,6638
9308,6546
9256,6494
9559,6494
9531,6561
9531,6638
9531,6838
9560,6909
9601,6950
9561,6990
9531,7061
9531,7138
9531,7338
9560,7409
9601,7450
9561,7490
9531,7561
9531,7638
9531,7838
9560,7909
9615,7964
9686,7994
9763,7994
9950,7994
10213,7994
10528,7994
10856,8322
10856,9050
10856,9145
10784,9130
10770,9144
10770,9116
10750,9020
10563,8938
10358,8934
10168,9008
10150,9020
10130,9116
10450,9436
10770,9116
10770,9144
10499,9415
10464,9450
10450,9464
10436,9478
10436,9450
10116,9130
10020,9150
9938,9337
9934,9542
10008,9732
10020,9750
10116,9770
10436,9450
10436,9478
10415,9499
10130,9784
10150,9880
10337,9962
10542,9966
10732,9892
10750,9880
10757,9842
10759,9843
10759,9898
10759,9899
10759,9901
10759,9978
10759,10292
10771,10322
10741,10335
10686,10390
10656,10461
10656,10538
10656,11338
10685,11409
10740,11464
10811,11494
10888,11494
11488,11494
11559,11465
11614,11410
11644,11339
11644,11262
11644,11009
11792,11157
11887,11222
11972,11238
11935,11325
11930,11550
12012,11761
12026,11782
12127,11809
12451,11485
12486,11450
12500,11436
12514,11450
12549,11485
12873,11809
12974,11782
13065,11575
13070,11350
13013,11204
13088,11204
13542,11658
13637,11722
13750,11744
14545,11744
14670,11869
14851,11944
15048,11944
15230,11869
15356,11743
15356,12157
15230,12031
15049,11956
14852,11956
14670,12031
14545,12156
13529,12156
13510,12137
13374,12080
13227,12080
13091,12136
13071,12156
12821,12156
12717,12052
12620,12011
12811,11938
12832,11924
12859,11823
12500,11464
12141,11823
12168,11924
12325,11993
12184,12051
12052,12183
11980,12356
11980,12543
12051,12716
12183,12848
12356,12920
12543,12920
12716,12849
12821,12744
13071,12744
13090,12763
13226,12820
13373,12820
13509,12764
13529,12744
14545,12744
14670,12869
14808,12926
14654,12987
14635,13000
14613,13099
14950,13436
15287,13099
15265,13000
15094,12924
15230,12869
15356,12743
15356,13125
15356,13125
15301,13113
14999,13415
14964,13450
" /> 
</g>
<g style="fill:#000000; fill-opacity:1.00; stroke:#000000; stroke-opacity:1.00; stroke-linecap:round; stroke-linejoin:round; stroke-width:100" 
   transform="translate(0.00 0.00) scale(1.00 1.00)">
<path d="M15456 9978 L15456 9978" /> 
<path d="M15316 10117 L15456 9978" /> 
<path d="M15230 10031 L15316 10117" /> 
<path d="M15049 9956 L15230 10031" /> 
<path d="M14852 9956 L15049 9956" /> 
<path d="M14670 10031 L14852 9956" /> 
<path d="M14545 10156 L14670 10031" /> 
<path d="M14394 10156 L14545 10156" /> 
<path d="M14394 10087 L14394 10156" /> 
<path d="M14365 10016 L14394 10087" /> 
<path d="M14310 9961 L14365 10016" /> 
<path d="M14239 9931 L14310 9961" /> 
<path d="M14162 9931 L14239 9931" /> 
<path d="M13944 9931 L14162 9931" /> 
<path d="M13944 9771 L13944 9931" /> 
<path d="M13971 9744 L13944 9771" /> 
<path d="M14545 9744 L13971 9744" /> 
<path d="M14670 9869 L14545 9744" /> 
<path d="M14851 9944 L14670 9869" /> 
<path d="M15048 9944 L14851 9944" /> 
<path d="M15230 9869 L15048 9944" /> 
<path d="M15369 9730 L15230 9869" /> 
<path d="M15444 9549 L15369 9730" /> 
<path d="M15444 9352 L15444 9549" /> 
<path d="M15369 9170 L15444 9352" /> 
<path d="M15230 9031 L15369 9170" /> 
<path d="M15049 8956 L15230 9031" /> 
<path d="M14852 8956 L15049 8956" /> 
<path d="M14670 9031 L14852 8956" /> 
<path d="M14545 9156 L14670 9031" /> 
<path d="M13850 9156 L14545 9156" /> 
<path d="M13849 9156 L13850 9156" /> 
<path d="M13737 9178 L13849 9156" /> 
<path d="M13642 9242 L13737 9178" /> 
<path d="M13639 9245 L13642 9242" /> 
<path d="M13622 9262 L13639 9245" /> 
<path d="M13614 9241 L13622 9262" /> 
<path d="M13510 9137 L13614 9241" /> 
<path d="M13374 9080 L13510 9137" /> 
<path d="M13227 9080 L13374 9080" /> 
<path d="M13091 9136 L13227 9080" /> 
<path d="M13071 9156 L13091 9136" /> 
<path d="M12821 9156 L13071 9156" /> 
<path d="M12717 9052 L12821 9156" /> 
<path d="M12544 8980 L12717 9052" /> 
<path d="M12465 8980 L12544 8980" /> 
<path d="M12465 8913 L12465 8980" /> 
<path d="M12465 8460 L12465 8913" /> 
<path d="M12112 8460 L12465 8460" /> 
<path d="M12050 8522 L12112 8460" /> 
<path d="M12051 8676 L12050 8522" /> 
<path d="M12051 8775 L12051 8676" /> 
<path d="M12089 8866 L12051 8775" /> 
<path d="M12159 8936 L12089 8866" /> 
<path d="M12251 8974 L12159 8936" /> 
<path d="M12403 8975 L12251 8974" /> 
<path d="M12465 8913 L12403 8975" /> 
<path d="M12465 8980 L12465 8913" /> 
<path d="M12357 8980 L12465 8980" /> 
<path d="M12184 9051 L12357 8980" /> 
<path d="M12125 9109 L12184 9051" /> 
<path d="M11894 8878 L12125 9109" /> 
<path d="M11894 6721 L11894 8878" /> 
<path d="M12031 6584 L11894 6721" /> 
<path d="M12031 6638 L12031 6584" /> 
<path d="M12031 6838 L12031 6638" /> 
<path d="M12060 6909 L12031 6838" /> 
<path d="M12101 6950 L12060 6909" /> 
<path d="M12061 6990 L12101 6950" /> 
<path d="M12031 7061 L12061 6990" /> 
<path d="M12031 7138 L12031 7061" /> 
<path d="M12031 7338 L12031 7138" /> 
<path d="M12060 7409 L12031 7338" /> 
<path d="M12062 7411 L12060 7409" /> 
<path d="M12014 7459 L12062 7411" /> 
<path d="M11976 7551 L12014 7459" /> 
<path d="M11975 7628 L11976 7551" /> 
<path d="M12037 7690 L11975 7628" /> 
<path d="M12390 7690 L12037 7690" /> 
<path d="M12440 7690 L12390 7690" /> 
<path d="M12460 7690 L12440 7690" /> 
<path d="M12460 7710 L12460 7690" /> 
<path d="M12440 7710 L12460 7710" /> 
<path d="M12390 7710 L12440 7710" /> 
<path d="M12037 7710 L12390 7710" /> 
<path d="M11975 7772 L12037 7710" /> 
<path d="M11976 7849 L11975 7772" /> 
<path d="M12014 7941 L11976 7849" /> 
<path d="M12084 8011 L12014 7941" /> 
<path d="M12103 8019 L12084 8011" /> 
<path d="M12089 8034 L12103 8019" /> 
<path d="M12051 8125 L12089 8034" /> 
<path d="M12051 8224 L12051 8125" /> 
<path d="M12050 8378 L12051 8224" /> 
<path d="M12112 8440 L12050 8378" /> 
<path d="M12415 8440 L12112 8440" /> 
<path d="M12465 8440 L12415 8440" /> 
<path d="M12485 8440 L12465 8440" /> 
<path d="M12485 8460 L12485 8440" /> 
<path d="M12485 8510 L12485 8460" /> 
<path d="M12485 8913 L12485 8510" /> 
<path d="M12547 8975 L12485 8913" /> 
<path d="M12699 8974 L12547 8975" /> 
<path d="M12791 8936 L12699 8974" /> 
<path d="M12861 8866 L12791 8936" /> 
<path d="M12879 8821 L12861 8866" /> 
<path d="M12885 8834 L12879 8821" /> 
<path d="M12940 8889 L12885 8834" /> 
<path d="M13011 8919 L12940 8889" /> 
<path d="M13088 8919 L13011 8919" /> 
<path d="M13438 8919 L13088 8919" /> 
<path d="M13509 8890 L13438 8919" /> 
<path d="M13564 8835 L13509 8890" /> 
<path d="M13568 8824 L13564 8835" /> 
<path d="M13607 8841 L13568 8824" /> 
<path d="M13684 8841 L13607 8841" /> 
<path d="M13998 8841 L13684 8841" /> 
<path d="M13999 8840 L13998 8841" /> 
<path d="M14001 8841 L13999 8840" /> 
<path d="M14078 8841 L14001 8841" /> 
<path d="M14392 8841 L14078 8841" /> 
<path d="M14463 8812 L14392 8841" /> 
<path d="M14464 8810 L14463 8812" /> 
<path d="M14485 8859 L14464 8810" /> 
<path d="M14540 8914 L14485 8859" /> 
<path d="M14611 8944 L14540 8914" /> 
<path d="M14688 8944 L14611 8944" /> 
<path d="M15288 8944 L14688 8944" /> 
<path d="M15359 8915 L15288 8944" /> 
<path d="M15414 8860 L15359 8915" /> 
<path d="M15444 8789 L15414 8860" /> 
<path d="M15444 8712 L15444 8789" /> 
<path d="M15444 8112 L15444 8712" /> 
<path d="M15415 8041 L15444 8112" /> 
<path d="M15360 7986 L15415 8041" /> 
<path d="M15289 7956 L15360 7986" /> 
<path d="M15244 7956 L15289 7956" /> 
<path d="M15244 6200 L15244 7956" /> 
<path d="M15243 6199 L15244 6200" /> 
<path d="M15222 6087 L15243 6199" /> 
<path d="M15158 5992 L15222 6087" /> 
<path d="M15157 5991 L15158 5992" /> 
<path d="M15010 5844 L15157 5991" /> 
<path d="M15128 5844 L15010 5844" /> 
<path d="M15456 6172 L15128 5844" /> 
<path d="M15456 9978 L15456 6172" /> 
</g>
<g style="fill:#000000; fill-opacity:1.00; stroke:#000000; stroke-opacity:1.00; stroke-linecap:round; stroke-linejoin:round; stroke-width:0" 
   transform="translate(0.00 0.00) scale(1.00 1.00)">
<polygon style="fill-rule:evenodd; " 
points="14852,9956
14670,10031
14545,10156
14394,10156
14394,10087
14365,10016
14310,9961
14239,9931
14162,9931
13944,9931
13944,9771
13971,9744
14545,9744
14670,9869
14851,9944
15048,9944
15230,9869
15369,9730
15444,9549
15444,9352
15369,9170
15230,9031
15049,8956
14852,8956
14670,9031
14545,9156
13850,9156
13849,9156
13737,9178
13642,9242
13639,9245
13622,9262
13614,9241
13510,9137
13374,9080
13227,9080
13091,9136
13071,9156
12821,9156
12717,9052
12544,8980
12465,8980
12465,8913
12465,8460
12112,8460
12050,8522
12051,8676
12051,8775
12089,8866
12159,8936
12251,8974
12403,8975
12465,8913
12465,8980
12357,8980
12184,9051
12125,9109
11894,8878
11894,6721
12031,6584
12031,6638
12031,6838
12060,6909
12101,6950
12061,6990
12031,7061
12031,7138
12031,7338
12060,7409
12062,7411
12014,7459
11976,7551
11975,7628
12037,7690
12390,7690
12440,7690
12460,7690
12460,7710
12440,7710
12390,7710
12037,7710
11975,7772
11976,7849
12014,7941
12084,8011
12103,8019
12089,8034
12051,8125
12051,8224
12050,8378
12112,8440
12415,8440
12465,8440
12485,8440
12485,8460
12485,8510
12485,8913
12547,8975
12699,8974
12791,8936
12861,8866
12879,8821
12885,8834
12940,8889
13011,8919
13088,8919
13438,8919
13509,8890
13564,8835
13568,8824
13607,8841
13684,8841
13998,8841
13999,8840
14001,8841
14078,8841
14392,8841
14463,8812
14464,8810
14485,8859
14540,8914
14611,8944
14688,8944
15288,8944
15359,8915
15414,8860
15444,8789
15444,8712
15444,8112
15415,8041
15360,7986
15289,7956
15244,7956
15244,6200
15243,6199
15222,6087
15158,5992
15157,5991
15010,5844
15128,5844
15456,6172
15456,9978
15456,9978
15316,10117
15230,10031
15049,9956
" /> 
</g>
<g style="fill:#000000; fill-opacity:1.00; stroke:#000000; stroke-opacity:1.00; stroke-linecap:round; stroke-linejoin:round; stroke-width:100" 
   transform="translate(0.00 0.00) scale(1.00 1.00)">
<path d="M16147 15754 L16147 15754" /> 
<path d="M5270 15754 L16147 15754" /> 
<path d="M5270 5270 L5270 15754" /> 
<path d="M11628 5270 L5270 5270" /> 
<path d="M11587 5278 L11628 5270" /> 
<path d="M11492 5342 L11587 5278" /> 
<path d="M10428 6406 L11492 5342" /> 
<path d="M10340 6406 L10428 6406" /> 
<path d="M10369 6339 L10340 6406" /> 
<path d="M10369 6262 L10369 6339" /> 
<path d="M10369 6062 L10369 6262" /> 
<path d="M10340 5991 L10369 6062" /> 
<path d="M10285 5936 L10340 5991" /> 
<path d="M10214 5906 L10285 5936" /> 
<path d="M10137 5906 L10214 5906" /> 
<path d="M9950 5906 L10137 5906" /> 
<path d="M9687 5906 L9950 5906" /> 
<path d="M7246 5906 L9687 5906" /> 
<path d="M7245 5903 L7246 5906" /> 
<path d="M7098 5755 L7245 5903" /> 
<path d="M6905 5675 L7098 5755" /> 
<path d="M6696 5675 L6905 5675" /> 
<path d="M6503 5755 L6696 5675" /> 
<path d="M6355 5902 L6503 5755" /> 
<path d="M6353 5906 L6355 5902" /> 
<path d="M6200 5906 L6353 5906" /> 
<path d="M6087 5928 L6200 5906" /> 
<path d="M5992 5992 L6087 5928" /> 
<path d="M5989 5995 L5992 5992" /> 
<path d="M5592 6392 L5989 5995" /> 
<path d="M5528 6487 L5592 6392" /> 
<path d="M5506 6600 L5528 6487" /> 
<path d="M5506 8300 L5506 6600" /> 
<path d="M5528 8413 L5506 8300" /> 
<path d="M5592 8508 L5528 8413" /> 
<path d="M5784 8700 L5592 8508" /> 
<path d="M5592 8892 L5784 8700" /> 
<path d="M5528 8987 L5592 8892" /> 
<path d="M5506 9100 L5528 8987" /> 
<path d="M5506 10800 L5506 9100" /> 
<path d="M5528 10913 L5506 10800" /> 
<path d="M5592 11008 L5528 10913" /> 
<path d="M5784 11200 L5592 11008" /> 
<path d="M5592 11392 L5784 11200" /> 
<path d="M5528 11487 L5592 11392" /> 
<path d="M5506 11600 L5528 11487" /> 
<path d="M5506 13300 L5506 11600" /> 
<path d="M5528 13413 L5506 13300" /> 
<path d="M5592 13508 L5528 13413" /> 
<path d="M5784 13700 L5592 13508" /> 
<path d="M5592 13892 L5784 13700" /> 
<path d="M5528 13987 L5592 13892" /> 
<path d="M5506 14100 L5528 13987" /> 
<path d="M5506 14800 L5506 14100" /> 
<path d="M5528 14913 L5506 14800" /> 
<path d="M5592 15008 L5528 14913" /> 
<path d="M6242 15658 L5592 15008" /> 
<path d="M6337 15722 L6242 15658" /> 
<path d="M6450 15744 L6337 15722" /> 
<path d="M9750 15744 L6450 15744" /> 
<path d="M9862 15722 L9750 15744" /> 
<path d="M9863 15722 L9862 15722" /> 
<path d="M9958 15658 L9863 15722" /> 
<path d="M10322 15294 L9958 15658" /> 
<path d="M10838 15294 L10322 15294" /> 
<path d="M10909 15265 L10838 15294" /> 
<path d="M10964 15210 L10909 15265" /> 
<path d="M10994 15139 L10964 15210" /> 
<path d="M10994 15062 L10994 15139" /> 
<path d="M10994 14944 L10994 15062" /> 
<path d="M11106 14944 L10994 14944" /> 
<path d="M11106 14988 L11106 14944" /> 
<path d="M11135 15059 L11106 14988" /> 
<path d="M11190 15114 L11135 15059" /> 
<path d="M11261 15144 L11190 15114" /> 
<path d="M11338 15144 L11261 15144" /> 
<path d="M11938 15144 L11338 15144" /> 
<path d="M12009 15115 L11938 15144" /> 
<path d="M12064 15060 L12009 15115" /> 
<path d="M12094 14989 L12064 15060" /> 
<path d="M12094 14912 L12094 14989" /> 
<path d="M12094 14819 L12094 14912" /> 
<path d="M12220 14819 L12094 14819" /> 
<path d="M12265 14864 L12220 14819" /> 
<path d="M12336 14894 L12265 14864" /> 
<path d="M12413 14894 L12336 14894" /> 
<path d="M12963 14894 L12413 14894" /> 
<path d="M13034 14865 L12963 14894" /> 
<path d="M13080 14819 L13034 14865" /> 
<path d="M15075 14819 L13080 14819" /> 
<path d="M15187 14797 L15075 14819" /> 
<path d="M15188 14797 L15187 14797" /> 
<path d="M15283 14733 L15188 14797" /> 
<path d="M15858 14158 L15283 14733" /> 
<path d="M15922 14063 L15858 14158" /> 
<path d="M15944 13950 L15922 14063" /> 
<path d="M15944 11150 L15944 13950" /> 
<path d="M15943 11149 L15944 11150" /> 
<path d="M15944 11149 L15943 11149" /> 
<path d="M15922 11037 L15944 11149" /> 
<path d="M15858 10942 L15922 11037" /> 
<path d="M15854 10939 L15858 10942" /> 
<path d="M15658 10742 L15854 10939" /> 
<path d="M15570 10683 L15658 10742" /> 
<path d="M15608 10658 L15570 10683" /> 
<path d="M15957 10309 L15608 10658" /> 
<path d="M15957 10308 L15957 10309" /> 
<path d="M15958 10308 L15957 10308" /> 
<path d="M16022 10213 L15958 10308" /> 
<path d="M16043 10101 L16022 10213" /> 
<path d="M16044 10100 L16043 10101" /> 
<path d="M16044 6050 L16044 10100" /> 
<path d="M16022 5937 L16044 6050" /> 
<path d="M15958 5842 L16022 5937" /> 
<path d="M15458 5342 L15958 5842" /> 
<path d="M15363 5278 L15458 5342" /> 
<path d="M15321 5270 L15363 5278" /> 
<path d="M16147 5270 L15321 5270" /> 
<path d="M16147 15754 L16147 5270" /> 
</g>
<g style="fill:#000000; fill-opacity:1.00; stroke:#000000; stroke-opacity:1.00; stroke-linecap:round; stroke-linejoin:round; stroke-width:0" 
   transform="translate(0.00 0.00) scale(1.00 1.00)">
<polygon style="fill-rule:evenodd; " 
points="11587,5278
11492,5342
10428,6406
10340,6406
10369,6339
10369,6262
10369,6062
10340,5991
10285,5936
10214,5906
10137,5906
9950,5906
9687,5906
7246,5906
7245,5903
7098,5755
6905,5675
6696,5675
6503,5755
6355,5902
6353,5906
6200,5906
6087,5928
5992,5992
5989,5995
5592,6392
5528,6487
5506,6600
5506,8300
5528,8413
5592,8508
5784,8700
5592,8892
5528,8987
5506,9100
5506,10800
5528,10913
5592,11008
5784,11200
5592,11392
5528,11487
5506,11600
5506,13300
5528,13413
5592,13508
5784,13700
5592,13892
5528,13987
5506,14100
5506,14800
5528,14913
5592,15008
6242,15658
6337,15722
6450,15744
9750,15744
9862,15722
9863,15722
9958,15658
10322,15294
10838,15294
10909,15265
10964,15210
10994,15139
10994,15062
10994,14944
11106,14944
11106,14988
11135,15059
11190,15114
11261,15144
11338,15144
11938,15144
12009,15115
12064,15060
12094,14989
12094,14912
12094,14819
12220,14819
12265,14864
12336,14894
12413,14894
12963,14894
13034,14865
13080,14819
15075,14819
15187,14797
15188,14797
15283,14733
15858,14158
15922,14063
15944,13950
15944,11150
15943,11149
15944,11149
15922,11037
15858,10942
15854,10939
15658,10742
15570,10683
15608,10658
15957,10309
15957,10308
15958,10308
16022,10213
16043,10101
16044,10100
16044,6050
16022,5937
15958,5842
15458,5342
15363,5278
15321,5270
16147,5270
16147,15754
16147,15754
5270,15754
5270,5270
11628,5270
" /> 
<ellipse cx="12450" cy="12450" rx="275" ry="275"  /> 
</g>
<g style="fill:#FFFFFF; fill-opacity:1.00; stroke:#808000; stroke-opacity:1.00; stroke-linecap:round; stroke-linejoin:round; stroke-width:0" 
   transform="translate(0.00 0.00) scale(1.00 1.00)">
<ellipse cx="12450" cy="12450" rx="160" ry="160"  /> 
</g>
<g style="fill:#000000; fill-opacity:1.00; stroke:#000000; stroke-opacity:1.00; stroke-linecap:round; stroke-linejoin:round; stroke-width:0" 
   transform="translate(0.00 0.00) scale(1.00 1.00)">
<ellipse cx="10450" cy="12450" rx="275" ry="275"  /> 
</g>
<g style="fill:#FFFFFF; fill-opacity:1.00; stroke:#808000; stroke-opacity:1.00; stroke-linecap:round; stroke-linejoin:round; stroke-width:0" 
   transform="translate(0.00 0.00) scale(1.00 1.00)">
<ellipse cx="10450" cy="12450" rx="160" ry="160"  /> 
</g>
<g style="fill:#000000; fill-opacity:1.00; stroke:#000000; stroke-opacity:1.00; stroke-linecap:round; stroke-linejoin:round; stroke-width:0" 
   transform="translate(0.00 0.00) scale(1.00 1.00)">
<ellipse cx="12450" cy="9450" rx="275" ry="275"  /> 
</g>
<g style="fill:#FFFFFF; fill-opacity:1.00; stroke:#808000; stroke-opacity:1.00; stroke-linecap:round; stroke-linejoin:round; stroke-width:0" 
   transform="translate(0.00 0.00) scale(1.00 1.00)">
<ellipse cx="12450" cy="9450" rx="160" ry="160"  /> 
</g>
<g style="fill:#000000; fill-opacity:1.00; stroke:#000000; stroke-opacity:1.00; stroke-linecap:round; stroke-linejoin:round; stroke-width:0" 
   transform="translate(0.00 0.00) scale(1.00 1.00)">
<ellipse cx="10450" cy="9450" rx="275" ry="275"  /> 
</g>
<g style="fill:#FFFFFF; fill-opacity:1.00; stroke:#808000; stroke-opacity:1.00; stroke-linecap:round; stroke-linejoin:round; stroke-width:0" 
   transform="translate(0.00 0.00) scale(1.00 1.00)">
<ellipse cx="10450" cy="9450" rx="160" ry="160"  /> 
</g>
<g style="fill:#000000; fill-opacity:1.00; stroke:#000000; stroke-opacity:1.00; stroke-linecap:round; stroke-linejoin:round; stroke-width:0" 
   transform="translate(0.00 0.00) scale(1.00 1.00)">
<polygon style="fill-rule:evenodd; " 
points="10800,15100
10000,15100
10000,14500
10800,14500
" /> 
<polygon style="fill-rule:evenodd; " 
points="10800,13800
10000,13800
10000,13200
10800,13200
" /> 
<polygon style="fill-rule:evenodd; " 
points="11450,10500
11450,11300
10850,11300
10850,10500
" /> 
<polygon style="fill-rule:evenodd; " 
points="10150,10500
10150,11300
9550,11300
9550,10500
" /> 
<polygon style="fill-rule:evenodd; " 
points="12925,14700
12375,14700
12375,14350
12925,14350
" /> 
<polygon style="fill-rule:evenodd; " 
points="12925,13950
12375,13950
12375,13600
12925,13600
" /> 
<polygon style="fill-rule:evenodd; " 
points="13400,8175
13400,8725
13050,8725
13050,8175
" /> 
<polygon style="fill-rule:evenodd; " 
points="12650,8175
12650,8725
12300,8725
12300,8175
" /> 
<polygon style="fill-rule:evenodd; " 
points="13100,10675
13100,10125
13450,10125
13450,10675
" /> 
<polygon style="fill-rule:evenodd; " 
points="13850,10675
13850,10125
14200,10125
14200,10675
" /> 
<polygon style="fill-rule:evenodd; " 
points="11900,14950
11300,14950
11300,14350
11900,14350
" /> 
</g>
<g style="fill:#FFFFFF; fill-opacity:1.00; stroke:#808000; stroke-opacity:1.00; stroke-linecap:round; stroke-linejoin:round; stroke-width:0" 
   transform="translate(0.00 0.00) scale(1.00 1.00)">
<ellipse cx="11600" cy="14650" rx="200" ry="200"  /> 
</g>
<g style="fill:#000000; fill-opacity:1.00; stroke:#000000; stroke-opacity:1.00; stroke-linecap:round; stroke-linejoin:round; stroke-width:0" 
   transform="translate(0.00 0.00) scale(1.00 1.00)">
<ellipse cx="11600" cy="13650" rx="300" ry="300"  /> 
</g>
<g style="fill:#FFFFFF; fill-opacity:1.00; stroke:#808000; stroke-opacity:1.00; stroke-linecap:round; stroke-linejoin:round; stroke-width:0" 
   transform="translate(0.00 0.00) scale(1.00 1.00)">
<ellipse cx="11600" cy="13650" rx="200" ry="200"  /> 
</g>
<g style="fill:#000000; fill-opacity:1.00; stroke:#000000; stroke-opacity:1.00; stroke-linecap:round; stroke-linejoin:round; stroke-width:0" 
   transform="translate(0.00 0.00) scale(1.00 1.00)">
<ellipse cx="6800" cy="13700" rx="330" ry="330"  /> 
</g>
<g style="fill:#FFFFFF; fill-opacity:1.00; stroke:#808000; stroke-opacity:1.00; stroke-linecap:round; stroke-linejoin:round; stroke-width:0" 
   transform="translate(0.00 0.00) scale(1.00 1.00)">
<ellipse cx="6800" cy="13700" rx="160" ry="160"  /> 
</g>
<g style="fill:#000000; fill-opacity:1.00; stroke:#000000; stroke-opacity:1.00; stroke-linecap:round; stroke-linejoin:round; stroke-width:0" 
   transform="translate(0.00 0.00) scale(1.00 1.00)">
<ellipse cx="6800" cy="14700" rx="330" ry="330"  /> 
</g>
<g style="fill:#FFFFFF; fill-opacity:1.00; stroke:#808000; stroke-opacity:1.00; stroke-linecap:round; stroke-linejoin:round; stroke-width:0" 
   transform="translate(0.00 0.00) scale(1.00 1.00)">
<ellipse cx="6800" cy="14700" rx="160" ry="160"  /> 
</g>
<g style="fill:#000000; fill-opacity:1.00; stroke:#000000; stroke-opacity:1.00; stroke-linecap:round; stroke-linejoin:round; stroke-width:0" 
   transform="translate(0.00 0.00) scale(1.00 1.00)">
<ellipse cx="6800" cy="6200" rx="330" ry="330"  /> 
</g>
<g style="fill:#FFFFFF; fill-opacity:1.00; stroke:#808000; stroke-opacity:1.00; stroke-linecap:round; stroke-linejoin:round; stroke-width:0" 
   transform="translate(0.00 0.00) scale(1.00 1.00)">
<ellipse cx="6800" cy="6200" rx="160" ry="160"  /> 
</g>
<g style="fill:#000000; fill-opacity:1.00; stroke:#000000; stroke-opacity:1.00; stroke-linecap:round; stroke-linejoin:round; stroke-width:0" 
   transform="translate(0.00 0.00) scale(1.00 1.00)">
<ellipse cx="6800" cy="7200" rx="330" ry="330"  /> 
</g>
<g style="fill:#FFFFFF; fill-opacity:1.00; stroke:#808000; stroke-opacity:1.00; stroke-linecap:round; stroke-linejoin:round; stroke-width:0" 
   transform="translate(0.00 0.00) scale(1.00 1.00)">
<ellipse cx="6800" cy="7200" rx="160" ry="160"  /> 
</g>
<g style="fill:#000000; fill-opacity:1.00; stroke:#000000; stroke-opacity:1.00; stroke-linecap:round; stroke-linejoin:round; stroke-width:0" 
   transform="translate(0.00 0.00) scale(1.00 1.00)">
<ellipse cx="6800" cy="8700" rx="330" ry="330"  /> 
</g>
<g style="fill:#FFFFFF; fill-opacity:1.00; stroke:#808000; stroke-opacity:1.00; stroke-linecap:round; stroke-linejoin:round; stroke-width:0" 
   transform="translate(0.00 0.00) scale(1.00 1.00)">
<ellipse cx="6800" cy="8700" rx="160" ry="160"  /> 
</g>
<g style="fill:#000000; fill-opacity:1.00; stroke:#000000; stroke-opacity:1.00; stroke-linecap:round; stroke-linejoin:round; stroke-width:0" 
   transform="translate(0.00 0.00) scale(1.00 1.00)">
<ellipse cx="6800" cy="9700" rx="330" ry="330"  /> 
</g>
<g style="fill:#FFFFFF; fill-opacity:1.00; stroke:#808000; stroke-opacity:1.00; stroke-linecap:round; stroke-linejoin:round; stroke-width:0" 
   transform="translate(0.00 0.00) scale(1.00 1.00)">
<ellipse cx="6800" cy="9700" rx="160" ry="160"  /> 
</g>
<g style="fill:#000000; fill-opacity:1.00; stroke:#000000; stroke-opacity:1.00; stroke-linecap:round; stroke-linejoin:round; stroke-width:0" 
   transform="translate(0.00 0.00) scale(1.00 1.00)">
<ellipse cx="6800" cy="11200" rx="330" ry="330"  /> 
</g>
<g style="fill:#FFFFFF; fill-opacity:1.00; stroke:#808000; stroke-opacity:1.00; stroke-linecap:round; stroke-linejoin:round; stroke-width:0" 
   transform="translate(0.00 0.00) scale(1.00 1.00)">
<ellipse cx="6800" cy="11200" rx="160" ry="160"  /> 
</g>
<g style="fill:#000000; fill-opacity:1.00; stroke:#000000; stroke-opacity:1.00; stroke-linecap:round; stroke-linejoin:round; stroke-width:0" 
   transform="translate(0.00 0.00) scale(1.00 1.00)">
<ellipse cx="6800" cy="12200" rx="330" ry="330"  /> 
</g>
<g style="fill:#FFFFFF; fill-opacity:1.00; stroke:#808000; stroke-opacity:1.00; stroke-linecap:round; stroke-linejoin:round; stroke-width:0" 
   transform="translate(0.00 0.00) scale(1.00 1.00)">
<ellipse cx="6800" cy="12200" rx="160" ry="160"  /> 
</g>
<g style="fill:#000000; fill-opacity:1.00; stroke:#000000; stroke-opacity:1.00; stroke-linecap:round; stroke-linejoin:round; stroke-width:0" 
   transform="translate(0.00 0.00) scale(1.00 1.00)">
<polygon style="fill-rule:evenodd; " 
points="9725,6100
10175,6100
10175,6300
9725,6300
" /> 
<polygon style="fill-rule:evenodd; " 
points="9725,6600
10175,6600
10175,6800
9725,6800
" /> 
<polygon style="fill-rule:evenodd; " 
points="9725,7100
10175,7100
10175,7300
9725,7300
" /> 
<polygon style="fill-rule:evenodd; " 
points="9725,7600
10175,7600
10175,7800
9725,7800
" /> 
<polygon style="fill-rule:evenodd; " 
points="12225,7600
12675,7600
12675,7800
12225,7800
" /> 
<polygon style="fill-rule:evenodd; " 
points="12225,7100
12675,7100
12675,7300
12225,7300
" /> 
<polygon style="fill-rule:evenodd; " 
points="12225,6600
12675,6600
12675,6800
12225,6800
" /> 
<polygon style="fill-rule:evenodd; " 
points="12225,6100
12675,6100
12675,6300
12225,6300
" /> 
<polygon style="fill-rule:evenodd; " 
points="14650,8150
15250,8150
15250,8750
14650,8750
" /> 
</g>
<g style="fill:#FFFFFF; fill-opacity:1.00; stroke:#808000; stroke-opacity:1.00; stroke-linecap:round; stroke-linejoin:round; stroke-width:0" 
   transform="translate(0.00 0.00) scale(1.00 1.00)">
<ellipse cx="14950" cy="8450" rx="200" ry="200"  /> 
</g>
<g style="fill:#000000; fill-opacity:1.00; stroke:#000000; stroke-opacity:1.00; stroke-linecap:round; stroke-linejoin:round; stroke-width:0" 
   transform="translate(0.00 0.00) scale(1.00 1.00)">
<ellipse cx="14950" cy="9450" rx="300" ry="300"  /> 
</g>
<g style="fill:#FFFFFF; fill-opacity:1.00; stroke:#808000; stroke-opacity:1.00; stroke-linecap:round; stroke-linejoin:round; stroke-width:0" 
   transform="translate(0.00 0.00) scale(1.00 1.00)">
<ellipse cx="14950" cy="9450" rx="200" ry="200"  /> 
</g>
<g style="fill:#000000; fill-opacity:1.00; stroke:#000000; stroke-opacity:1.00; stroke-linecap:round; stroke-linejoin:round; stroke-width:0" 
   transform="translate(0.00 0.00) scale(1.00 1.00)">
<ellipse cx="14950" cy="10450" rx="300" ry="300"  /> 
</g>
<g style="fill:#FFFFFF; fill-opacity:1.00; stroke:#808000; stroke-opacity:1.00; stroke-linecap:round; stroke-linejoin:round; stroke-width:0" 
   transform="translate(0.00 0.00) scale(1.00 1.00)">
<ellipse cx="14950" cy="10450" rx="200" ry="200"  /> 
</g>
<g style="fill:#000000; fill-opacity:1.00; stroke:#000000; stroke-opacity:1.00; stroke-linecap:round; stroke-linejoin:round; stroke-width:0" 
   transform="translate(0.00 0.00) scale(1.00 1.00)">
<ellipse cx="14950" cy="11450" rx="300" ry="300"  /> 
</g>
<g style="fill:#FFFFFF; fill-opacity:1.00; stroke:#808000; stroke-opacity:1.00; stroke-linecap:round; stroke-linejoin:round; stroke-width:0" 
   transform="translate(0.00 0.00) scale(1.00 1.00)">
<ellipse cx="14950" cy="11450" rx="200" ry="200"  /> 
</g>
<g style="fill:#000000; fill-opacity:1.00; stroke:#000000; stroke-opacity:1.00; stroke-linecap:round; stroke-linejoin:round; stroke-width:0" 
   transform="translate(0.00 0.00) scale(1.00 1.00)">
<ellipse cx="14950" cy="12450" rx="300" ry="300"  /> 
</g>
<g style="fill:#FFFFFF; fill-opacity:1.00; stroke:#808000; stroke-opacity:1.00; stroke-linecap:round; stroke-linejoin:round; stroke-width:0" 
   transform="translate(0.00 0.00) scale(1.00 1.00)">
<ellipse cx="14950" cy="12450" rx="200" ry="200"  /> 
</g>
<g style="fill:#000000; fill-opacity:1.00; stroke:#000000; stroke-opacity:1.00; stroke-linecap:round; stroke-linejoin:round; stroke-width:0" 
   transform="translate(0.00 0.00) scale(1.00 1.00)">
<ellipse cx="14950" cy="13450" rx="300" ry="300"  /> 
</g>
<g style="fill:#FFFFFF; fill-opacity:1.00; stroke:#808000; stroke-opacity:1.00; stroke-linecap:round; stroke-linejoin:round; stroke-width:0" 
   transform="translate(0.00 0.00) scale(1.00 1.00)">
<ellipse cx="14950" cy="13450" rx="200" ry="200"  /> 
</g>
<g style="fill:#000000; fill-opacity:1.00; stroke:#000000; stroke-opacity:1.00; stroke-linecap:round; stroke-linejoin:round; stroke-width:0" 
   transform="translate(0.00 0.00) scale(1.00 1.00)">
<polygon style="fill-rule:evenodd; " 
points="13101,6338
14101,6338
14101,6614
13101,6614
" /> 
<polygon style="fill-rule:evenodd; " 
points="13101,6811
14101,6811
14101,7087
13101,7087
" /> 
<polygon style="fill-rule:evenodd; " 
points="13101,7283
14101,7283
14101,7559
13101,7559
" /> 
<polygon style="fill-rule:evenodd; " 
points="7703,12612
8097,12612
8097,12888
7703,12888
" /> 
<polygon style="fill-rule:evenodd; " 
points="8703,12987
9097,12987
9097,13263
8703,13263
" /> 
<polygon style="fill-rule:evenodd; " 
points="8703,12237
9097,12237
9097,12513
8703,12513
" /> 
<polygon style="fill-rule:evenodd; " 
points="7703,9012
8097,9012
8097,9288
7703,9288
" /> 
<polygon style="fill-rule:evenodd; " 
points="8703,9387
9097,9387
9097,9663
8703,9663
" /> 
<polygon style="fill-rule:evenodd; " 
points="8703,8637
9097,8637
9097,8913
8703,8913
" /> 
<polygon style="fill-rule:evenodd; " 
points="7703,7062
8097,7062
8097,7338
7703,7338
" /> 
<polygon style="fill-rule:evenodd; " 
points="8703,7437
9097,7437
9097,7713
8703,7713
" /> 
<polygon style="fill-rule:evenodd; " 
points="8703,6687
9097,6687
9097,6963
8703,6963
" /> 
<polygon style="fill-rule:evenodd; " 
points="7703,14562
8097,14562
8097,14838
7703,14838
" /> 
<polygon style="fill-rule:evenodd; " 
points="8703,14937
9097,14937
9097,15213
8703,15213
" /> 
<polygon style="fill-rule:evenodd; " 
points="8703,14187
9097,14187
9097,14463
8703,14463
" /> 
<polygon style="fill-rule:evenodd; " 
points="7703,10812
8097,10812
8097,11088
7703,11088
" /> 
<polygon style="fill-rule:evenodd; " 
points="8703,11187
9097,11187
9097,11463
8703,11463
" /> 
<polygon style="fill-rule:evenodd; " 
points="8703,10437
9097,10437
9097,10713
8703,10713
" /> 
<ellipse cx="12500" cy="10450" rx="330" ry="330"  /> 
</g>
<g style="fill:#FFFFFF; fill-opacity:1.00; stroke:#808000; stroke-opacity:1.00; stroke-linecap:round; stroke-linejoin:round; stroke-width:0" 
   transform="translate(0.00 0.00) scale(1.00 1.00)">
<ellipse cx="12500" cy="10450" rx="160" ry="160"  /> 
</g>
<g style="fill:#000000; fill-opacity:1.00; stroke:#000000; stroke-opacity:1.00; stroke-linecap:round; stroke-linejoin:round; stroke-width:0" 
   transform="translate(0.00 0.00) scale(1.00 1.00)">
<ellipse cx="12500" cy="11450" rx="330" ry="330"  /> 
</g>
<g style="fill:#FFFFFF; fill-opacity:1.00; stroke:#808000; stroke-opacity:1.00; stroke-linecap:round; stroke-linejoin:round; stroke-width:0" 
   transform="translate(0.00 0.00) scale(1.00 1.00)">
<ellipse cx="12500" cy="11450" rx="160" ry="160"  /> 
</g>
<g style="fill:#000000; fill-opacity:1.00; stroke:#000000; stroke-opacity:1.00; stroke-linecap:round; stroke-linejoin:round; stroke-width:0" 
   transform="translate(0.00 0.00) scale(1.00 1.00)">
<polygon style="fill-rule:evenodd; " 
points="10953,9546
11347,9546
11347,9860
10953,9860
" /> 
<polygon style="fill-rule:evenodd; " 
points="10953,9940
11347,9940
11347,10254
10953,10254
" /> 
<polygon style="fill-rule:evenodd; " 
points="13646,8647
13646,8253
13960,8253
13960,8647
" /> 
<polygon style="fill-rule:evenodd; " 
points="14040,8647
14040,8253
14354,8253
14354,8647
" /> 
</g>
<g style="fill:#FFFFFF; fill-opacity:1.00; stroke:#FFFFFF; stroke-opacity:1.00; stroke-linecap:round; stroke-linejoin:round; stroke-width:0" 
   transform="translate(0.00 0.00) scale(1.00 1.00)">
<ellipse cx="13900" cy="15050" rx="26" ry="26"  /> 
<ellipse cx="10550" cy="8450" rx="26" ry="26"  /> 
<ellipse cx="12000" cy="8450" rx="26" ry="26"  /> 
<ellipse cx="13900" cy="14000" rx="26" ry="26"  /> 
<ellipse cx="13300" cy="9450" rx="26" ry="26"  /> 
<ellipse cx="13300" cy="12450" rx="26" ry="26"  /> 
<ellipse cx="7550" cy="10150" rx="26" ry="26"  /> 
<ellipse cx="8900" cy="10150" rx="26" ry="26"  /> 
</g> 
</svg> 
