G04 (created by PCBNEW-RS274X (2012-01-19 BZR 3256)-stable) date 07/11/2012 22:21:36*
G01*
G70*
G90*
%MOIN*%
G04 Gerber Fmt 3.4, Leading zero omitted, Abs format*
%FSLAX34Y34*%
G04 APERTURE LIST*
%ADD10C,0.006000*%
%ADD11C,0.005000*%
%ADD12C,0.015000*%
%ADD13C,0.010000*%
%ADD14C,0.012000*%
%ADD15C,0.003000*%
%ADD16C,0.003500*%
%ADD17C,0.075000*%
%ADD18R,0.100000X0.080000*%
%ADD19R,0.080000X0.100000*%
%ADD20R,0.075000X0.055000*%
%ADD21R,0.055000X0.075000*%
%ADD22R,0.080000X0.080000*%
%ADD23C,0.080000*%
%ADD24R,0.065000X0.040000*%
%ADD25R,0.120000X0.047600*%
%ADD26R,0.059400X0.047600*%
%ADD27C,0.086000*%
G04 APERTURE END LIST*
G54D10*
G54D11*
X10850Y-15150D02*
X10850Y-15250D01*
X10850Y-15250D02*
X09950Y-15250D01*
X09950Y-15250D02*
X09950Y-15150D01*
X10850Y-15150D02*
X09950Y-15150D01*
X09950Y-15150D02*
X09950Y-14500D01*
X10850Y-13800D02*
X10850Y-13150D01*
X10850Y-13150D02*
X09950Y-13150D01*
X09950Y-13150D02*
X09950Y-13800D01*
X10850Y-14500D02*
X10850Y-15150D01*
X11500Y-10450D02*
X11500Y-11350D01*
X11500Y-11350D02*
X10850Y-11350D01*
X10150Y-10450D02*
X09500Y-10450D01*
X09500Y-10450D02*
X09500Y-11350D01*
X09500Y-11350D02*
X10150Y-11350D01*
X10850Y-10450D02*
X11500Y-10450D01*
X12400Y-14800D02*
X12399Y-14809D01*
X12396Y-14819D01*
X12391Y-14827D01*
X12385Y-14835D01*
X12377Y-14841D01*
X12369Y-14846D01*
X12360Y-14848D01*
X12350Y-14849D01*
X12341Y-14849D01*
X12332Y-14846D01*
X12323Y-14841D01*
X12316Y-14835D01*
X12309Y-14828D01*
X12305Y-14819D01*
X12302Y-14810D01*
X12301Y-14800D01*
X12301Y-14791D01*
X12304Y-14782D01*
X12308Y-14773D01*
X12315Y-14766D01*
X12322Y-14759D01*
X12330Y-14755D01*
X12340Y-14752D01*
X12349Y-14751D01*
X12358Y-14751D01*
X12368Y-14754D01*
X12376Y-14758D01*
X12384Y-14764D01*
X12390Y-14772D01*
X12395Y-14780D01*
X12398Y-14789D01*
X12399Y-14799D01*
X12400Y-14800D01*
X12350Y-14350D02*
X12350Y-14750D01*
X12350Y-14750D02*
X12950Y-14750D01*
X12950Y-14750D02*
X12950Y-14350D01*
X12950Y-13950D02*
X12950Y-13550D01*
X12950Y-13550D02*
X12350Y-13550D01*
X12350Y-13550D02*
X12350Y-13950D01*
X13550Y-08750D02*
X13549Y-08759D01*
X13546Y-08769D01*
X13541Y-08777D01*
X13535Y-08785D01*
X13527Y-08791D01*
X13519Y-08796D01*
X13510Y-08798D01*
X13500Y-08799D01*
X13491Y-08799D01*
X13482Y-08796D01*
X13473Y-08791D01*
X13466Y-08785D01*
X13459Y-08778D01*
X13455Y-08769D01*
X13452Y-08760D01*
X13451Y-08750D01*
X13451Y-08741D01*
X13454Y-08732D01*
X13458Y-08723D01*
X13465Y-08716D01*
X13472Y-08709D01*
X13480Y-08705D01*
X13490Y-08702D01*
X13499Y-08701D01*
X13508Y-08701D01*
X13518Y-08704D01*
X13526Y-08708D01*
X13534Y-08714D01*
X13540Y-08722D01*
X13545Y-08730D01*
X13548Y-08739D01*
X13549Y-08749D01*
X13550Y-08750D01*
X13050Y-08750D02*
X13450Y-08750D01*
X13450Y-08750D02*
X13450Y-08150D01*
X13450Y-08150D02*
X13050Y-08150D01*
X12650Y-08150D02*
X12250Y-08150D01*
X12250Y-08150D02*
X12250Y-08750D01*
X12250Y-08750D02*
X12650Y-08750D01*
X13050Y-10100D02*
X13049Y-10109D01*
X13046Y-10119D01*
X13041Y-10127D01*
X13035Y-10135D01*
X13027Y-10141D01*
X13019Y-10146D01*
X13010Y-10148D01*
X13000Y-10149D01*
X12991Y-10149D01*
X12982Y-10146D01*
X12973Y-10141D01*
X12966Y-10135D01*
X12959Y-10128D01*
X12955Y-10119D01*
X12952Y-10110D01*
X12951Y-10100D01*
X12951Y-10091D01*
X12954Y-10082D01*
X12958Y-10073D01*
X12965Y-10066D01*
X12972Y-10059D01*
X12980Y-10055D01*
X12990Y-10052D01*
X12999Y-10051D01*
X13008Y-10051D01*
X13018Y-10054D01*
X13026Y-10058D01*
X13034Y-10064D01*
X13040Y-10072D01*
X13045Y-10080D01*
X13048Y-10089D01*
X13049Y-10099D01*
X13050Y-10100D01*
X13450Y-10100D02*
X13050Y-10100D01*
X13050Y-10100D02*
X13050Y-10700D01*
X13050Y-10700D02*
X13450Y-10700D01*
X13850Y-10700D02*
X14250Y-10700D01*
X14250Y-10700D02*
X14250Y-10100D01*
X14250Y-10100D02*
X13850Y-10100D01*
X10300Y-05950D02*
X10300Y-07950D01*
X10300Y-07950D02*
X12100Y-07950D01*
X12100Y-07950D02*
X12100Y-05950D01*
X12100Y-05950D02*
X10300Y-05950D01*
X10900Y-05950D02*
X10900Y-06150D01*
X10900Y-06150D02*
X11400Y-06150D01*
X11400Y-06150D02*
X11400Y-05950D01*
G54D12*
X13837Y-06319D02*
X13325Y-06319D01*
X13325Y-06319D02*
X13325Y-07579D01*
X13325Y-07579D02*
X13837Y-07579D01*
X13837Y-07579D02*
X13837Y-06319D01*
G54D11*
X08700Y-12550D02*
X08500Y-12250D01*
X08700Y-13250D02*
X08700Y-12225D01*
X08700Y-12225D02*
X08100Y-12225D01*
X08100Y-12225D02*
X08100Y-13250D01*
X08100Y-13250D02*
X08700Y-13250D01*
X08700Y-08950D02*
X08500Y-08650D01*
X08700Y-09650D02*
X08700Y-08625D01*
X08700Y-08625D02*
X08100Y-08625D01*
X08100Y-08625D02*
X08100Y-09650D01*
X08100Y-09650D02*
X08700Y-09650D01*
X08700Y-07000D02*
X08500Y-06700D01*
X08700Y-07700D02*
X08700Y-06675D01*
X08700Y-06675D02*
X08100Y-06675D01*
X08100Y-06675D02*
X08100Y-07700D01*
X08100Y-07700D02*
X08700Y-07700D01*
X08700Y-14500D02*
X08500Y-14200D01*
X08700Y-15200D02*
X08700Y-14175D01*
X08700Y-14175D02*
X08100Y-14175D01*
X08100Y-14175D02*
X08100Y-15200D01*
X08100Y-15200D02*
X08700Y-15200D01*
X08700Y-10750D02*
X08500Y-10450D01*
X08700Y-11450D02*
X08700Y-10425D01*
X08700Y-10425D02*
X08100Y-10425D01*
X08100Y-10425D02*
X08100Y-11450D01*
X08100Y-11450D02*
X08700Y-11450D01*
G54D13*
X13000Y-11670D02*
X12000Y-11670D01*
G54D10*
X12500Y-10450D02*
X12448Y-10453D01*
X12396Y-10460D01*
X12345Y-10471D01*
X12295Y-10487D01*
X12247Y-10507D01*
X12201Y-10531D01*
X12156Y-10559D01*
X12116Y-10590D01*
X12897Y-10603D02*
X12857Y-10570D01*
X12813Y-10540D01*
X12768Y-10515D01*
X12720Y-10494D01*
X12671Y-10476D01*
X12620Y-10464D01*
X12568Y-10455D01*
X12516Y-10452D01*
X12500Y-10451D01*
X12111Y-11504D02*
X12152Y-11537D01*
X12196Y-11565D01*
X12242Y-11590D01*
X12290Y-11610D01*
X12339Y-11626D01*
X12390Y-11638D01*
X12442Y-11646D01*
X12494Y-11648D01*
X12500Y-11649D01*
X12500Y-11650D02*
X12552Y-11647D01*
X12604Y-11640D01*
X12655Y-11629D01*
X12705Y-11613D01*
X12753Y-11593D01*
X12800Y-11569D01*
X12844Y-11541D01*
X12884Y-11510D01*
X11900Y-11050D02*
X11903Y-11102D01*
X11910Y-11154D01*
X11921Y-11205D01*
X11937Y-11255D01*
X11957Y-11303D01*
X11981Y-11349D01*
X12009Y-11394D01*
X12041Y-11435D01*
X12076Y-11474D01*
X12115Y-11509D01*
X12151Y-11537D01*
X12140Y-10571D02*
X12100Y-10604D01*
X12062Y-10641D01*
X12028Y-10680D01*
X11998Y-10723D01*
X11971Y-10768D01*
X11949Y-10815D01*
X11930Y-10864D01*
X11916Y-10915D01*
X11906Y-10966D01*
X11901Y-11018D01*
X11900Y-11050D01*
X12867Y-11522D02*
X12907Y-11488D01*
X12944Y-11451D01*
X12977Y-11411D01*
X13007Y-11368D01*
X13033Y-11322D01*
X13054Y-11275D01*
X13072Y-11226D01*
X13085Y-11175D01*
X13094Y-11124D01*
X13098Y-11071D01*
X13099Y-11050D01*
X13100Y-11050D02*
X13097Y-10998D01*
X13090Y-10946D01*
X13079Y-10895D01*
X13063Y-10845D01*
X13043Y-10797D01*
X13019Y-10751D01*
X12991Y-10706D01*
X12959Y-10665D01*
X12924Y-10626D01*
X12885Y-10591D01*
X12868Y-10577D01*
X12500Y-10800D02*
X12479Y-10801D01*
X12457Y-10804D01*
X12436Y-10809D01*
X12415Y-10816D01*
X12395Y-10824D01*
X12376Y-10834D01*
X12357Y-10846D01*
X12340Y-10859D01*
X12324Y-10874D01*
X12309Y-10890D01*
X12296Y-10907D01*
X12284Y-10926D01*
X12274Y-10945D01*
X12266Y-10965D01*
X12259Y-10986D01*
X12254Y-11007D01*
X12251Y-11029D01*
X12250Y-11050D01*
X12500Y-10650D02*
X12466Y-10652D01*
X12431Y-10657D01*
X12397Y-10664D01*
X12364Y-10675D01*
X12331Y-10688D01*
X12301Y-10704D01*
X12271Y-10723D01*
X12243Y-10744D01*
X12218Y-10768D01*
X12194Y-10793D01*
X12173Y-10821D01*
X12154Y-10851D01*
X12138Y-10881D01*
X12125Y-10914D01*
X12114Y-10947D01*
X12107Y-10981D01*
X12102Y-11016D01*
X12100Y-11050D01*
X12500Y-11300D02*
X12521Y-11299D01*
X12543Y-11296D01*
X12564Y-11291D01*
X12585Y-11284D01*
X12605Y-11276D01*
X12625Y-11266D01*
X12643Y-11254D01*
X12660Y-11241D01*
X12676Y-11226D01*
X12691Y-11210D01*
X12704Y-11193D01*
X12716Y-11174D01*
X12726Y-11155D01*
X12734Y-11135D01*
X12741Y-11114D01*
X12746Y-11093D01*
X12749Y-11071D01*
X12750Y-11050D01*
X12500Y-11450D02*
X12534Y-11448D01*
X12569Y-11443D01*
X12603Y-11436D01*
X12636Y-11425D01*
X12669Y-11412D01*
X12700Y-11396D01*
X12729Y-11377D01*
X12757Y-11356D01*
X12782Y-11332D01*
X12806Y-11307D01*
X12827Y-11279D01*
X12846Y-11249D01*
X12862Y-11219D01*
X12875Y-11186D01*
X12886Y-11153D01*
X12893Y-11119D01*
X12898Y-11084D01*
X12900Y-11050D01*
G54D13*
X11700Y-11050D02*
X11704Y-11119D01*
X11713Y-11188D01*
X11728Y-11257D01*
X11749Y-11323D01*
X11775Y-11388D01*
X11808Y-11449D01*
X11845Y-11508D01*
X11888Y-11564D01*
X11935Y-11615D01*
X11986Y-11662D01*
X11987Y-11663D01*
X12124Y-10346D02*
X12064Y-10381D01*
X12007Y-10422D01*
X11955Y-10467D01*
X11906Y-10517D01*
X11862Y-10571D01*
X11822Y-10628D01*
X11788Y-10689D01*
X11759Y-10752D01*
X11736Y-10818D01*
X11719Y-10886D01*
X11707Y-10955D01*
X11702Y-11024D01*
X11701Y-11050D01*
X13015Y-11659D02*
X13066Y-11612D01*
X13113Y-11560D01*
X13155Y-11505D01*
X13192Y-11446D01*
X13224Y-11384D01*
X13250Y-11320D01*
X13271Y-11253D01*
X13286Y-11185D01*
X13295Y-11116D01*
X13297Y-11051D01*
X13300Y-11050D02*
X13296Y-10981D01*
X13287Y-10912D01*
X13272Y-10843D01*
X13251Y-10777D01*
X13225Y-10712D01*
X13192Y-10651D01*
X13155Y-10592D01*
X13112Y-10536D01*
X13065Y-10485D01*
X13014Y-10438D01*
X12958Y-10395D01*
X12900Y-10358D01*
X12897Y-10356D01*
X12500Y-10250D02*
X12431Y-10254D01*
X12362Y-10263D01*
X12293Y-10278D01*
X12227Y-10299D01*
X12162Y-10325D01*
X12121Y-10346D01*
X12918Y-10370D02*
X12857Y-10336D01*
X12794Y-10308D01*
X12728Y-10285D01*
X12660Y-10268D01*
X12591Y-10257D01*
X12522Y-10252D01*
X12500Y-10251D01*
G54D11*
X10493Y-14100D02*
X10507Y-14086D01*
X10521Y-14043D01*
X10521Y-14014D01*
X10507Y-13971D01*
X10479Y-13943D01*
X10450Y-13928D01*
X10393Y-13914D01*
X10350Y-13914D01*
X10293Y-13928D01*
X10264Y-13943D01*
X10236Y-13971D01*
X10221Y-14014D01*
X10221Y-14043D01*
X10236Y-14086D01*
X10250Y-14100D01*
X10521Y-14386D02*
X10521Y-14214D01*
X10521Y-14300D02*
X10221Y-14300D01*
X10264Y-14271D01*
X10293Y-14243D01*
X10307Y-14214D01*
X10550Y-11021D02*
X10650Y-10879D01*
X10722Y-11021D02*
X10722Y-10721D01*
X10607Y-10721D01*
X10579Y-10736D01*
X10564Y-10750D01*
X10550Y-10779D01*
X10550Y-10821D01*
X10564Y-10850D01*
X10579Y-10864D01*
X10607Y-10879D01*
X10722Y-10879D01*
X10450Y-10721D02*
X10264Y-10721D01*
X10364Y-10836D01*
X10322Y-10836D01*
X10293Y-10850D01*
X10279Y-10864D01*
X10264Y-10893D01*
X10264Y-10964D01*
X10279Y-10993D01*
X10293Y-11007D01*
X10322Y-11021D01*
X10407Y-11021D01*
X10436Y-11007D01*
X10450Y-10993D01*
X12727Y-14108D02*
X12739Y-14096D01*
X12751Y-14061D01*
X12751Y-14037D01*
X12739Y-14001D01*
X12715Y-13977D01*
X12692Y-13966D01*
X12644Y-13954D01*
X12608Y-13954D01*
X12561Y-13966D01*
X12537Y-13977D01*
X12513Y-14001D01*
X12501Y-14037D01*
X12501Y-14061D01*
X12513Y-14096D01*
X12525Y-14108D01*
X12525Y-14204D02*
X12513Y-14216D01*
X12501Y-14239D01*
X12501Y-14299D01*
X12513Y-14323D01*
X12525Y-14335D01*
X12549Y-14346D01*
X12573Y-14346D01*
X12608Y-14335D01*
X12751Y-14192D01*
X12751Y-14346D01*
X12892Y-08551D02*
X12975Y-08432D01*
X13034Y-08551D02*
X13034Y-08301D01*
X12939Y-08301D01*
X12915Y-08313D01*
X12904Y-08325D01*
X12892Y-08349D01*
X12892Y-08385D01*
X12904Y-08408D01*
X12915Y-08420D01*
X12939Y-08432D01*
X13034Y-08432D01*
X12796Y-08325D02*
X12784Y-08313D01*
X12761Y-08301D01*
X12701Y-08301D01*
X12677Y-08313D01*
X12665Y-08325D01*
X12654Y-08349D01*
X12654Y-08373D01*
X12665Y-08408D01*
X12808Y-08551D01*
X12654Y-08551D01*
X13692Y-10501D02*
X13775Y-10382D01*
X13834Y-10501D02*
X13834Y-10251D01*
X13739Y-10251D01*
X13715Y-10263D01*
X13704Y-10275D01*
X13692Y-10299D01*
X13692Y-10335D01*
X13704Y-10358D01*
X13715Y-10370D01*
X13739Y-10382D01*
X13834Y-10382D01*
X13454Y-10501D02*
X13596Y-10501D01*
X13525Y-10501D02*
X13525Y-10251D01*
X13549Y-10287D01*
X13573Y-10311D01*
X13596Y-10323D01*
X10882Y-06560D02*
X10432Y-06560D01*
X10839Y-06979D02*
X10861Y-06960D01*
X10882Y-06903D01*
X10882Y-06865D01*
X10861Y-06807D01*
X10818Y-06769D01*
X10775Y-06750D01*
X10689Y-06731D01*
X10625Y-06731D01*
X10539Y-06750D01*
X10496Y-06769D01*
X10454Y-06807D01*
X10432Y-06865D01*
X10432Y-06903D01*
X10454Y-06960D01*
X10475Y-06979D01*
X10882Y-07360D02*
X10882Y-07131D01*
X10882Y-07245D02*
X10432Y-07245D01*
X10496Y-07207D01*
X10539Y-07169D01*
X10561Y-07131D01*
G54D14*
X14592Y-06790D02*
X14592Y-06590D01*
X14906Y-06590D02*
X14306Y-06590D01*
X14306Y-06876D01*
X14906Y-07418D02*
X14906Y-07075D01*
X14906Y-07247D02*
X14306Y-07247D01*
X14392Y-07190D01*
X14449Y-07132D01*
X14477Y-07075D01*
G54D15*
X08897Y-13658D02*
X08897Y-13358D01*
X08725Y-13658D01*
X08725Y-13358D01*
X08583Y-13658D02*
X08583Y-13358D01*
X08468Y-13358D01*
X08440Y-13373D01*
X08425Y-13387D01*
X08411Y-13416D01*
X08411Y-13458D01*
X08425Y-13487D01*
X08440Y-13501D01*
X08468Y-13516D01*
X08583Y-13516D01*
X08283Y-13658D02*
X08283Y-13358D01*
X08111Y-13658D01*
X08111Y-13358D01*
X07811Y-13658D02*
X07983Y-13658D01*
X07897Y-13658D02*
X07897Y-13358D01*
X07926Y-13401D01*
X07954Y-13430D01*
X07983Y-13444D01*
X08897Y-10058D02*
X08897Y-09758D01*
X08725Y-10058D01*
X08725Y-09758D01*
X08583Y-10058D02*
X08583Y-09758D01*
X08468Y-09758D01*
X08440Y-09773D01*
X08425Y-09787D01*
X08411Y-09816D01*
X08411Y-09858D01*
X08425Y-09887D01*
X08440Y-09901D01*
X08468Y-09916D01*
X08583Y-09916D01*
X08283Y-10058D02*
X08283Y-09758D01*
X08111Y-10058D01*
X08111Y-09758D01*
X07983Y-09787D02*
X07969Y-09773D01*
X07940Y-09758D01*
X07869Y-09758D01*
X07840Y-09773D01*
X07826Y-09787D01*
X07811Y-09816D01*
X07811Y-09844D01*
X07826Y-09887D01*
X07997Y-10058D01*
X07811Y-10058D01*
X08897Y-08108D02*
X08897Y-07808D01*
X08725Y-08108D01*
X08725Y-07808D01*
X08583Y-08108D02*
X08583Y-07808D01*
X08468Y-07808D01*
X08440Y-07823D01*
X08425Y-07837D01*
X08411Y-07866D01*
X08411Y-07908D01*
X08425Y-07937D01*
X08440Y-07951D01*
X08468Y-07966D01*
X08583Y-07966D01*
X08283Y-08108D02*
X08283Y-07808D01*
X08111Y-08108D01*
X08111Y-07808D01*
X07997Y-07808D02*
X07811Y-07808D01*
X07911Y-07923D01*
X07869Y-07923D01*
X07840Y-07937D01*
X07826Y-07951D01*
X07811Y-07980D01*
X07811Y-08051D01*
X07826Y-08080D01*
X07840Y-08094D01*
X07869Y-08108D01*
X07954Y-08108D01*
X07983Y-08094D01*
X07997Y-08080D01*
X08897Y-15608D02*
X08897Y-15308D01*
X08725Y-15608D01*
X08725Y-15308D01*
X08583Y-15608D02*
X08583Y-15308D01*
X08468Y-15308D01*
X08440Y-15323D01*
X08425Y-15337D01*
X08411Y-15366D01*
X08411Y-15408D01*
X08425Y-15437D01*
X08440Y-15451D01*
X08468Y-15466D01*
X08583Y-15466D01*
X08283Y-15608D02*
X08283Y-15308D01*
X08111Y-15608D01*
X08111Y-15308D01*
X07840Y-15408D02*
X07840Y-15608D01*
X07911Y-15294D02*
X07983Y-15508D01*
X07797Y-15508D01*
X08890Y-11858D02*
X08890Y-11558D01*
X08775Y-11558D01*
X08747Y-11573D01*
X08732Y-11587D01*
X08718Y-11616D01*
X08718Y-11658D01*
X08732Y-11687D01*
X08747Y-11701D01*
X08775Y-11716D01*
X08890Y-11716D01*
X08590Y-11858D02*
X08590Y-11558D01*
X08418Y-11858D01*
X08418Y-11558D01*
X08276Y-11858D02*
X08276Y-11558D01*
X08161Y-11558D01*
X08133Y-11573D01*
X08118Y-11587D01*
X08104Y-11616D01*
X08104Y-11658D01*
X08118Y-11687D01*
X08133Y-11701D01*
X08161Y-11716D01*
X08276Y-11716D01*
X07818Y-11858D02*
X07990Y-11858D01*
X07904Y-11858D02*
X07904Y-11558D01*
X07933Y-11601D01*
X07961Y-11630D01*
X07990Y-11644D01*
G54D16*
X11521Y-11428D02*
X11221Y-11428D01*
X11221Y-11500D01*
X11236Y-11543D01*
X11264Y-11571D01*
X11293Y-11586D01*
X11350Y-11600D01*
X11393Y-11600D01*
X11450Y-11586D01*
X11479Y-11571D01*
X11507Y-11543D01*
X11521Y-11500D01*
X11521Y-11428D01*
X11521Y-11886D02*
X11521Y-11714D01*
X11521Y-11800D02*
X11221Y-11800D01*
X11264Y-11771D01*
X11293Y-11743D01*
X11307Y-11714D01*
%LPC*%
G54D17*
X12450Y-12450D03*
X10450Y-12450D03*
X12450Y-09450D03*
X10450Y-09450D03*
G54D18*
X10400Y-14800D03*
X10400Y-13500D03*
G54D19*
X11150Y-10900D03*
X09850Y-10900D03*
G54D20*
X12650Y-14525D03*
X12650Y-13775D03*
G54D21*
X13225Y-08450D03*
X12475Y-08450D03*
X13275Y-10400D03*
X14025Y-10400D03*
G54D22*
X11600Y-14650D03*
G54D23*
X11600Y-13650D03*
G54D24*
X09950Y-06200D03*
X09950Y-06700D03*
X09950Y-07200D03*
X09950Y-07700D03*
X12450Y-07700D03*
X12450Y-07200D03*
X12450Y-06700D03*
X12450Y-06200D03*
G54D22*
X14950Y-08450D03*
G54D23*
X14950Y-09450D03*
X14950Y-10450D03*
X14950Y-11450D03*
X14950Y-12450D03*
X14950Y-13450D03*
G54D25*
X13601Y-06476D03*
X13601Y-06949D03*
X13601Y-07421D03*
G54D26*
X07900Y-12750D03*
X08900Y-13125D03*
X08900Y-12375D03*
X07900Y-09150D03*
X08900Y-09525D03*
X08900Y-08775D03*
X07900Y-07200D03*
X08900Y-07575D03*
X08900Y-06825D03*
X07900Y-14700D03*
X08900Y-15075D03*
X08900Y-14325D03*
X07900Y-10950D03*
X08900Y-11325D03*
X08900Y-10575D03*
G54D27*
X12500Y-10450D03*
X12500Y-11450D03*
M02*
