G04 (created by PCBNEW-RS274X (2012-01-19 BZR 3256)-stable) date 07/11/2012 22:21:36*
G01*
G70*
G90*
%MOIN*%
G04 Gerber Fmt 3.4, Leading zero omitted, Abs format*
%FSLAX34Y34*%
G04 APERTURE LIST*
%ADD10C,0.006000*%
%ADD11C,0.055000*%
%ADD12R,0.080000X0.060000*%
%ADD13R,0.060000X0.080000*%
%ADD14R,0.055000X0.035000*%
%ADD15R,0.035000X0.055000*%
%ADD16R,0.060000X0.060000*%
%ADD17C,0.060000*%
%ADD18C,0.066000*%
%ADD19R,0.045000X0.020000*%
%ADD20R,0.100000X0.027600*%
%ADD21R,0.039400X0.027600*%
%ADD22R,0.039400X0.031500*%
%ADD23R,0.031500X0.039400*%
%ADD24C,0.035000*%
%ADD25C,0.019800*%
%ADD26C,0.011900*%
%ADD27C,0.010000*%
G04 APERTURE END LIST*
G54D10*
G54D11*
X12450Y-12450D03*
X10450Y-12450D03*
X12450Y-09450D03*
X10450Y-09450D03*
G54D12*
X10400Y-14800D03*
X10400Y-13500D03*
G54D13*
X11150Y-10900D03*
X09850Y-10900D03*
G54D14*
X12650Y-14525D03*
X12650Y-13775D03*
G54D15*
X13225Y-08450D03*
X12475Y-08450D03*
X13275Y-10400D03*
X14025Y-10400D03*
G54D16*
X11600Y-14650D03*
G54D17*
X11600Y-13650D03*
G54D18*
X06800Y-13700D03*
X06800Y-14700D03*
X06800Y-06200D03*
X06800Y-07200D03*
X06800Y-08700D03*
X06800Y-09700D03*
X06800Y-11200D03*
X06800Y-12200D03*
G54D19*
X09950Y-06200D03*
X09950Y-06700D03*
X09950Y-07200D03*
X09950Y-07700D03*
X12450Y-07700D03*
X12450Y-07200D03*
X12450Y-06700D03*
X12450Y-06200D03*
G54D16*
X14950Y-08450D03*
G54D17*
X14950Y-09450D03*
X14950Y-10450D03*
X14950Y-11450D03*
X14950Y-12450D03*
X14950Y-13450D03*
G54D20*
X13601Y-06476D03*
X13601Y-06949D03*
X13601Y-07421D03*
G54D21*
X07900Y-12750D03*
X08900Y-13125D03*
X08900Y-12375D03*
X07900Y-09150D03*
X08900Y-09525D03*
X08900Y-08775D03*
X07900Y-07200D03*
X08900Y-07575D03*
X08900Y-06825D03*
X07900Y-14700D03*
X08900Y-15075D03*
X08900Y-14325D03*
X07900Y-10950D03*
X08900Y-11325D03*
X08900Y-10575D03*
G54D18*
X12500Y-10450D03*
X12500Y-11450D03*
G54D22*
X11150Y-09703D03*
X11150Y-10097D03*
G54D23*
X13803Y-08450D03*
X14197Y-08450D03*
G54D24*
X13900Y-15050D03*
X10550Y-08450D03*
X12000Y-08450D03*
X13900Y-14000D03*
X13300Y-09450D03*
X13300Y-12450D03*
X07550Y-10150D03*
X08900Y-10150D03*
G54D25*
X14625Y-13775D02*
X14125Y-13775D01*
X09175Y-08775D02*
X08900Y-08775D01*
X09450Y-12600D02*
X09450Y-13750D01*
X09450Y-13750D02*
X09450Y-14150D01*
X09700Y-13500D02*
X09450Y-13750D01*
X14950Y-13450D02*
X14625Y-13775D01*
X10400Y-13500D02*
X09700Y-13500D01*
X09775Y-08775D02*
X09175Y-08775D01*
X12650Y-13775D02*
X14625Y-13775D01*
X09275Y-14325D02*
X08900Y-14325D01*
X10550Y-12350D02*
X10450Y-12450D01*
X10450Y-09450D02*
X10550Y-09550D01*
X10450Y-08550D02*
X10450Y-09450D01*
X11600Y-13650D02*
X10550Y-13650D01*
X10400Y-13500D02*
X10400Y-12500D01*
X14299Y-06949D02*
X13601Y-06949D01*
X12650Y-13775D02*
X11725Y-13775D01*
X08900Y-12375D02*
X08925Y-12350D01*
X10550Y-09550D02*
X10550Y-12350D01*
X12475Y-07725D02*
X12450Y-07700D01*
X11200Y-12450D02*
X10450Y-12450D01*
X09200Y-12350D02*
X09450Y-12600D01*
X10550Y-13650D02*
X10400Y-13500D01*
X12450Y-07700D02*
X12800Y-07700D01*
X11725Y-13775D02*
X11600Y-13650D01*
X12800Y-07700D02*
X12950Y-07850D01*
X12141Y-11509D02*
X11200Y-12450D01*
X09450Y-14150D02*
X09275Y-14325D01*
X09350Y-08600D02*
X09175Y-08775D01*
X14450Y-07100D02*
X14299Y-06949D01*
X14450Y-07600D02*
X14450Y-07100D01*
X13900Y-15050D02*
X13500Y-15050D01*
X12950Y-07850D02*
X14200Y-07850D01*
X09350Y-07275D02*
X09350Y-08600D01*
X08900Y-06825D02*
X09350Y-07275D01*
X10550Y-08450D02*
X10450Y-08550D01*
X12475Y-08450D02*
X12000Y-08450D01*
X12475Y-08450D02*
X12475Y-07725D01*
X14200Y-07850D02*
X14450Y-07600D01*
X10450Y-09450D02*
X09775Y-08775D01*
X10400Y-12500D02*
X10450Y-12450D01*
X12500Y-11509D02*
X12141Y-11509D01*
X14125Y-13775D02*
X13900Y-14000D01*
X08925Y-12350D02*
X09200Y-12350D01*
X14950Y-08450D02*
X14950Y-06200D01*
X14600Y-05850D02*
X11850Y-05850D01*
X10500Y-07200D02*
X09950Y-07200D01*
X14950Y-06200D02*
X14600Y-05850D01*
X11850Y-05850D02*
X10500Y-07200D01*
X14197Y-08450D02*
X14950Y-08450D01*
X10650Y-07700D02*
X09950Y-07700D01*
X11150Y-09703D02*
X11150Y-09050D01*
X11800Y-09700D02*
X11150Y-09050D01*
X11150Y-08200D02*
X10650Y-07700D01*
G54D26*
X13250Y-10950D02*
X12000Y-10950D01*
G54D25*
X12000Y-10950D02*
X11800Y-10750D01*
X11800Y-10750D02*
X11800Y-09700D01*
X11150Y-09050D02*
X11150Y-08200D01*
X14950Y-11450D02*
X13750Y-11450D01*
X13750Y-11450D02*
X13250Y-10950D01*
X08200Y-10950D02*
X08400Y-10750D01*
X08900Y-15075D02*
X08525Y-15075D01*
X08400Y-08100D02*
X08400Y-09750D01*
X08900Y-13125D02*
X08575Y-13125D01*
X08575Y-13125D02*
X08400Y-13300D01*
X08900Y-07575D02*
X08925Y-07575D01*
X08925Y-07575D02*
X08400Y-08100D01*
X08200Y-10950D02*
X08400Y-11150D01*
X08625Y-09525D02*
X08400Y-09750D01*
X07900Y-10950D02*
X08200Y-10950D01*
X08400Y-11150D02*
X08400Y-13300D01*
X08400Y-14950D02*
X08400Y-13300D01*
X08900Y-09525D02*
X08625Y-09525D01*
X08525Y-15075D02*
X08400Y-14950D01*
X08400Y-10750D02*
X08400Y-09750D01*
X09850Y-10900D02*
X09425Y-11325D01*
X09425Y-11325D02*
X08900Y-11325D01*
X13275Y-10400D02*
X12550Y-10400D01*
X12550Y-10400D02*
X12500Y-10450D01*
X07900Y-14700D02*
X06800Y-14700D01*
X07900Y-07200D02*
X06800Y-07200D01*
X07900Y-12750D02*
X07550Y-12750D01*
X07550Y-12750D02*
X07000Y-12200D01*
X07000Y-12200D02*
X06800Y-12200D01*
X07050Y-09700D02*
X06800Y-09700D01*
X07600Y-09150D02*
X07050Y-09700D01*
X07900Y-09150D02*
X07600Y-09150D01*
X12750Y-06700D02*
X12974Y-06476D01*
X12974Y-06476D02*
X13601Y-06476D01*
X12450Y-06700D02*
X12750Y-06700D01*
X12450Y-07200D02*
X12700Y-07200D01*
X12921Y-07421D02*
X13601Y-07421D01*
X12700Y-07200D02*
X12921Y-07421D01*
X13803Y-08450D02*
X13225Y-08450D01*
X11150Y-10900D02*
X11150Y-10097D01*
X14950Y-12450D02*
X13300Y-12450D01*
X12450Y-09450D02*
X13300Y-09450D01*
X13300Y-12450D02*
X12450Y-12450D01*
X11600Y-06600D02*
X11600Y-09000D01*
X12000Y-06200D02*
X11600Y-06600D01*
X12050Y-09450D02*
X12450Y-09450D01*
X11600Y-09000D02*
X12050Y-09450D01*
X12450Y-06200D02*
X12000Y-06200D01*
X11700Y-05550D02*
X15250Y-05550D01*
X15750Y-10100D02*
X15400Y-10450D01*
X10550Y-06700D02*
X11700Y-05550D01*
X15750Y-06050D02*
X15750Y-10100D01*
X14950Y-10450D02*
X14075Y-10450D01*
X15250Y-05550D02*
X15750Y-06050D01*
X15400Y-10450D02*
X14950Y-10450D01*
X14075Y-10450D02*
X14025Y-10400D01*
X09950Y-06700D02*
X10550Y-06700D01*
X11600Y-14650D02*
X10550Y-14650D01*
X07550Y-10150D02*
X07550Y-10150D01*
X06800Y-11200D02*
X06200Y-11200D01*
X09750Y-15450D02*
X06450Y-15450D01*
X13650Y-10850D02*
X13650Y-09650D01*
X06800Y-13700D02*
X06200Y-13700D01*
X15650Y-11150D02*
X15450Y-10950D01*
X13750Y-10950D02*
X13650Y-10850D01*
X06800Y-10900D02*
X07550Y-10150D01*
X15450Y-10950D02*
X13750Y-10950D01*
X05800Y-13300D02*
X05800Y-11600D01*
X06800Y-06200D02*
X09950Y-06200D01*
X12650Y-14525D02*
X11725Y-14525D01*
X11725Y-14525D02*
X11600Y-14650D01*
X05800Y-06600D02*
X06200Y-06200D01*
X06200Y-13700D02*
X05800Y-13300D01*
X08900Y-10150D02*
X08900Y-10575D01*
X05800Y-14100D02*
X06200Y-13700D01*
X05800Y-11600D02*
X06200Y-11200D01*
X06450Y-15450D02*
X05800Y-14800D01*
X10400Y-14800D02*
X09750Y-15450D01*
X06800Y-08700D02*
X06200Y-08700D01*
X10550Y-14650D02*
X10400Y-14800D01*
X05800Y-09100D02*
X06200Y-08700D01*
X13650Y-09650D02*
X13850Y-09450D01*
X06800Y-11200D02*
X06800Y-10900D01*
X05800Y-08300D02*
X05800Y-06600D01*
X06200Y-08700D02*
X05800Y-08300D01*
X05800Y-14800D02*
X05800Y-14100D01*
X06200Y-11200D02*
X05800Y-10800D01*
X12650Y-14525D02*
X15075Y-14525D01*
X13850Y-09450D02*
X14950Y-09450D01*
X15075Y-14525D02*
X15650Y-13950D01*
X15650Y-13950D02*
X15650Y-11150D01*
X06200Y-06200D02*
X06800Y-06200D01*
X05800Y-10800D02*
X05800Y-09100D01*
G54D10*
G36*
X14656Y-07956D02*
X14612Y-07956D01*
X14541Y-07985D01*
X14486Y-08040D01*
X14464Y-08089D01*
X14393Y-08059D01*
X14316Y-08059D01*
X14002Y-08059D01*
X14000Y-08059D01*
X13999Y-08059D01*
X13922Y-08059D01*
X13608Y-08059D01*
X13568Y-08075D01*
X13565Y-08066D01*
X13510Y-08011D01*
X13439Y-07981D01*
X13362Y-07981D01*
X13012Y-07981D01*
X12941Y-08010D01*
X12886Y-08065D01*
X12879Y-08079D01*
X12861Y-08034D01*
X12827Y-08000D01*
X12886Y-07941D01*
X12924Y-07849D01*
X12925Y-07772D01*
X12913Y-07760D01*
X12925Y-07760D01*
X12925Y-07715D01*
X12983Y-07715D01*
X12991Y-07723D01*
X13062Y-07753D01*
X13139Y-07753D01*
X14139Y-07753D01*
X14210Y-07724D01*
X14265Y-07669D01*
X14295Y-07598D01*
X14295Y-07521D01*
X14295Y-07245D01*
X14312Y-07228D01*
X14350Y-07136D01*
X14351Y-07021D01*
X14289Y-06959D01*
X13661Y-06959D01*
X13611Y-06959D01*
X13591Y-06959D01*
X13591Y-06939D01*
X13611Y-06939D01*
X13661Y-06939D01*
X14289Y-06939D01*
X14351Y-06877D01*
X14350Y-06762D01*
X14312Y-06670D01*
X14295Y-06653D01*
X14295Y-06576D01*
X14295Y-06300D01*
X14266Y-06229D01*
X14211Y-06174D01*
X14140Y-06144D01*
X14478Y-06144D01*
X14656Y-06322D01*
X14656Y-07956D01*
X14656Y-07956D01*
G37*
G54D27*
X14656Y-07956D02*
X14612Y-07956D01*
X14541Y-07985D01*
X14486Y-08040D01*
X14464Y-08089D01*
X14393Y-08059D01*
X14316Y-08059D01*
X14002Y-08059D01*
X14000Y-08059D01*
X13999Y-08059D01*
X13922Y-08059D01*
X13608Y-08059D01*
X13568Y-08075D01*
X13565Y-08066D01*
X13510Y-08011D01*
X13439Y-07981D01*
X13362Y-07981D01*
X13012Y-07981D01*
X12941Y-08010D01*
X12886Y-08065D01*
X12879Y-08079D01*
X12861Y-08034D01*
X12827Y-08000D01*
X12886Y-07941D01*
X12924Y-07849D01*
X12925Y-07772D01*
X12913Y-07760D01*
X12925Y-07760D01*
X12925Y-07715D01*
X12983Y-07715D01*
X12991Y-07723D01*
X13062Y-07753D01*
X13139Y-07753D01*
X14139Y-07753D01*
X14210Y-07724D01*
X14265Y-07669D01*
X14295Y-07598D01*
X14295Y-07521D01*
X14295Y-07245D01*
X14312Y-07228D01*
X14350Y-07136D01*
X14351Y-07021D01*
X14289Y-06959D01*
X13661Y-06959D01*
X13611Y-06959D01*
X13591Y-06959D01*
X13591Y-06939D01*
X13611Y-06939D01*
X13661Y-06939D01*
X14289Y-06939D01*
X14351Y-06877D01*
X14350Y-06762D01*
X14312Y-06670D01*
X14295Y-06653D01*
X14295Y-06576D01*
X14295Y-06300D01*
X14266Y-06229D01*
X14211Y-06174D01*
X14140Y-06144D01*
X14478Y-06144D01*
X14656Y-06322D01*
X14656Y-07956D01*
G54D10*
G36*
X15356Y-13125D02*
X15301Y-13113D01*
X14999Y-13415D01*
X14964Y-13450D01*
X14950Y-13464D01*
X14936Y-13478D01*
X14936Y-13450D01*
X14599Y-13113D01*
X14500Y-13135D01*
X14413Y-13332D01*
X14409Y-13547D01*
X14487Y-13746D01*
X14500Y-13765D01*
X14599Y-13787D01*
X14936Y-13450D01*
X14936Y-13478D01*
X14915Y-13499D01*
X14613Y-13801D01*
X14635Y-13900D01*
X14832Y-13987D01*
X15047Y-13991D01*
X15246Y-13913D01*
X15265Y-13900D01*
X15274Y-13859D01*
X15287Y-13871D01*
X15299Y-13884D01*
X15287Y-13897D01*
X14953Y-14231D01*
X13080Y-14231D01*
X13035Y-14186D01*
X13020Y-14179D01*
X13066Y-14161D01*
X13136Y-14091D01*
X13174Y-13999D01*
X13175Y-13847D01*
X13175Y-13703D01*
X13174Y-13551D01*
X13136Y-13459D01*
X13066Y-13389D01*
X12975Y-13351D01*
X12876Y-13351D01*
X12722Y-13350D01*
X12660Y-13412D01*
X12660Y-13765D01*
X13113Y-13765D01*
X13175Y-13703D01*
X13175Y-13847D01*
X13113Y-13785D01*
X12710Y-13785D01*
X12660Y-13785D01*
X12640Y-13785D01*
X12640Y-13765D01*
X12640Y-13715D01*
X12640Y-13412D01*
X12578Y-13350D01*
X12424Y-13351D01*
X12325Y-13351D01*
X12234Y-13389D01*
X12164Y-13459D01*
X12133Y-13533D01*
X12063Y-13354D01*
X12050Y-13335D01*
X11951Y-13313D01*
X11937Y-13327D01*
X11937Y-13299D01*
X11915Y-13200D01*
X11718Y-13113D01*
X11503Y-13109D01*
X11304Y-13187D01*
X11285Y-13200D01*
X11263Y-13299D01*
X11600Y-13636D01*
X11937Y-13299D01*
X11937Y-13327D01*
X11614Y-13650D01*
X11951Y-13987D01*
X12050Y-13965D01*
X12125Y-13795D01*
X12125Y-13835D01*
X12137Y-13835D01*
X12125Y-13847D01*
X12126Y-13999D01*
X12164Y-14091D01*
X12234Y-14161D01*
X12278Y-14179D01*
X12266Y-14185D01*
X12220Y-14231D01*
X12055Y-14231D01*
X12010Y-14186D01*
X11939Y-14156D01*
X11862Y-14156D01*
X11786Y-14156D01*
X11896Y-14113D01*
X11915Y-14100D01*
X11937Y-14001D01*
X11600Y-13664D01*
X11586Y-13678D01*
X11586Y-13650D01*
X11249Y-13313D01*
X11150Y-13335D01*
X11063Y-13532D01*
X11059Y-13747D01*
X11137Y-13946D01*
X11150Y-13965D01*
X11249Y-13987D01*
X11586Y-13650D01*
X11586Y-13678D01*
X11263Y-14001D01*
X11285Y-14100D01*
X11411Y-14156D01*
X11262Y-14156D01*
X11191Y-14185D01*
X11136Y-14240D01*
X11106Y-14311D01*
X11106Y-14356D01*
X11050Y-14356D01*
X11050Y-13572D01*
X11050Y-13428D01*
X11049Y-13151D01*
X11011Y-13059D01*
X10966Y-13014D01*
X10966Y-12358D01*
X10892Y-12168D01*
X10880Y-12150D01*
X10784Y-12130D01*
X10770Y-12144D01*
X10770Y-12116D01*
X10750Y-12020D01*
X10563Y-11938D01*
X10358Y-11934D01*
X10168Y-12008D01*
X10150Y-12020D01*
X10130Y-12116D01*
X10450Y-12436D01*
X10770Y-12116D01*
X10770Y-12144D01*
X10464Y-12450D01*
X10784Y-12770D01*
X10880Y-12750D01*
X10962Y-12563D01*
X10966Y-12358D01*
X10966Y-13014D01*
X10941Y-12989D01*
X10850Y-12951D01*
X10751Y-12951D01*
X10582Y-12950D01*
X10732Y-12892D01*
X10750Y-12880D01*
X10770Y-12784D01*
X10450Y-12464D01*
X10436Y-12478D01*
X10436Y-12450D01*
X10116Y-12130D01*
X10020Y-12150D01*
X09938Y-12337D01*
X09934Y-12542D01*
X10008Y-12732D01*
X10020Y-12750D01*
X10116Y-12770D01*
X10436Y-12450D01*
X10436Y-12478D01*
X10130Y-12784D01*
X10150Y-12880D01*
X10309Y-12950D01*
X10049Y-12951D01*
X09950Y-12951D01*
X09859Y-12989D01*
X09789Y-13059D01*
X09751Y-13151D01*
X09750Y-13428D01*
X09812Y-13490D01*
X10340Y-13490D01*
X10390Y-13490D01*
X10410Y-13490D01*
X10460Y-13490D01*
X10988Y-13490D01*
X11050Y-13428D01*
X11050Y-13572D01*
X10988Y-13510D01*
X10410Y-13510D01*
X10410Y-13988D01*
X10472Y-14050D01*
X10751Y-14049D01*
X10850Y-14049D01*
X10941Y-14011D01*
X11011Y-13941D01*
X11049Y-13849D01*
X11050Y-13572D01*
X11050Y-14356D01*
X10930Y-14356D01*
X10910Y-14336D01*
X10839Y-14306D01*
X10762Y-14306D01*
X10390Y-14306D01*
X10390Y-13988D01*
X10390Y-13510D01*
X09812Y-13510D01*
X09750Y-13572D01*
X09751Y-13849D01*
X09789Y-13941D01*
X09859Y-14011D01*
X09950Y-14049D01*
X10049Y-14049D01*
X10328Y-14050D01*
X10390Y-13988D01*
X10390Y-14306D01*
X09962Y-14306D01*
X09891Y-14335D01*
X09836Y-14390D01*
X09806Y-14461D01*
X09806Y-14538D01*
X09806Y-14978D01*
X09628Y-15156D01*
X09347Y-15156D01*
X09347Y-14397D01*
X09347Y-14253D01*
X09347Y-12447D01*
X09347Y-12303D01*
X09346Y-12188D01*
X09308Y-12096D01*
X09238Y-12026D01*
X09147Y-11988D01*
X09048Y-11988D01*
X08972Y-11987D01*
X08910Y-12049D01*
X08910Y-12365D01*
X09285Y-12365D01*
X09347Y-12303D01*
X09347Y-12447D01*
X09285Y-12385D01*
X08910Y-12385D01*
X08910Y-12701D01*
X08972Y-12763D01*
X09048Y-12762D01*
X09147Y-12762D01*
X09238Y-12724D01*
X09308Y-12654D01*
X09346Y-12562D01*
X09347Y-12447D01*
X09347Y-14253D01*
X09346Y-14138D01*
X09308Y-14046D01*
X09238Y-13976D01*
X09147Y-13938D01*
X09048Y-13938D01*
X08972Y-13937D01*
X08910Y-13999D01*
X08910Y-14315D01*
X09285Y-14315D01*
X09347Y-14253D01*
X09347Y-14397D01*
X09285Y-14335D01*
X08910Y-14335D01*
X08910Y-14651D01*
X08972Y-14713D01*
X09048Y-14712D01*
X09147Y-14712D01*
X09238Y-14674D01*
X09308Y-14604D01*
X09346Y-14512D01*
X09347Y-14397D01*
X09347Y-15156D01*
X09291Y-15156D01*
X09291Y-14899D01*
X09262Y-14828D01*
X09207Y-14773D01*
X09136Y-14743D01*
X09059Y-14743D01*
X08694Y-14743D01*
X08694Y-14712D01*
X08752Y-14712D01*
X08828Y-14713D01*
X08890Y-14651D01*
X08890Y-14385D01*
X08890Y-14335D01*
X08890Y-14315D01*
X08890Y-14265D01*
X08890Y-13999D01*
X08828Y-13937D01*
X08752Y-13938D01*
X08694Y-13938D01*
X08694Y-13457D01*
X08741Y-13457D01*
X09135Y-13457D01*
X09206Y-13428D01*
X09261Y-13373D01*
X09291Y-13302D01*
X09291Y-13225D01*
X09291Y-12949D01*
X09262Y-12878D01*
X09207Y-12823D01*
X09136Y-12793D01*
X09059Y-12793D01*
X08694Y-12793D01*
X08694Y-12762D01*
X08752Y-12762D01*
X08828Y-12763D01*
X08890Y-12701D01*
X08890Y-12435D01*
X08890Y-12385D01*
X08890Y-12365D01*
X08890Y-12315D01*
X08890Y-12049D01*
X08828Y-11987D01*
X08752Y-11988D01*
X08694Y-11988D01*
X08694Y-11657D01*
X08741Y-11657D01*
X09135Y-11657D01*
X09206Y-11628D01*
X09215Y-11619D01*
X09425Y-11619D01*
X09537Y-11597D01*
X09538Y-11597D01*
X09633Y-11533D01*
X09672Y-11494D01*
X10188Y-11494D01*
X10259Y-11465D01*
X10314Y-11410D01*
X10344Y-11339D01*
X10344Y-11262D01*
X10344Y-10462D01*
X10315Y-10391D01*
X10260Y-10336D01*
X10189Y-10306D01*
X10112Y-10306D01*
X09512Y-10306D01*
X09441Y-10335D01*
X09386Y-10390D01*
X09356Y-10461D01*
X09356Y-10538D01*
X09356Y-10978D01*
X09347Y-10987D01*
X09347Y-08847D01*
X09347Y-08703D01*
X09347Y-06897D01*
X09285Y-06835D01*
X08910Y-06835D01*
X08910Y-07151D01*
X08972Y-07213D01*
X09048Y-07212D01*
X09147Y-07212D01*
X09238Y-07174D01*
X09308Y-07104D01*
X09346Y-07012D01*
X09347Y-06897D01*
X09347Y-08703D01*
X09346Y-08588D01*
X09308Y-08496D01*
X09238Y-08426D01*
X09147Y-08388D01*
X09048Y-08388D01*
X08972Y-08387D01*
X08910Y-08449D01*
X08910Y-08765D01*
X09285Y-08765D01*
X09347Y-08703D01*
X09347Y-08847D01*
X09285Y-08785D01*
X08910Y-08785D01*
X08910Y-09101D01*
X08972Y-09163D01*
X09048Y-09162D01*
X09147Y-09162D01*
X09238Y-09124D01*
X09308Y-09054D01*
X09346Y-08962D01*
X09347Y-08847D01*
X09347Y-10987D01*
X09303Y-11031D01*
X09215Y-11031D01*
X09207Y-11023D01*
X09136Y-10993D01*
X09059Y-10993D01*
X08665Y-10993D01*
X08647Y-11000D01*
X08613Y-10950D01*
X08647Y-10899D01*
X08664Y-10907D01*
X08741Y-10907D01*
X09135Y-10907D01*
X09206Y-10878D01*
X09261Y-10823D01*
X09291Y-10752D01*
X09291Y-10675D01*
X09291Y-10399D01*
X09262Y-10328D01*
X09236Y-10302D01*
X09270Y-10224D01*
X09270Y-10077D01*
X09214Y-09941D01*
X09130Y-09857D01*
X09135Y-09857D01*
X09206Y-09828D01*
X09261Y-09773D01*
X09291Y-09702D01*
X09291Y-09625D01*
X09291Y-09349D01*
X09262Y-09278D01*
X09207Y-09223D01*
X09136Y-09193D01*
X09059Y-09193D01*
X08694Y-09193D01*
X08694Y-09162D01*
X08752Y-09162D01*
X08828Y-09163D01*
X08890Y-09101D01*
X08890Y-08835D01*
X08890Y-08785D01*
X08890Y-08765D01*
X08890Y-08715D01*
X08890Y-08449D01*
X08828Y-08387D01*
X08752Y-08388D01*
X08694Y-08388D01*
X08694Y-08222D01*
X09009Y-07907D01*
X09135Y-07907D01*
X09206Y-07878D01*
X09261Y-07823D01*
X09291Y-07752D01*
X09291Y-07675D01*
X09291Y-07399D01*
X09262Y-07328D01*
X09207Y-07273D01*
X09136Y-07243D01*
X09059Y-07243D01*
X08890Y-07243D01*
X08890Y-07151D01*
X08890Y-06835D01*
X08515Y-06835D01*
X08453Y-06897D01*
X08454Y-07012D01*
X08492Y-07104D01*
X08562Y-07174D01*
X08653Y-07212D01*
X08752Y-07212D01*
X08828Y-07213D01*
X08890Y-07151D01*
X08890Y-07243D01*
X08665Y-07243D01*
X08594Y-07272D01*
X08539Y-07327D01*
X08509Y-07398D01*
X08509Y-07475D01*
X08509Y-07575D01*
X08192Y-07892D01*
X08128Y-07987D01*
X08106Y-08100D01*
X08106Y-08818D01*
X08059Y-08818D01*
X07665Y-08818D01*
X07594Y-08847D01*
X07581Y-08859D01*
X07487Y-08878D01*
X07392Y-08942D01*
X07389Y-08945D01*
X07084Y-09249D01*
X06964Y-09199D01*
X07097Y-09145D01*
X07245Y-08998D01*
X07325Y-08805D01*
X07325Y-08596D01*
X07245Y-08403D01*
X07098Y-08255D01*
X06905Y-08175D01*
X06696Y-08175D01*
X06503Y-08255D01*
X06355Y-08402D01*
X06353Y-08406D01*
X06321Y-08406D01*
X06094Y-08178D01*
X06094Y-06721D01*
X06321Y-06494D01*
X06353Y-06494D01*
X06355Y-06497D01*
X06502Y-06645D01*
X06635Y-06700D01*
X06503Y-06755D01*
X06355Y-06902D01*
X06275Y-07095D01*
X06275Y-07304D01*
X06355Y-07497D01*
X06502Y-07645D01*
X06695Y-07725D01*
X06904Y-07725D01*
X07097Y-07645D01*
X07245Y-07498D01*
X07246Y-07494D01*
X07585Y-07494D01*
X07593Y-07502D01*
X07664Y-07532D01*
X07741Y-07532D01*
X08135Y-07532D01*
X08206Y-07503D01*
X08261Y-07448D01*
X08291Y-07377D01*
X08291Y-07300D01*
X08291Y-07024D01*
X08262Y-06953D01*
X08207Y-06898D01*
X08136Y-06868D01*
X08059Y-06868D01*
X07665Y-06868D01*
X07594Y-06897D01*
X07585Y-06906D01*
X07246Y-06906D01*
X07245Y-06903D01*
X07098Y-06755D01*
X06964Y-06699D01*
X07097Y-06645D01*
X07245Y-06498D01*
X07246Y-06494D01*
X08544Y-06494D01*
X08492Y-06546D01*
X08454Y-06638D01*
X08453Y-06753D01*
X08515Y-06815D01*
X08840Y-06815D01*
X08890Y-06815D01*
X08910Y-06815D01*
X08960Y-06815D01*
X09285Y-06815D01*
X09347Y-06753D01*
X09346Y-06638D01*
X09308Y-06546D01*
X09256Y-06494D01*
X09559Y-06494D01*
X09531Y-06561D01*
X09531Y-06638D01*
X09531Y-06838D01*
X09560Y-06909D01*
X09601Y-06950D01*
X09561Y-06990D01*
X09531Y-07061D01*
X09531Y-07138D01*
X09531Y-07338D01*
X09560Y-07409D01*
X09601Y-07450D01*
X09561Y-07490D01*
X09531Y-07561D01*
X09531Y-07638D01*
X09531Y-07838D01*
X09560Y-07909D01*
X09615Y-07964D01*
X09686Y-07994D01*
X09763Y-07994D01*
X09950Y-07994D01*
X10213Y-07994D01*
X10528Y-07994D01*
X10856Y-08322D01*
X10856Y-09050D01*
X10856Y-09145D01*
X10784Y-09130D01*
X10770Y-09144D01*
X10770Y-09116D01*
X10750Y-09020D01*
X10563Y-08938D01*
X10358Y-08934D01*
X10168Y-09008D01*
X10150Y-09020D01*
X10130Y-09116D01*
X10450Y-09436D01*
X10770Y-09116D01*
X10770Y-09144D01*
X10499Y-09415D01*
X10464Y-09450D01*
X10450Y-09464D01*
X10436Y-09478D01*
X10436Y-09450D01*
X10116Y-09130D01*
X10020Y-09150D01*
X09938Y-09337D01*
X09934Y-09542D01*
X10008Y-09732D01*
X10020Y-09750D01*
X10116Y-09770D01*
X10436Y-09450D01*
X10436Y-09478D01*
X10415Y-09499D01*
X10130Y-09784D01*
X10150Y-09880D01*
X10337Y-09962D01*
X10542Y-09966D01*
X10732Y-09892D01*
X10750Y-09880D01*
X10757Y-09842D01*
X10759Y-09843D01*
X10759Y-09898D01*
X10759Y-09899D01*
X10759Y-09901D01*
X10759Y-09978D01*
X10759Y-10292D01*
X10771Y-10322D01*
X10741Y-10335D01*
X10686Y-10390D01*
X10656Y-10461D01*
X10656Y-10538D01*
X10656Y-11338D01*
X10685Y-11409D01*
X10740Y-11464D01*
X10811Y-11494D01*
X10888Y-11494D01*
X11488Y-11494D01*
X11559Y-11465D01*
X11614Y-11410D01*
X11644Y-11339D01*
X11644Y-11262D01*
X11644Y-11009D01*
X11792Y-11157D01*
X11887Y-11222D01*
X11972Y-11238D01*
X11935Y-11325D01*
X11930Y-11550D01*
X12012Y-11761D01*
X12026Y-11782D01*
X12127Y-11809D01*
X12451Y-11485D01*
X12486Y-11450D01*
X12500Y-11436D01*
X12514Y-11450D01*
X12549Y-11485D01*
X12873Y-11809D01*
X12974Y-11782D01*
X13065Y-11575D01*
X13070Y-11350D01*
X13013Y-11204D01*
X13088Y-11204D01*
X13542Y-11658D01*
X13637Y-11722D01*
X13750Y-11744D01*
X14545Y-11744D01*
X14670Y-11869D01*
X14851Y-11944D01*
X15048Y-11944D01*
X15230Y-11869D01*
X15356Y-11743D01*
X15356Y-12157D01*
X15230Y-12031D01*
X15049Y-11956D01*
X14852Y-11956D01*
X14670Y-12031D01*
X14545Y-12156D01*
X13529Y-12156D01*
X13510Y-12137D01*
X13374Y-12080D01*
X13227Y-12080D01*
X13091Y-12136D01*
X13071Y-12156D01*
X12821Y-12156D01*
X12717Y-12052D01*
X12620Y-12011D01*
X12811Y-11938D01*
X12832Y-11924D01*
X12859Y-11823D01*
X12500Y-11464D01*
X12141Y-11823D01*
X12168Y-11924D01*
X12325Y-11993D01*
X12184Y-12051D01*
X12052Y-12183D01*
X11980Y-12356D01*
X11980Y-12543D01*
X12051Y-12716D01*
X12183Y-12848D01*
X12356Y-12920D01*
X12543Y-12920D01*
X12716Y-12849D01*
X12821Y-12744D01*
X13071Y-12744D01*
X13090Y-12763D01*
X13226Y-12820D01*
X13373Y-12820D01*
X13509Y-12764D01*
X13529Y-12744D01*
X14545Y-12744D01*
X14670Y-12869D01*
X14808Y-12926D01*
X14654Y-12987D01*
X14635Y-13000D01*
X14613Y-13099D01*
X14950Y-13436D01*
X15287Y-13099D01*
X15265Y-13000D01*
X15094Y-12924D01*
X15230Y-12869D01*
X15356Y-12743D01*
X15356Y-13125D01*
X15356Y-13125D01*
G37*
G54D27*
X15356Y-13125D02*
X15301Y-13113D01*
X14999Y-13415D01*
X14964Y-13450D01*
X14950Y-13464D01*
X14936Y-13478D01*
X14936Y-13450D01*
X14599Y-13113D01*
X14500Y-13135D01*
X14413Y-13332D01*
X14409Y-13547D01*
X14487Y-13746D01*
X14500Y-13765D01*
X14599Y-13787D01*
X14936Y-13450D01*
X14936Y-13478D01*
X14915Y-13499D01*
X14613Y-13801D01*
X14635Y-13900D01*
X14832Y-13987D01*
X15047Y-13991D01*
X15246Y-13913D01*
X15265Y-13900D01*
X15274Y-13859D01*
X15287Y-13871D01*
X15299Y-13884D01*
X15287Y-13897D01*
X14953Y-14231D01*
X13080Y-14231D01*
X13035Y-14186D01*
X13020Y-14179D01*
X13066Y-14161D01*
X13136Y-14091D01*
X13174Y-13999D01*
X13175Y-13847D01*
X13175Y-13703D01*
X13174Y-13551D01*
X13136Y-13459D01*
X13066Y-13389D01*
X12975Y-13351D01*
X12876Y-13351D01*
X12722Y-13350D01*
X12660Y-13412D01*
X12660Y-13765D01*
X13113Y-13765D01*
X13175Y-13703D01*
X13175Y-13847D01*
X13113Y-13785D01*
X12710Y-13785D01*
X12660Y-13785D01*
X12640Y-13785D01*
X12640Y-13765D01*
X12640Y-13715D01*
X12640Y-13412D01*
X12578Y-13350D01*
X12424Y-13351D01*
X12325Y-13351D01*
X12234Y-13389D01*
X12164Y-13459D01*
X12133Y-13533D01*
X12063Y-13354D01*
X12050Y-13335D01*
X11951Y-13313D01*
X11937Y-13327D01*
X11937Y-13299D01*
X11915Y-13200D01*
X11718Y-13113D01*
X11503Y-13109D01*
X11304Y-13187D01*
X11285Y-13200D01*
X11263Y-13299D01*
X11600Y-13636D01*
X11937Y-13299D01*
X11937Y-13327D01*
X11614Y-13650D01*
X11951Y-13987D01*
X12050Y-13965D01*
X12125Y-13795D01*
X12125Y-13835D01*
X12137Y-13835D01*
X12125Y-13847D01*
X12126Y-13999D01*
X12164Y-14091D01*
X12234Y-14161D01*
X12278Y-14179D01*
X12266Y-14185D01*
X12220Y-14231D01*
X12055Y-14231D01*
X12010Y-14186D01*
X11939Y-14156D01*
X11862Y-14156D01*
X11786Y-14156D01*
X11896Y-14113D01*
X11915Y-14100D01*
X11937Y-14001D01*
X11600Y-13664D01*
X11586Y-13678D01*
X11586Y-13650D01*
X11249Y-13313D01*
X11150Y-13335D01*
X11063Y-13532D01*
X11059Y-13747D01*
X11137Y-13946D01*
X11150Y-13965D01*
X11249Y-13987D01*
X11586Y-13650D01*
X11586Y-13678D01*
X11263Y-14001D01*
X11285Y-14100D01*
X11411Y-14156D01*
X11262Y-14156D01*
X11191Y-14185D01*
X11136Y-14240D01*
X11106Y-14311D01*
X11106Y-14356D01*
X11050Y-14356D01*
X11050Y-13572D01*
X11050Y-13428D01*
X11049Y-13151D01*
X11011Y-13059D01*
X10966Y-13014D01*
X10966Y-12358D01*
X10892Y-12168D01*
X10880Y-12150D01*
X10784Y-12130D01*
X10770Y-12144D01*
X10770Y-12116D01*
X10750Y-12020D01*
X10563Y-11938D01*
X10358Y-11934D01*
X10168Y-12008D01*
X10150Y-12020D01*
X10130Y-12116D01*
X10450Y-12436D01*
X10770Y-12116D01*
X10770Y-12144D01*
X10464Y-12450D01*
X10784Y-12770D01*
X10880Y-12750D01*
X10962Y-12563D01*
X10966Y-12358D01*
X10966Y-13014D01*
X10941Y-12989D01*
X10850Y-12951D01*
X10751Y-12951D01*
X10582Y-12950D01*
X10732Y-12892D01*
X10750Y-12880D01*
X10770Y-12784D01*
X10450Y-12464D01*
X10436Y-12478D01*
X10436Y-12450D01*
X10116Y-12130D01*
X10020Y-12150D01*
X09938Y-12337D01*
X09934Y-12542D01*
X10008Y-12732D01*
X10020Y-12750D01*
X10116Y-12770D01*
X10436Y-12450D01*
X10436Y-12478D01*
X10130Y-12784D01*
X10150Y-12880D01*
X10309Y-12950D01*
X10049Y-12951D01*
X09950Y-12951D01*
X09859Y-12989D01*
X09789Y-13059D01*
X09751Y-13151D01*
X09750Y-13428D01*
X09812Y-13490D01*
X10340Y-13490D01*
X10390Y-13490D01*
X10410Y-13490D01*
X10460Y-13490D01*
X10988Y-13490D01*
X11050Y-13428D01*
X11050Y-13572D01*
X10988Y-13510D01*
X10410Y-13510D01*
X10410Y-13988D01*
X10472Y-14050D01*
X10751Y-14049D01*
X10850Y-14049D01*
X10941Y-14011D01*
X11011Y-13941D01*
X11049Y-13849D01*
X11050Y-13572D01*
X11050Y-14356D01*
X10930Y-14356D01*
X10910Y-14336D01*
X10839Y-14306D01*
X10762Y-14306D01*
X10390Y-14306D01*
X10390Y-13988D01*
X10390Y-13510D01*
X09812Y-13510D01*
X09750Y-13572D01*
X09751Y-13849D01*
X09789Y-13941D01*
X09859Y-14011D01*
X09950Y-14049D01*
X10049Y-14049D01*
X10328Y-14050D01*
X10390Y-13988D01*
X10390Y-14306D01*
X09962Y-14306D01*
X09891Y-14335D01*
X09836Y-14390D01*
X09806Y-14461D01*
X09806Y-14538D01*
X09806Y-14978D01*
X09628Y-15156D01*
X09347Y-15156D01*
X09347Y-14397D01*
X09347Y-14253D01*
X09347Y-12447D01*
X09347Y-12303D01*
X09346Y-12188D01*
X09308Y-12096D01*
X09238Y-12026D01*
X09147Y-11988D01*
X09048Y-11988D01*
X08972Y-11987D01*
X08910Y-12049D01*
X08910Y-12365D01*
X09285Y-12365D01*
X09347Y-12303D01*
X09347Y-12447D01*
X09285Y-12385D01*
X08910Y-12385D01*
X08910Y-12701D01*
X08972Y-12763D01*
X09048Y-12762D01*
X09147Y-12762D01*
X09238Y-12724D01*
X09308Y-12654D01*
X09346Y-12562D01*
X09347Y-12447D01*
X09347Y-14253D01*
X09346Y-14138D01*
X09308Y-14046D01*
X09238Y-13976D01*
X09147Y-13938D01*
X09048Y-13938D01*
X08972Y-13937D01*
X08910Y-13999D01*
X08910Y-14315D01*
X09285Y-14315D01*
X09347Y-14253D01*
X09347Y-14397D01*
X09285Y-14335D01*
X08910Y-14335D01*
X08910Y-14651D01*
X08972Y-14713D01*
X09048Y-14712D01*
X09147Y-14712D01*
X09238Y-14674D01*
X09308Y-14604D01*
X09346Y-14512D01*
X09347Y-14397D01*
X09347Y-15156D01*
X09291Y-15156D01*
X09291Y-14899D01*
X09262Y-14828D01*
X09207Y-14773D01*
X09136Y-14743D01*
X09059Y-14743D01*
X08694Y-14743D01*
X08694Y-14712D01*
X08752Y-14712D01*
X08828Y-14713D01*
X08890Y-14651D01*
X08890Y-14385D01*
X08890Y-14335D01*
X08890Y-14315D01*
X08890Y-14265D01*
X08890Y-13999D01*
X08828Y-13937D01*
X08752Y-13938D01*
X08694Y-13938D01*
X08694Y-13457D01*
X08741Y-13457D01*
X09135Y-13457D01*
X09206Y-13428D01*
X09261Y-13373D01*
X09291Y-13302D01*
X09291Y-13225D01*
X09291Y-12949D01*
X09262Y-12878D01*
X09207Y-12823D01*
X09136Y-12793D01*
X09059Y-12793D01*
X08694Y-12793D01*
X08694Y-12762D01*
X08752Y-12762D01*
X08828Y-12763D01*
X08890Y-12701D01*
X08890Y-12435D01*
X08890Y-12385D01*
X08890Y-12365D01*
X08890Y-12315D01*
X08890Y-12049D01*
X08828Y-11987D01*
X08752Y-11988D01*
X08694Y-11988D01*
X08694Y-11657D01*
X08741Y-11657D01*
X09135Y-11657D01*
X09206Y-11628D01*
X09215Y-11619D01*
X09425Y-11619D01*
X09537Y-11597D01*
X09538Y-11597D01*
X09633Y-11533D01*
X09672Y-11494D01*
X10188Y-11494D01*
X10259Y-11465D01*
X10314Y-11410D01*
X10344Y-11339D01*
X10344Y-11262D01*
X10344Y-10462D01*
X10315Y-10391D01*
X10260Y-10336D01*
X10189Y-10306D01*
X10112Y-10306D01*
X09512Y-10306D01*
X09441Y-10335D01*
X09386Y-10390D01*
X09356Y-10461D01*
X09356Y-10538D01*
X09356Y-10978D01*
X09347Y-10987D01*
X09347Y-08847D01*
X09347Y-08703D01*
X09347Y-06897D01*
X09285Y-06835D01*
X08910Y-06835D01*
X08910Y-07151D01*
X08972Y-07213D01*
X09048Y-07212D01*
X09147Y-07212D01*
X09238Y-07174D01*
X09308Y-07104D01*
X09346Y-07012D01*
X09347Y-06897D01*
X09347Y-08703D01*
X09346Y-08588D01*
X09308Y-08496D01*
X09238Y-08426D01*
X09147Y-08388D01*
X09048Y-08388D01*
X08972Y-08387D01*
X08910Y-08449D01*
X08910Y-08765D01*
X09285Y-08765D01*
X09347Y-08703D01*
X09347Y-08847D01*
X09285Y-08785D01*
X08910Y-08785D01*
X08910Y-09101D01*
X08972Y-09163D01*
X09048Y-09162D01*
X09147Y-09162D01*
X09238Y-09124D01*
X09308Y-09054D01*
X09346Y-08962D01*
X09347Y-08847D01*
X09347Y-10987D01*
X09303Y-11031D01*
X09215Y-11031D01*
X09207Y-11023D01*
X09136Y-10993D01*
X09059Y-10993D01*
X08665Y-10993D01*
X08647Y-11000D01*
X08613Y-10950D01*
X08647Y-10899D01*
X08664Y-10907D01*
X08741Y-10907D01*
X09135Y-10907D01*
X09206Y-10878D01*
X09261Y-10823D01*
X09291Y-10752D01*
X09291Y-10675D01*
X09291Y-10399D01*
X09262Y-10328D01*
X09236Y-10302D01*
X09270Y-10224D01*
X09270Y-10077D01*
X09214Y-09941D01*
X09130Y-09857D01*
X09135Y-09857D01*
X09206Y-09828D01*
X09261Y-09773D01*
X09291Y-09702D01*
X09291Y-09625D01*
X09291Y-09349D01*
X09262Y-09278D01*
X09207Y-09223D01*
X09136Y-09193D01*
X09059Y-09193D01*
X08694Y-09193D01*
X08694Y-09162D01*
X08752Y-09162D01*
X08828Y-09163D01*
X08890Y-09101D01*
X08890Y-08835D01*
X08890Y-08785D01*
X08890Y-08765D01*
X08890Y-08715D01*
X08890Y-08449D01*
X08828Y-08387D01*
X08752Y-08388D01*
X08694Y-08388D01*
X08694Y-08222D01*
X09009Y-07907D01*
X09135Y-07907D01*
X09206Y-07878D01*
X09261Y-07823D01*
X09291Y-07752D01*
X09291Y-07675D01*
X09291Y-07399D01*
X09262Y-07328D01*
X09207Y-07273D01*
X09136Y-07243D01*
X09059Y-07243D01*
X08890Y-07243D01*
X08890Y-07151D01*
X08890Y-06835D01*
X08515Y-06835D01*
X08453Y-06897D01*
X08454Y-07012D01*
X08492Y-07104D01*
X08562Y-07174D01*
X08653Y-07212D01*
X08752Y-07212D01*
X08828Y-07213D01*
X08890Y-07151D01*
X08890Y-07243D01*
X08665Y-07243D01*
X08594Y-07272D01*
X08539Y-07327D01*
X08509Y-07398D01*
X08509Y-07475D01*
X08509Y-07575D01*
X08192Y-07892D01*
X08128Y-07987D01*
X08106Y-08100D01*
X08106Y-08818D01*
X08059Y-08818D01*
X07665Y-08818D01*
X07594Y-08847D01*
X07581Y-08859D01*
X07487Y-08878D01*
X07392Y-08942D01*
X07389Y-08945D01*
X07084Y-09249D01*
X06964Y-09199D01*
X07097Y-09145D01*
X07245Y-08998D01*
X07325Y-08805D01*
X07325Y-08596D01*
X07245Y-08403D01*
X07098Y-08255D01*
X06905Y-08175D01*
X06696Y-08175D01*
X06503Y-08255D01*
X06355Y-08402D01*
X06353Y-08406D01*
X06321Y-08406D01*
X06094Y-08178D01*
X06094Y-06721D01*
X06321Y-06494D01*
X06353Y-06494D01*
X06355Y-06497D01*
X06502Y-06645D01*
X06635Y-06700D01*
X06503Y-06755D01*
X06355Y-06902D01*
X06275Y-07095D01*
X06275Y-07304D01*
X06355Y-07497D01*
X06502Y-07645D01*
X06695Y-07725D01*
X06904Y-07725D01*
X07097Y-07645D01*
X07245Y-07498D01*
X07246Y-07494D01*
X07585Y-07494D01*
X07593Y-07502D01*
X07664Y-07532D01*
X07741Y-07532D01*
X08135Y-07532D01*
X08206Y-07503D01*
X08261Y-07448D01*
X08291Y-07377D01*
X08291Y-07300D01*
X08291Y-07024D01*
X08262Y-06953D01*
X08207Y-06898D01*
X08136Y-06868D01*
X08059Y-06868D01*
X07665Y-06868D01*
X07594Y-06897D01*
X07585Y-06906D01*
X07246Y-06906D01*
X07245Y-06903D01*
X07098Y-06755D01*
X06964Y-06699D01*
X07097Y-06645D01*
X07245Y-06498D01*
X07246Y-06494D01*
X08544Y-06494D01*
X08492Y-06546D01*
X08454Y-06638D01*
X08453Y-06753D01*
X08515Y-06815D01*
X08840Y-06815D01*
X08890Y-06815D01*
X08910Y-06815D01*
X08960Y-06815D01*
X09285Y-06815D01*
X09347Y-06753D01*
X09346Y-06638D01*
X09308Y-06546D01*
X09256Y-06494D01*
X09559Y-06494D01*
X09531Y-06561D01*
X09531Y-06638D01*
X09531Y-06838D01*
X09560Y-06909D01*
X09601Y-06950D01*
X09561Y-06990D01*
X09531Y-07061D01*
X09531Y-07138D01*
X09531Y-07338D01*
X09560Y-07409D01*
X09601Y-07450D01*
X09561Y-07490D01*
X09531Y-07561D01*
X09531Y-07638D01*
X09531Y-07838D01*
X09560Y-07909D01*
X09615Y-07964D01*
X09686Y-07994D01*
X09763Y-07994D01*
X09950Y-07994D01*
X10213Y-07994D01*
X10528Y-07994D01*
X10856Y-08322D01*
X10856Y-09050D01*
X10856Y-09145D01*
X10784Y-09130D01*
X10770Y-09144D01*
X10770Y-09116D01*
X10750Y-09020D01*
X10563Y-08938D01*
X10358Y-08934D01*
X10168Y-09008D01*
X10150Y-09020D01*
X10130Y-09116D01*
X10450Y-09436D01*
X10770Y-09116D01*
X10770Y-09144D01*
X10499Y-09415D01*
X10464Y-09450D01*
X10450Y-09464D01*
X10436Y-09478D01*
X10436Y-09450D01*
X10116Y-09130D01*
X10020Y-09150D01*
X09938Y-09337D01*
X09934Y-09542D01*
X10008Y-09732D01*
X10020Y-09750D01*
X10116Y-09770D01*
X10436Y-09450D01*
X10436Y-09478D01*
X10415Y-09499D01*
X10130Y-09784D01*
X10150Y-09880D01*
X10337Y-09962D01*
X10542Y-09966D01*
X10732Y-09892D01*
X10750Y-09880D01*
X10757Y-09842D01*
X10759Y-09843D01*
X10759Y-09898D01*
X10759Y-09899D01*
X10759Y-09901D01*
X10759Y-09978D01*
X10759Y-10292D01*
X10771Y-10322D01*
X10741Y-10335D01*
X10686Y-10390D01*
X10656Y-10461D01*
X10656Y-10538D01*
X10656Y-11338D01*
X10685Y-11409D01*
X10740Y-11464D01*
X10811Y-11494D01*
X10888Y-11494D01*
X11488Y-11494D01*
X11559Y-11465D01*
X11614Y-11410D01*
X11644Y-11339D01*
X11644Y-11262D01*
X11644Y-11009D01*
X11792Y-11157D01*
X11887Y-11222D01*
X11972Y-11238D01*
X11935Y-11325D01*
X11930Y-11550D01*
X12012Y-11761D01*
X12026Y-11782D01*
X12127Y-11809D01*
X12451Y-11485D01*
X12486Y-11450D01*
X12500Y-11436D01*
X12514Y-11450D01*
X12549Y-11485D01*
X12873Y-11809D01*
X12974Y-11782D01*
X13065Y-11575D01*
X13070Y-11350D01*
X13013Y-11204D01*
X13088Y-11204D01*
X13542Y-11658D01*
X13637Y-11722D01*
X13750Y-11744D01*
X14545Y-11744D01*
X14670Y-11869D01*
X14851Y-11944D01*
X15048Y-11944D01*
X15230Y-11869D01*
X15356Y-11743D01*
X15356Y-12157D01*
X15230Y-12031D01*
X15049Y-11956D01*
X14852Y-11956D01*
X14670Y-12031D01*
X14545Y-12156D01*
X13529Y-12156D01*
X13510Y-12137D01*
X13374Y-12080D01*
X13227Y-12080D01*
X13091Y-12136D01*
X13071Y-12156D01*
X12821Y-12156D01*
X12717Y-12052D01*
X12620Y-12011D01*
X12811Y-11938D01*
X12832Y-11924D01*
X12859Y-11823D01*
X12500Y-11464D01*
X12141Y-11823D01*
X12168Y-11924D01*
X12325Y-11993D01*
X12184Y-12051D01*
X12052Y-12183D01*
X11980Y-12356D01*
X11980Y-12543D01*
X12051Y-12716D01*
X12183Y-12848D01*
X12356Y-12920D01*
X12543Y-12920D01*
X12716Y-12849D01*
X12821Y-12744D01*
X13071Y-12744D01*
X13090Y-12763D01*
X13226Y-12820D01*
X13373Y-12820D01*
X13509Y-12764D01*
X13529Y-12744D01*
X14545Y-12744D01*
X14670Y-12869D01*
X14808Y-12926D01*
X14654Y-12987D01*
X14635Y-13000D01*
X14613Y-13099D01*
X14950Y-13436D01*
X15287Y-13099D01*
X15265Y-13000D01*
X15094Y-12924D01*
X15230Y-12869D01*
X15356Y-12743D01*
X15356Y-13125D01*
G54D10*
G36*
X15456Y-09978D02*
X15316Y-10117D01*
X15230Y-10031D01*
X15049Y-09956D01*
X14852Y-09956D01*
X14670Y-10031D01*
X14545Y-10156D01*
X14394Y-10156D01*
X14394Y-10087D01*
X14365Y-10016D01*
X14310Y-09961D01*
X14239Y-09931D01*
X14162Y-09931D01*
X13944Y-09931D01*
X13944Y-09771D01*
X13971Y-09744D01*
X14545Y-09744D01*
X14670Y-09869D01*
X14851Y-09944D01*
X15048Y-09944D01*
X15230Y-09869D01*
X15369Y-09730D01*
X15444Y-09549D01*
X15444Y-09352D01*
X15369Y-09170D01*
X15230Y-09031D01*
X15049Y-08956D01*
X14852Y-08956D01*
X14670Y-09031D01*
X14545Y-09156D01*
X13850Y-09156D01*
X13849Y-09156D01*
X13737Y-09178D01*
X13642Y-09242D01*
X13639Y-09245D01*
X13622Y-09262D01*
X13614Y-09241D01*
X13510Y-09137D01*
X13374Y-09080D01*
X13227Y-09080D01*
X13091Y-09136D01*
X13071Y-09156D01*
X12821Y-09156D01*
X12717Y-09052D01*
X12544Y-08980D01*
X12465Y-08980D01*
X12465Y-08913D01*
X12465Y-08460D01*
X12112Y-08460D01*
X12050Y-08522D01*
X12051Y-08676D01*
X12051Y-08775D01*
X12089Y-08866D01*
X12159Y-08936D01*
X12251Y-08974D01*
X12403Y-08975D01*
X12465Y-08913D01*
X12465Y-08980D01*
X12357Y-08980D01*
X12184Y-09051D01*
X12125Y-09109D01*
X11894Y-08878D01*
X11894Y-06721D01*
X12031Y-06584D01*
X12031Y-06638D01*
X12031Y-06838D01*
X12060Y-06909D01*
X12101Y-06950D01*
X12061Y-06990D01*
X12031Y-07061D01*
X12031Y-07138D01*
X12031Y-07338D01*
X12060Y-07409D01*
X12062Y-07411D01*
X12014Y-07459D01*
X11976Y-07551D01*
X11975Y-07628D01*
X12037Y-07690D01*
X12390Y-07690D01*
X12440Y-07690D01*
X12460Y-07690D01*
X12460Y-07710D01*
X12440Y-07710D01*
X12390Y-07710D01*
X12037Y-07710D01*
X11975Y-07772D01*
X11976Y-07849D01*
X12014Y-07941D01*
X12084Y-08011D01*
X12103Y-08019D01*
X12089Y-08034D01*
X12051Y-08125D01*
X12051Y-08224D01*
X12050Y-08378D01*
X12112Y-08440D01*
X12415Y-08440D01*
X12465Y-08440D01*
X12485Y-08440D01*
X12485Y-08460D01*
X12485Y-08510D01*
X12485Y-08913D01*
X12547Y-08975D01*
X12699Y-08974D01*
X12791Y-08936D01*
X12861Y-08866D01*
X12879Y-08821D01*
X12885Y-08834D01*
X12940Y-08889D01*
X13011Y-08919D01*
X13088Y-08919D01*
X13438Y-08919D01*
X13509Y-08890D01*
X13564Y-08835D01*
X13568Y-08824D01*
X13607Y-08841D01*
X13684Y-08841D01*
X13998Y-08841D01*
X13999Y-08840D01*
X14001Y-08841D01*
X14078Y-08841D01*
X14392Y-08841D01*
X14463Y-08812D01*
X14464Y-08810D01*
X14485Y-08859D01*
X14540Y-08914D01*
X14611Y-08944D01*
X14688Y-08944D01*
X15288Y-08944D01*
X15359Y-08915D01*
X15414Y-08860D01*
X15444Y-08789D01*
X15444Y-08712D01*
X15444Y-08112D01*
X15415Y-08041D01*
X15360Y-07986D01*
X15289Y-07956D01*
X15244Y-07956D01*
X15244Y-06200D01*
X15243Y-06199D01*
X15222Y-06087D01*
X15158Y-05992D01*
X15157Y-05991D01*
X15010Y-05844D01*
X15128Y-05844D01*
X15456Y-06172D01*
X15456Y-09978D01*
X15456Y-09978D01*
G37*
G54D27*
X15456Y-09978D02*
X15316Y-10117D01*
X15230Y-10031D01*
X15049Y-09956D01*
X14852Y-09956D01*
X14670Y-10031D01*
X14545Y-10156D01*
X14394Y-10156D01*
X14394Y-10087D01*
X14365Y-10016D01*
X14310Y-09961D01*
X14239Y-09931D01*
X14162Y-09931D01*
X13944Y-09931D01*
X13944Y-09771D01*
X13971Y-09744D01*
X14545Y-09744D01*
X14670Y-09869D01*
X14851Y-09944D01*
X15048Y-09944D01*
X15230Y-09869D01*
X15369Y-09730D01*
X15444Y-09549D01*
X15444Y-09352D01*
X15369Y-09170D01*
X15230Y-09031D01*
X15049Y-08956D01*
X14852Y-08956D01*
X14670Y-09031D01*
X14545Y-09156D01*
X13850Y-09156D01*
X13849Y-09156D01*
X13737Y-09178D01*
X13642Y-09242D01*
X13639Y-09245D01*
X13622Y-09262D01*
X13614Y-09241D01*
X13510Y-09137D01*
X13374Y-09080D01*
X13227Y-09080D01*
X13091Y-09136D01*
X13071Y-09156D01*
X12821Y-09156D01*
X12717Y-09052D01*
X12544Y-08980D01*
X12465Y-08980D01*
X12465Y-08913D01*
X12465Y-08460D01*
X12112Y-08460D01*
X12050Y-08522D01*
X12051Y-08676D01*
X12051Y-08775D01*
X12089Y-08866D01*
X12159Y-08936D01*
X12251Y-08974D01*
X12403Y-08975D01*
X12465Y-08913D01*
X12465Y-08980D01*
X12357Y-08980D01*
X12184Y-09051D01*
X12125Y-09109D01*
X11894Y-08878D01*
X11894Y-06721D01*
X12031Y-06584D01*
X12031Y-06638D01*
X12031Y-06838D01*
X12060Y-06909D01*
X12101Y-06950D01*
X12061Y-06990D01*
X12031Y-07061D01*
X12031Y-07138D01*
X12031Y-07338D01*
X12060Y-07409D01*
X12062Y-07411D01*
X12014Y-07459D01*
X11976Y-07551D01*
X11975Y-07628D01*
X12037Y-07690D01*
X12390Y-07690D01*
X12440Y-07690D01*
X12460Y-07690D01*
X12460Y-07710D01*
X12440Y-07710D01*
X12390Y-07710D01*
X12037Y-07710D01*
X11975Y-07772D01*
X11976Y-07849D01*
X12014Y-07941D01*
X12084Y-08011D01*
X12103Y-08019D01*
X12089Y-08034D01*
X12051Y-08125D01*
X12051Y-08224D01*
X12050Y-08378D01*
X12112Y-08440D01*
X12415Y-08440D01*
X12465Y-08440D01*
X12485Y-08440D01*
X12485Y-08460D01*
X12485Y-08510D01*
X12485Y-08913D01*
X12547Y-08975D01*
X12699Y-08974D01*
X12791Y-08936D01*
X12861Y-08866D01*
X12879Y-08821D01*
X12885Y-08834D01*
X12940Y-08889D01*
X13011Y-08919D01*
X13088Y-08919D01*
X13438Y-08919D01*
X13509Y-08890D01*
X13564Y-08835D01*
X13568Y-08824D01*
X13607Y-08841D01*
X13684Y-08841D01*
X13998Y-08841D01*
X13999Y-08840D01*
X14001Y-08841D01*
X14078Y-08841D01*
X14392Y-08841D01*
X14463Y-08812D01*
X14464Y-08810D01*
X14485Y-08859D01*
X14540Y-08914D01*
X14611Y-08944D01*
X14688Y-08944D01*
X15288Y-08944D01*
X15359Y-08915D01*
X15414Y-08860D01*
X15444Y-08789D01*
X15444Y-08712D01*
X15444Y-08112D01*
X15415Y-08041D01*
X15360Y-07986D01*
X15289Y-07956D01*
X15244Y-07956D01*
X15244Y-06200D01*
X15243Y-06199D01*
X15222Y-06087D01*
X15158Y-05992D01*
X15157Y-05991D01*
X15010Y-05844D01*
X15128Y-05844D01*
X15456Y-06172D01*
X15456Y-09978D01*
G54D10*
G36*
X16147Y-15754D02*
X05270Y-15754D01*
X05270Y-05270D01*
X11628Y-05270D01*
X11587Y-05278D01*
X11492Y-05342D01*
X10428Y-06406D01*
X10340Y-06406D01*
X10369Y-06339D01*
X10369Y-06262D01*
X10369Y-06062D01*
X10340Y-05991D01*
X10285Y-05936D01*
X10214Y-05906D01*
X10137Y-05906D01*
X09950Y-05906D01*
X09687Y-05906D01*
X07246Y-05906D01*
X07245Y-05903D01*
X07098Y-05755D01*
X06905Y-05675D01*
X06696Y-05675D01*
X06503Y-05755D01*
X06355Y-05902D01*
X06353Y-05906D01*
X06200Y-05906D01*
X06087Y-05928D01*
X05992Y-05992D01*
X05989Y-05995D01*
X05592Y-06392D01*
X05528Y-06487D01*
X05506Y-06600D01*
X05506Y-08300D01*
X05528Y-08413D01*
X05592Y-08508D01*
X05784Y-08700D01*
X05592Y-08892D01*
X05528Y-08987D01*
X05506Y-09100D01*
X05506Y-10800D01*
X05528Y-10913D01*
X05592Y-11008D01*
X05784Y-11200D01*
X05592Y-11392D01*
X05528Y-11487D01*
X05506Y-11600D01*
X05506Y-13300D01*
X05528Y-13413D01*
X05592Y-13508D01*
X05784Y-13700D01*
X05592Y-13892D01*
X05528Y-13987D01*
X05506Y-14100D01*
X05506Y-14800D01*
X05528Y-14913D01*
X05592Y-15008D01*
X06242Y-15658D01*
X06337Y-15722D01*
X06450Y-15744D01*
X09750Y-15744D01*
X09862Y-15722D01*
X09863Y-15722D01*
X09958Y-15658D01*
X10322Y-15294D01*
X10838Y-15294D01*
X10909Y-15265D01*
X10964Y-15210D01*
X10994Y-15139D01*
X10994Y-15062D01*
X10994Y-14944D01*
X11106Y-14944D01*
X11106Y-14988D01*
X11135Y-15059D01*
X11190Y-15114D01*
X11261Y-15144D01*
X11338Y-15144D01*
X11938Y-15144D01*
X12009Y-15115D01*
X12064Y-15060D01*
X12094Y-14989D01*
X12094Y-14912D01*
X12094Y-14819D01*
X12220Y-14819D01*
X12265Y-14864D01*
X12336Y-14894D01*
X12413Y-14894D01*
X12963Y-14894D01*
X13034Y-14865D01*
X13080Y-14819D01*
X15075Y-14819D01*
X15187Y-14797D01*
X15188Y-14797D01*
X15283Y-14733D01*
X15858Y-14158D01*
X15922Y-14063D01*
X15944Y-13950D01*
X15944Y-11150D01*
X15943Y-11149D01*
X15944Y-11149D01*
X15922Y-11037D01*
X15858Y-10942D01*
X15854Y-10939D01*
X15658Y-10742D01*
X15570Y-10683D01*
X15608Y-10658D01*
X15957Y-10309D01*
X15957Y-10308D01*
X15958Y-10308D01*
X16022Y-10213D01*
X16043Y-10101D01*
X16044Y-10100D01*
X16044Y-06050D01*
X16022Y-05937D01*
X15958Y-05842D01*
X15458Y-05342D01*
X15363Y-05278D01*
X15321Y-05270D01*
X16147Y-05270D01*
X16147Y-15754D01*
X16147Y-15754D01*
G37*
G54D27*
X16147Y-15754D02*
X05270Y-15754D01*
X05270Y-05270D01*
X11628Y-05270D01*
X11587Y-05278D01*
X11492Y-05342D01*
X10428Y-06406D01*
X10340Y-06406D01*
X10369Y-06339D01*
X10369Y-06262D01*
X10369Y-06062D01*
X10340Y-05991D01*
X10285Y-05936D01*
X10214Y-05906D01*
X10137Y-05906D01*
X09950Y-05906D01*
X09687Y-05906D01*
X07246Y-05906D01*
X07245Y-05903D01*
X07098Y-05755D01*
X06905Y-05675D01*
X06696Y-05675D01*
X06503Y-05755D01*
X06355Y-05902D01*
X06353Y-05906D01*
X06200Y-05906D01*
X06087Y-05928D01*
X05992Y-05992D01*
X05989Y-05995D01*
X05592Y-06392D01*
X05528Y-06487D01*
X05506Y-06600D01*
X05506Y-08300D01*
X05528Y-08413D01*
X05592Y-08508D01*
X05784Y-08700D01*
X05592Y-08892D01*
X05528Y-08987D01*
X05506Y-09100D01*
X05506Y-10800D01*
X05528Y-10913D01*
X05592Y-11008D01*
X05784Y-11200D01*
X05592Y-11392D01*
X05528Y-11487D01*
X05506Y-11600D01*
X05506Y-13300D01*
X05528Y-13413D01*
X05592Y-13508D01*
X05784Y-13700D01*
X05592Y-13892D01*
X05528Y-13987D01*
X05506Y-14100D01*
X05506Y-14800D01*
X05528Y-14913D01*
X05592Y-15008D01*
X06242Y-15658D01*
X06337Y-15722D01*
X06450Y-15744D01*
X09750Y-15744D01*
X09862Y-15722D01*
X09863Y-15722D01*
X09958Y-15658D01*
X10322Y-15294D01*
X10838Y-15294D01*
X10909Y-15265D01*
X10964Y-15210D01*
X10994Y-15139D01*
X10994Y-15062D01*
X10994Y-14944D01*
X11106Y-14944D01*
X11106Y-14988D01*
X11135Y-15059D01*
X11190Y-15114D01*
X11261Y-15144D01*
X11338Y-15144D01*
X11938Y-15144D01*
X12009Y-15115D01*
X12064Y-15060D01*
X12094Y-14989D01*
X12094Y-14912D01*
X12094Y-14819D01*
X12220Y-14819D01*
X12265Y-14864D01*
X12336Y-14894D01*
X12413Y-14894D01*
X12963Y-14894D01*
X13034Y-14865D01*
X13080Y-14819D01*
X15075Y-14819D01*
X15187Y-14797D01*
X15188Y-14797D01*
X15283Y-14733D01*
X15858Y-14158D01*
X15922Y-14063D01*
X15944Y-13950D01*
X15944Y-11150D01*
X15943Y-11149D01*
X15944Y-11149D01*
X15922Y-11037D01*
X15858Y-10942D01*
X15854Y-10939D01*
X15658Y-10742D01*
X15570Y-10683D01*
X15608Y-10658D01*
X15957Y-10309D01*
X15957Y-10308D01*
X15958Y-10308D01*
X16022Y-10213D01*
X16043Y-10101D01*
X16044Y-10100D01*
X16044Y-06050D01*
X16022Y-05937D01*
X15958Y-05842D01*
X15458Y-05342D01*
X15363Y-05278D01*
X15321Y-05270D01*
X16147Y-05270D01*
X16147Y-15754D01*
M02*
