G04 (created by PCBNEW-RS274X (2012-01-19 BZR 3256)-stable) date 07/11/2012 22:21:36*
G01*
G70*
G90*
%MOIN*%
G04 Gerber Fmt 3.4, Leading zero omitted, Abs format*
%FSLAX34Y34*%
G04 APERTURE LIST*
%ADD10C,0.006000*%
%ADD11C,0.075000*%
%ADD12R,0.100000X0.080000*%
%ADD13R,0.080000X0.100000*%
%ADD14R,0.075000X0.055000*%
%ADD15R,0.055000X0.075000*%
%ADD16R,0.080000X0.080000*%
%ADD17C,0.080000*%
%ADD18R,0.065000X0.040000*%
%ADD19R,0.120000X0.047600*%
%ADD20R,0.059400X0.047600*%
%ADD21C,0.086000*%
G04 APERTURE END LIST*
G54D10*
G54D11*
X12450Y-12450D03*
X10450Y-12450D03*
X12450Y-09450D03*
X10450Y-09450D03*
G54D12*
X10400Y-14800D03*
X10400Y-13500D03*
G54D13*
X11150Y-10900D03*
X09850Y-10900D03*
G54D14*
X12650Y-14525D03*
X12650Y-13775D03*
G54D15*
X13225Y-08450D03*
X12475Y-08450D03*
X13275Y-10400D03*
X14025Y-10400D03*
G54D16*
X11600Y-14650D03*
G54D17*
X11600Y-13650D03*
G54D18*
X09950Y-06200D03*
X09950Y-06700D03*
X09950Y-07200D03*
X09950Y-07700D03*
X12450Y-07700D03*
X12450Y-07200D03*
X12450Y-06700D03*
X12450Y-06200D03*
G54D16*
X14950Y-08450D03*
G54D17*
X14950Y-09450D03*
X14950Y-10450D03*
X14950Y-11450D03*
X14950Y-12450D03*
X14950Y-13450D03*
G54D19*
X13601Y-06476D03*
X13601Y-06949D03*
X13601Y-07421D03*
G54D20*
X07900Y-12750D03*
X08900Y-13125D03*
X08900Y-12375D03*
X07900Y-09150D03*
X08900Y-09525D03*
X08900Y-08775D03*
X07900Y-07200D03*
X08900Y-07575D03*
X08900Y-06825D03*
X07900Y-14700D03*
X08900Y-15075D03*
X08900Y-14325D03*
X07900Y-10950D03*
X08900Y-11325D03*
X08900Y-10575D03*
G54D21*
X12500Y-10450D03*
X12500Y-11450D03*
M02*
